<svg xmlns="http://www.w3.org/2000/svg" width="89.78" height="36.859" viewBox="0 0 89.78 36.859">
  <g id="Apple_Pay" data-name="Apple Pay" transform="translate(-4.058 -14.5)">
    <path id="_Compound_Path_" data-name="&lt;Compound Path&gt;" d="M20.45,19.25a5.621,5.621,0,0,1-4.413,2.08,6.38,6.38,0,0,1,1.574-4.581A6.605,6.605,0,0,1,22,14.5a6.521,6.521,0,0,1-1.546,4.75M22,21.667c-2.445-.141-4.525,1.377-5.621,1.377s-2.811-1.293-4.891-1.265A7.252,7.252,0,0,0,5.3,25.49c-2.614,4.525-.675,11.243,1.883,14.925,1.237,1.8,2.811,3.823,4.694,3.738s2.586-1.209,4.834-1.209,2.811,1.209,4.863,1.181,3.317-1.827,4.581-3.654a16.134,16.134,0,0,0,2.024-4.188,6.577,6.577,0,0,1-3.963-6.015,6.746,6.746,0,0,1,3.2-5.621A7.027,7.027,0,0,0,22,21.7M36.05,16.608v27.4h4.385V34.569h5.874a8.657,8.657,0,0,0,9.135-8.994,8.6,8.6,0,0,0-8.994-8.994Zm4.385,3.57h4.778a5.087,5.087,0,0,1,5.79,5.4,5.144,5.144,0,0,1-5.818,5.453h-4.75ZM63.089,44.013a7.027,7.027,0,0,0,6.24-3.485h0v3.485h3.935V30.324c0-3.963-3.148-6.493-8.011-6.493S57.5,26.418,57.3,29.959h3.823a3.738,3.738,0,0,1,4.019-2.811c2.586,0,4.047,1.237,4.047,3.457V32.1l-5.312.337c-4.919.281-7.589,2.3-7.589,5.818a6.015,6.015,0,0,0,6.8,5.762Zm1.124-3.232c-2.249,0-3.682-1.1-3.682-2.811s1.377-2.811,4.019-2.811l4.722-.309V36.4a4.61,4.61,0,0,1-5.059,4.5ZM78.6,51.236c4.132,0,6.071-1.574,7.786-6.352l7.448-20.8h-4.3l-5,16.162h0l-5-16.162H75.006l7.2,19.928-.394,1.209a3.4,3.4,0,0,1-3.57,2.811H76.974v3.289a15.036,15.036,0,0,0,1.63.028Z" transform="translate(0 0)"/>
  </g>
</svg>
