<svg width="167" height="48" viewBox="0 0 167 48" fill="none" xmlns="http://www.w3.org/2000/svg">
<path d="M166.85 42.9424C166.85 45.5292 164.715 47.6246 162.073 47.6246H5.73089C3.09049 47.6246 0.947266 45.5292 0.947266 42.9424V5.60296C0.947266 3.01734 3.09049 0.914612 5.73089 0.914612H162.072C164.715 0.914612 166.849 3.01734 166.849 5.60296L166.85 42.9424Z" fill="#101010"/>
<path d="M37.4638 24.0091C37.4278 20.0979 40.7434 18.1951 40.895 18.1064C39.0172 15.433 36.1068 15.0677 35.084 15.0386C32.6396 14.7874 30.2685 16.4669 29.0233 16.4669C27.7532 16.4669 25.8358 15.0629 23.7691 15.1041C21.1097 15.1441 18.6217 16.6478 17.2572 18.9826C14.4412 23.7433 16.5414 30.7394 19.2393 34.5875C20.589 36.4722 22.166 38.5765 24.2302 38.5025C26.2495 38.4211 27.0039 37.2452 29.4409 37.2452C31.8555 37.2452 32.5638 38.5025 34.6689 38.4551C36.8362 38.4211 38.2007 36.562 39.5031 34.6603C41.0628 32.5003 41.6891 30.373 41.714 30.2637C41.663 30.2467 37.5049 28.6971 37.4638 24.0091Z" fill="white"/>
<path d="M33.4797 12.5039C34.5658 11.1775 35.3089 9.37288 35.1026 7.54169C33.5306 7.60964 31.5646 8.60354 30.4325 9.9008C29.4309 11.044 28.5361 12.9176 28.7672 14.6797C30.5331 14.8084 32.3462 13.8096 33.4797 12.5039Z" fill="white"/>
<path d="M60.9713 12.1434C60.9713 13.5717 60.5326 14.6469 59.6566 15.369C58.845 16.0352 57.6918 16.369 56.1981 16.369C55.4574 16.369 54.8236 16.3374 54.293 16.2743V8.46997C54.9852 8.36075 55.7308 8.30493 56.536 8.30493C57.959 8.30493 59.0315 8.6071 59.7547 9.21142C60.565 9.89464 60.9713 10.8716 60.9713 12.1434ZM59.5982 12.1786C59.5982 11.2526 59.3471 10.5427 58.845 10.0476C58.343 9.5537 57.6098 9.3061 56.6442 9.3061C56.2341 9.3061 55.8849 9.33277 55.5953 9.3886V15.3217C55.7556 15.3459 56.0489 15.3568 56.4752 15.3568C57.4718 15.3568 58.2411 15.0862 58.7829 14.545C59.3248 14.0038 59.5982 13.2149 59.5982 12.1786Z" fill="white"/>
<path d="M68.2494 13.3922C68.2494 14.272 67.9921 14.9929 67.4776 15.5584C66.9383 16.1396 66.2237 16.4297 65.3314 16.4297C64.4715 16.4297 63.7867 16.1518 63.276 15.5936C62.7665 15.0365 62.5117 14.3339 62.5117 13.4869C62.5117 12.601 62.7739 11.8741 63.3009 11.3098C63.8278 10.7455 64.5362 10.4627 65.4284 10.4627C66.2884 10.4627 66.9793 10.7406 67.5025 11.2976C67.9996 11.8388 68.2494 12.5379 68.2494 13.3922ZM66.8986 13.4335C66.8986 12.9056 66.7817 12.4529 66.5493 12.0755C66.276 11.6193 65.887 11.391 65.3812 11.391C64.858 11.391 64.4603 11.6193 64.1869 12.0755C63.9533 12.4529 63.8377 12.9129 63.8377 13.4565C63.8377 13.9844 63.9545 14.4371 64.1869 14.8144C64.469 15.2708 64.8618 15.4989 65.3688 15.4989C65.8659 15.4989 66.256 15.2671 66.5369 14.8024C66.778 14.4177 66.8986 13.9613 66.8986 13.4335Z" fill="white"/>
<path d="M78.0209 10.5792L76.188 16.2999H74.9949L74.2356 13.8158C74.043 13.1957 73.8864 12.5791 73.7646 11.9675H73.741C73.6279 12.5962 73.4714 13.2114 73.27 13.8158L72.4635 16.2999H71.2568L69.5332 10.5792H70.8715L71.534 13.2988C71.6943 13.942 71.826 14.5548 71.9316 15.1349H71.9552C72.0522 14.6567 72.2125 14.0475 72.4387 13.3109L73.27 10.5805H74.3313L75.1279 13.2526C75.3205 13.9043 75.4771 14.5317 75.5976 15.1361H75.6337C75.7219 14.5475 75.8549 13.9201 76.0313 13.2526L76.7422 10.5805H78.0209V10.5792Z" fill="white"/>
<path d="M84.7657 16.2996H83.4633V13.0231C83.4633 12.0134 83.0707 11.5085 82.2828 11.5085C81.8963 11.5085 81.5844 11.6469 81.3421 11.9247C81.1022 12.2026 80.9804 12.5303 80.9804 12.9053V16.2983H79.6781V12.2136C79.6781 11.7112 79.6618 11.1663 79.6309 10.5765H80.7753L80.8362 11.4709H80.8723C81.0239 11.193 81.2501 10.9637 81.5471 10.7804C81.9 10.5668 82.2952 10.4588 82.7276 10.4588C83.2744 10.4588 83.7293 10.6311 84.0909 10.977C84.5408 11.4006 84.7657 12.0327 84.7657 12.8725V16.2996Z" fill="white"/>
<path d="M88.3656 16.2977H87.0645V7.95209H88.3656V16.2977Z" fill="white"/>
<path d="M96.0267 13.3922C96.0267 14.272 95.7696 14.9929 95.2554 15.5584C94.7156 16.1396 93.9998 16.4297 93.1088 16.4297C92.2476 16.4297 91.5628 16.1518 91.0533 15.5936C90.5438 15.0365 90.2891 14.3339 90.2891 13.4869C90.2891 12.601 90.5512 11.8741 91.0782 11.3098C91.6051 10.7455 92.3134 10.4627 93.2045 10.4627C94.0657 10.4627 94.7553 10.7406 95.2794 11.2976C95.7773 11.8388 96.0267 12.5379 96.0267 13.3922ZM94.6746 13.4335C94.6746 12.9056 94.5578 12.4529 94.3254 12.0755C94.0532 11.6193 93.6631 11.391 93.1585 11.391C92.634 11.391 92.2364 11.6193 91.9642 12.0755C91.7306 12.4529 91.615 12.9129 91.615 13.4565C91.615 13.9844 91.7319 14.4371 91.9642 14.8144C92.2464 15.2708 92.639 15.4989 93.1461 15.4989C93.6431 15.4989 94.0321 15.2671 94.313 14.8024C94.5553 14.4177 94.6746 13.9613 94.6746 13.4335Z" fill="white"/>
<path d="M102.331 16.2999H101.161L101.064 15.6409H101.029C100.629 16.1664 100.058 16.4297 99.3173 16.4297C98.7648 16.4297 98.3168 16.2562 97.98 15.9115C97.674 15.5984 97.5215 15.2089 97.5215 14.7465C97.5215 14.0476 97.8198 13.5148 98.4204 13.1458C99.019 12.777 99.8613 12.5961 100.946 12.6047V12.4978C100.946 11.7443 100.541 11.368 99.7298 11.368C99.1523 11.368 98.6429 11.51 98.2026 11.7915L97.9378 10.9567C98.4818 10.6278 99.1542 10.4627 99.9476 10.4627C101.479 10.4627 102.246 11.2516 102.246 12.8291V14.9358C102.246 15.5075 102.275 15.9625 102.331 16.2999ZM100.979 14.3339V13.4516C99.5418 13.4274 98.8242 13.8121 98.8242 14.6045C98.8242 14.9031 98.9058 15.1263 99.0737 15.2756C99.2415 15.4249 99.4555 15.4989 99.7097 15.4989C99.9956 15.4989 100.263 15.4104 100.507 15.2343C100.751 15.0572 100.902 14.8327 100.958 14.5573C100.971 14.4953 100.979 14.4201 100.979 14.3339Z" fill="white"/>
<path d="M109.727 16.2977H108.571L108.51 15.3789H108.474C108.104 16.078 107.476 16.4275 106.593 16.4275C105.886 16.4275 105.298 16.1568 104.833 15.6156C104.367 15.0743 104.135 14.3717 104.135 13.5089C104.135 12.583 104.387 11.833 104.894 11.2602C105.385 10.7263 105.986 10.4593 106.702 10.4593C107.489 10.4593 108.039 10.7177 108.352 11.2359H108.377V7.95209H109.681V14.7564C109.681 15.3134 109.696 15.8267 109.727 16.2977ZM108.377 13.8851V12.9312C108.377 12.7662 108.364 12.6327 108.341 12.5308C108.267 12.225 108.11 11.9677 107.87 11.7602C107.628 11.5527 107.336 11.4483 106.998 11.4483C106.513 11.4483 106.133 11.6365 105.853 12.0138C105.576 12.3912 105.436 12.873 105.436 13.4615C105.436 14.0271 105.568 14.4858 105.836 14.8389C106.118 15.2152 106.498 15.4032 106.974 15.4032C107.401 15.4032 107.743 15.2467 108.003 14.9324C108.254 14.6424 108.377 14.2929 108.377 13.8851Z" fill="white"/>
<path d="M120.869 13.3922C120.869 14.272 120.611 14.9929 120.097 15.5584C119.558 16.1396 118.844 16.4297 117.951 16.4297C117.093 16.4297 116.408 16.1518 115.895 15.5936C115.386 15.0365 115.131 14.3339 115.131 13.4869C115.131 12.601 115.394 11.8741 115.92 11.3098C116.447 10.7455 117.156 10.4627 118.049 10.4627C118.908 10.4627 119.6 10.7406 120.122 11.2976C120.619 11.8388 120.869 12.5379 120.869 13.3922ZM119.52 13.4335C119.52 12.9056 119.403 12.4529 119.171 12.0755C118.895 11.6193 118.508 11.391 118.001 11.391C117.479 11.391 117.081 11.6193 116.807 12.0755C116.573 12.4529 116.458 12.9129 116.458 13.4565C116.458 13.9844 116.574 14.4371 116.807 14.8144C117.089 15.2708 117.481 15.4989 117.989 15.4989C118.486 15.4989 118.877 15.2671 119.158 14.8024C119.398 14.4177 119.52 13.9613 119.52 13.4335Z" fill="white"/>
<path d="M127.873 16.2996H126.571V13.0231C126.571 12.0134 126.178 11.5085 125.389 11.5085C125.002 11.5085 124.69 11.6469 124.45 11.9247C124.209 12.2026 124.088 12.5303 124.088 12.9053V16.2983H122.784V12.2136C122.784 11.7112 122.77 11.1663 122.738 10.5765H123.882L123.942 11.4709H123.979C124.131 11.193 124.358 10.9637 124.653 10.7804C125.008 10.5668 125.401 10.4588 125.835 10.4588C126.381 10.4588 126.836 10.6311 127.197 10.977C127.648 11.4006 127.873 12.0327 127.873 12.8725V16.2996Z" fill="white"/>
<path d="M136.642 11.5326H135.208V14.3116C135.208 15.0179 135.463 15.371 135.967 15.371C136.201 15.371 136.394 15.3516 136.547 15.3115L136.581 16.2763C136.323 16.371 135.986 16.4183 135.569 16.4183C135.055 16.4183 134.655 16.2654 134.365 15.9595C134.075 15.6538 133.93 15.1392 133.93 14.4172V11.5326H133.074V10.58H133.93V9.53146L135.207 9.15521V10.5787H136.641V11.5326H136.642Z" fill="white"/>
<path d="M143.534 16.2977H142.23V13.0453C142.23 12.0199 141.836 11.5066 141.05 11.5066C140.446 11.5066 140.034 11.8039 139.808 12.3985C139.769 12.5235 139.747 12.6764 139.747 12.856V16.2964H138.445V7.95209H139.747V11.3998H139.771C140.182 10.7724 140.77 10.4593 141.531 10.4593C142.071 10.4593 142.517 10.6316 142.871 10.9775C143.312 11.4082 143.534 12.0491 143.534 12.896V16.2977Z" fill="white"/>
<path d="M150.642 13.166C150.642 13.3941 150.624 13.5859 150.594 13.7425H146.687C146.706 14.308 146.892 14.7388 147.253 15.0373C147.583 15.3042 148.01 15.4378 148.532 15.4378C149.11 15.4378 149.636 15.348 150.111 15.1671L150.316 16.0506C149.76 16.286 149.106 16.4037 148.349 16.4037C147.442 16.4037 146.728 16.1429 146.211 15.621C145.692 15.0992 145.434 14.399 145.434 13.5204C145.434 12.6576 145.673 11.9391 146.157 11.3663C146.662 10.7547 147.344 10.4489 148.205 10.4489C149.047 10.4489 149.688 10.7547 150.12 11.3663C150.469 11.8518 150.642 12.4525 150.642 13.166ZM149.399 12.8372C149.409 12.4598 149.324 12.1345 149.147 11.8602C148.921 11.5071 148.576 11.3299 148.111 11.3299C147.686 11.3299 147.339 11.5023 147.074 11.8481C146.858 12.1236 146.73 12.4525 146.687 12.8372H149.399Z" fill="white"/>
<path d="M66.6788 38.2314H63.8565L62.3105 33.4876H56.937L55.4645 38.2314H52.7168L58.0406 22.0815H61.3289L66.6788 38.2314ZM61.8446 31.4974L60.4465 27.2803C60.2986 26.8496 60.0215 25.835 59.6126 24.238H59.5629C59.4001 24.9249 59.1379 25.9394 58.7776 27.2803L57.4043 31.4974H61.8446Z" fill="white"/>
<path d="M80.3727 32.2656C80.3727 34.2461 79.8247 35.8115 78.7286 36.9608C77.7468 37.9838 76.5277 38.4947 75.0725 38.4947C73.5017 38.4947 72.3733 37.9437 71.686 36.8418H71.6363V42.9763H68.9869V30.4198C68.9869 29.1747 68.9533 27.8968 68.8887 26.5862H71.2188L71.3667 28.432H71.4164C72.3 27.0413 73.6408 26.3471 75.4403 26.3471C76.847 26.3471 78.0214 26.8896 78.961 27.9756C79.903 29.063 80.3727 30.4926 80.3727 32.2656ZM77.6735 32.3602C77.6735 31.2268 77.4126 30.2924 76.8881 29.557C76.3152 28.79 75.5459 28.4065 74.5816 28.4065C73.928 28.4065 73.3339 28.6201 72.8033 29.0412C72.2714 29.4659 71.9235 30.0205 71.7607 30.7074C71.6787 31.0278 71.6376 31.2899 71.6376 31.4961V33.4379C71.6376 34.2849 71.9035 34.9996 72.4355 35.5834C72.9673 36.1671 73.6583 36.4584 74.5083 36.4584C75.5062 36.4584 76.2829 36.0821 76.8384 35.3321C77.3951 34.581 77.6735 33.5908 77.6735 32.3602Z" fill="white"/>
<path d="M94.0901 32.2656C94.0901 34.2461 93.5422 35.8115 92.4448 36.9608C91.4643 37.9838 90.2452 38.4947 88.79 38.4947C87.2191 38.4947 86.0908 37.9437 85.4048 36.8418H85.3551V42.9763H82.7057V30.4198C82.7057 29.1747 82.6721 27.8968 82.6074 26.5862H84.9375L85.0854 28.432H85.1351C86.0175 27.0413 87.3583 26.3471 89.1591 26.3471C90.5646 26.3471 91.7389 26.8896 92.6809 27.9756C93.6192 29.063 94.0901 30.4926 94.0901 32.2656ZM91.391 32.3602C91.391 31.2268 91.1287 30.2924 90.6044 29.557C90.0315 28.79 89.2647 28.4065 88.2991 28.4065C87.6442 28.4065 87.0514 28.6201 86.5195 29.0412C85.9877 29.4659 85.6409 30.0205 85.4781 30.7074C85.3973 31.0278 85.3551 31.2899 85.3551 31.4961V33.4379C85.3551 34.2849 85.621 34.9996 86.1505 35.5834C86.6823 36.1659 87.3733 36.4584 88.2257 36.4584C89.2237 36.4584 90.0004 36.0821 90.5559 35.3321C91.1126 34.581 91.391 33.5908 91.391 32.3602Z" fill="white"/>
<path d="M109.424 33.7022C109.424 35.076 108.936 36.1936 107.955 37.0565C106.878 37.9994 105.378 38.4702 103.45 38.4702C101.671 38.4702 100.244 38.1353 99.1641 37.4642L99.778 35.3077C100.941 35.9946 102.218 36.3392 103.608 36.3392C104.606 36.3392 105.382 36.1183 105.941 35.6791C106.496 35.2397 106.773 34.6499 106.773 33.9145C106.773 33.2592 106.545 32.7071 106.086 32.2593C105.63 31.8115 104.868 31.3953 103.804 31.0106C100.909 29.956 99.4624 28.4111 99.4624 26.3797C99.4624 25.0521 99.9689 23.9635 100.985 23.1165C101.996 22.2681 103.346 21.8446 105.033 21.8446C106.538 21.8446 107.788 22.1007 108.786 22.6116L108.124 24.7207C107.192 24.2256 106.138 23.978 104.959 23.978C104.027 23.978 103.299 24.2026 102.777 24.6492C102.336 25.0484 102.114 25.535 102.114 26.1114C102.114 26.7498 102.366 27.2777 102.874 27.6927C103.315 28.0762 104.116 28.4912 105.28 28.939C106.702 29.4985 107.747 30.1526 108.42 30.9026C109.09 31.6501 109.424 32.5858 109.424 33.7022Z" fill="white"/>
<path d="M118.184 28.5279H115.264V34.1818C115.264 35.6198 115.778 36.3383 116.81 36.3383C117.283 36.3383 117.675 36.2982 117.986 36.2181L118.06 38.1828C117.538 38.3734 116.85 38.4692 116 38.4692C114.953 38.4692 114.136 38.1573 113.545 37.5348C112.958 36.9111 112.661 35.865 112.661 34.3954V28.5254H110.922V26.5838H112.661V24.4516L115.264 23.6846V26.5838H118.184V28.5279Z" fill="white"/>
<path d="M131.355 32.314C131.355 34.104 130.832 35.5735 129.785 36.7228C128.688 37.906 127.231 38.4958 125.415 38.4958C123.666 38.4958 122.273 37.929 121.234 36.7956C120.195 35.6622 119.676 34.2313 119.676 32.5069C119.676 30.7024 120.21 29.2243 121.283 28.075C122.352 26.9246 123.796 26.3494 125.612 26.3494C127.362 26.3494 128.77 26.9161 129.832 28.0508C130.849 29.1515 131.355 30.5725 131.355 32.314ZM128.607 32.3977C128.607 31.3237 128.372 30.4026 127.896 29.6344C127.341 28.7048 126.546 28.2413 125.517 28.2413C124.452 28.2413 123.644 28.7061 123.088 29.6344C122.612 30.4039 122.377 31.3395 122.377 32.4463C122.377 33.5202 122.612 34.4412 123.088 35.2082C123.661 36.1378 124.461 36.6014 125.494 36.6014C126.505 36.6014 127.299 36.1281 127.872 35.1839C128.36 34.4012 128.607 33.4704 128.607 32.3977Z" fill="white"/>
<path d="M139.973 28.8616C139.711 28.8143 139.432 28.79 139.139 28.79C138.206 28.79 137.486 29.1334 136.978 29.8215C136.537 30.4282 136.316 31.1952 136.316 32.1211V38.2314H133.668L133.693 30.2535C133.693 28.9114 133.659 27.6893 133.594 26.5874H135.901L135.998 28.8154H136.072C136.351 28.0497 136.792 27.4332 137.396 26.9709C137.986 26.5546 138.624 26.3471 139.311 26.3471C139.556 26.3471 139.777 26.3641 139.973 26.3944V28.8616Z" fill="white"/>
<path d="M151.828 31.8581C151.828 32.3216 151.797 32.7124 151.731 33.0316H143.782C143.814 34.182 144.198 35.0618 144.936 35.6686C145.606 36.211 146.472 36.4829 147.536 36.4829C148.712 36.4829 149.787 36.2996 150.752 35.9319L151.167 37.728C150.039 38.2085 148.706 38.4476 147.17 38.4476C145.32 38.4476 143.869 37.916 142.812 36.8543C141.758 35.7924 141.23 34.3665 141.23 32.5777C141.23 30.8217 141.721 29.3593 142.704 28.1932C143.733 26.9481 145.123 26.3255 146.873 26.3255C148.592 26.3255 149.893 26.9481 150.777 28.1932C151.476 29.1822 151.828 30.4055 151.828 31.8581ZM149.301 31.187C149.319 30.42 149.147 29.7574 148.787 29.198C148.328 28.4783 147.624 28.1191 146.676 28.1191C145.809 28.1191 145.105 28.4699 144.567 29.1737C144.126 29.7332 143.864 30.4042 143.782 31.1858H149.301V31.187Z" fill="white"/>
</svg>
