<svg width="32" height="32" viewBox="0 0 32 32" fill="none" xmlns="http://www.w3.org/2000/svg">
<g id="groups">
<mask id="mask0_514_4159" style="mask-type:alpha" maskUnits="userSpaceOnUse" x="0" y="0" width="32" height="32">
<rect id="Bounding box" width="32" height="32" fill="#D9D9D9"/>
</mask>
<g mask="url(#mask0_514_4159)">
<path id="groups_2" d="M0.666992 23.7179V22.0923C0.666992 21.2051 1.13024 20.4764 2.05673 19.9064C2.98321 19.3363 4.19089 19.0512 5.67976 19.0512C5.92591 19.0512 6.17378 19.0589 6.42336 19.0743C6.67294 19.0897 6.92421 19.1196 7.17719 19.1641C6.91737 19.5794 6.72464 20.0106 6.59899 20.4576C6.47337 20.9046 6.41056 21.3632 6.41056 21.8333V23.7179H0.666992ZM8.66696 23.7179V21.8846C8.66696 21.2603 8.84218 20.6897 9.19262 20.1728C9.54305 19.6559 10.0482 19.2051 10.708 18.8205C11.3678 18.4359 12.1473 18.1474 13.0464 17.9551C13.9456 17.7628 14.9285 17.6666 15.9951 17.6666C17.0823 17.6666 18.0755 17.7628 18.9746 17.9551C19.8737 18.1474 20.6532 18.4359 21.3131 18.8205C21.9729 19.2051 22.4746 19.6559 22.8182 20.1728C23.1618 20.6897 23.3336 21.2603 23.3336 21.8846V23.7179H8.66696ZM25.59 23.7179V21.8371C25.59 21.3356 25.5306 20.863 25.4118 20.4193C25.293 19.9756 25.1148 19.5572 24.8772 19.1641C25.1387 19.1196 25.3887 19.0897 25.6272 19.0743C25.8656 19.0589 26.1011 19.0512 26.3336 19.0512C27.8224 19.0512 29.028 19.3328 29.9502 19.8961C30.8724 20.4593 31.3336 21.1914 31.3336 22.0923V23.7179H25.59ZM10.7695 21.7179H21.2516V21.5769C21.1148 21.0384 20.5473 20.5854 19.549 20.2179C18.5507 19.8504 17.3678 19.6666 16.0003 19.6666C14.6327 19.6666 13.4498 19.8504 12.4515 20.2179C11.4532 20.5854 10.8926 21.0384 10.7695 21.5769V21.7179ZM5.67636 17.7564C5.04787 17.7564 4.51098 17.5329 4.06569 17.086C3.6204 16.6391 3.39776 16.1019 3.39776 15.4744C3.39776 14.8385 3.6212 14.3013 4.06809 13.8628C4.51498 13.4244 5.0522 13.2051 5.67976 13.2051C6.31565 13.2051 6.85496 13.4244 7.29769 13.8628C7.74043 14.3013 7.96179 14.8397 7.96179 15.4782C7.96179 16.0978 7.74277 16.6324 7.30473 17.082C6.86668 17.5316 6.32389 17.7564 5.67636 17.7564ZM26.3336 17.7564C25.7114 17.7564 25.1755 17.5316 24.7259 17.082C24.2763 16.6324 24.0516 16.0978 24.0516 15.4782C24.0516 14.8397 24.2763 14.3013 24.7259 13.8628C25.1755 13.4244 25.7122 13.2051 26.3361 13.2051C26.9788 13.2051 27.5194 13.4244 27.9579 13.8628C28.3964 14.3013 28.6156 14.8385 28.6156 15.4744C28.6156 16.1019 28.3969 16.6391 27.9595 17.086C27.5221 17.5329 26.9801 17.7564 26.3336 17.7564ZM16.0048 16.6666C15.0445 16.6666 14.2268 16.3301 13.5516 15.657C12.8764 14.984 12.5388 14.1667 12.5388 13.2051C12.5388 12.2244 12.8753 11.4023 13.5484 10.7388C14.2214 10.0754 15.0387 9.74365 16.0003 9.74365C16.981 9.74365 17.8031 10.0749 18.4666 10.7375C19.13 11.4001 19.4618 12.2211 19.4618 13.2006C19.4618 14.1609 19.1305 14.9786 18.4679 15.6538C17.8053 16.329 16.9843 16.6666 16.0048 16.6666ZM16.0067 14.6667C16.4144 14.6667 16.7588 14.524 17.04 14.2385C17.3212 13.953 17.4618 13.6064 17.4618 13.1987C17.4618 12.791 17.3217 12.4466 17.0416 12.1654C16.7615 11.8842 16.4144 11.7436 16.0003 11.7436C15.5968 11.7436 15.2524 11.8837 14.9669 12.1638C14.6815 12.4439 14.5387 12.791 14.5387 13.2051C14.5387 13.6085 14.6815 13.953 14.9669 14.2385C15.2524 14.524 15.599 14.6667 16.0067 14.6667Z" fill="white"/>
</g>
</g>
</svg>
