<?xml version="1.0" encoding="utf-8"?>
<!-- Generator: Adobe Illustrator 26.0.1, SVG Export Plug-In . SVG Version: 6.00 Build 0)  -->
<svg version="1.1" id="Layer_1" xmlns="http://www.w3.org/2000/svg" xmlns:xlink="http://www.w3.org/1999/xlink" x="0px" y="0px"
	 viewBox="0 0 139.1 37" style="enable-background:new 0 0 139.1 37;" xml:space="preserve">
<style type="text/css">
	.st0{fill:#FFFFFF;}
	.st1{fill:#3BD55A;}
</style>
<g transform="translate(-659.445 -419.125)">
	<path class="st0" d="M686.2,419.1l-3.8,5.1h-17.9V451h26.7v-13.5l5-6.6v24.9h-36.8v-36.6L686.2,419.1z"/>
	<path class="st1" d="M673.3,433.1l4.5,4.8l15-18.7l3.6,3.1l-18.5,23.2l-8.5-8.9L673.3,433.1z"/>
	<path class="st0" d="M720.5,427.6v0.6c0,1.8-0.7,3.6-2,4.8c-1.4,1.3-3.4,2-5.3,1.9c-2.1,0.1-4.2-0.8-5.7-2.3
		c-1.5-1.5-2.3-3.5-2.3-5.6c-0.1-4.3,3.3-7.8,7.6-7.9c0.1,0,0.2,0,0.4,0c1.3,0,2.7,0.3,3.8,1c1.1,0.6,2.1,1.6,2.7,2.7l-1,0.6
		c-0.5-1-1.3-1.8-2.3-2.3c-1-0.6-2.1-0.9-3.3-0.9c-1.8-0.1-3.6,0.6-4.9,1.9c-1.3,1.3-1.9,3-1.9,4.8c-0.1,3.7,2.8,6.7,6.5,6.8
		c0.1,0,0.3,0,0.4,0c1.6,0.1,3.1-0.4,4.3-1.5c1.1-0.9,1.7-2.3,1.9-3.7h-6.5v-1.1H720.5z M724.2,433.6h7.6v1.1H723v-15.2h8.7v1.1
		h-7.5v5.9h7v1.1h-7L724.2,433.6z M743.7,419.5v1.1h-4.8v14.2h-1.2v-14.2h-4.8v-1.1H743.7z M708.9,452.4v-11.9h-3.5v15.2h8.9v-3.4
		H708.9z M715.5,440.5v15.2h3.5v-15.2H715.5z M728.5,456.1c2.6,0.1,5.1-1.3,6.5-3.5l-3-1.7c-0.7,1.2-2.1,1.9-3.5,1.9
		c-2.3,0.1-4.3-1.6-4.5-4c0-0.2,0-0.4,0-0.6c-0.2-2.3,1.6-4.3,3.9-4.5c0.2,0,0.4,0,0.6,0c1.4-0.1,2.8,0.7,3.5,1.9l3-1.7
		c-1.4-2.2-3.9-3.6-6.5-3.5c-4.3-0.1-7.8,3.3-7.9,7.5c0,0.1,0,0.3,0,0.4c-0.1,4.3,3.3,7.8,7.5,7.9
		C728.3,456.1,728.4,456.1,728.5,456.1z M739.8,452.4v-2.7h5.4v-3.3h-5.4v-2.5h6v-3.4h-9.5v15.2h9.6v-3.4H739.8z M756.1,440.5v8.3
		l-5.9-8.3h-2.6v15.2h3.5v-8.3l5.9,8.3h2.6v-15.3H756.1z M766.9,456.1c3.3,0,5.7-1.7,5.7-4.7c0-3.2-2.6-4-4.9-4.7
		c-2.4-0.7-2.7-1.2-2.7-1.9c0-0.6,0.5-1.2,1.6-1.2c1.2-0.1,2.2,0.7,2.6,1.8l2.9-1.7c-1-2.2-3.2-3.5-5.6-3.4c-2.6,0-5.1,1.7-5.1,4.6
		c0,2.9,2.2,4,4.5,4.6c2.3,0.6,3.2,1,3.2,1.9c0,0.6-0.4,1.2-2.1,1.2c-1.4,0.1-2.7-0.8-3.2-2.1l-3,1.7
		C761.7,454.6,763.7,456.1,766.9,456.1z M777.4,452.4v-2.7h5.4v-3.3h-5.4v-2.5h6v-3.4h-9.5v15.2h9.6v-3.4H777.4z M791.2,440.5h-6.1
		v15.2h6.1c4.1,0,7.4-3.3,7.4-7.4c0-0.1,0-0.2,0-0.3c0.1-4.1-3.1-7.5-7.1-7.6C791.4,440.5,791.3,440.5,791.2,440.5z M791.2,452.4
		h-2.6v-8.5h2.6c2.2-0.1,4,1.6,4.1,3.8c0,0.2,0,0.3,0,0.5c0.2,2.2-1.4,4.1-3.6,4.3C791.5,452.4,791.3,452.5,791.2,452.4z"/>
</g>
</svg>
