<svg width="80" height="45" viewBox="0 0 80 45" fill="none" xmlns="http://www.w3.org/2000/svg">
<path d="M0 2.1198C0.420531 1.43745 1.03071 1.20931 1.81818 1.2176C4.67119 1.24457 7.5242 1.22797 10.4143 1.22797C10.5133 1.0102 10.5524 0.728135 10.7112 0.616138C11.0863 0.350664 11.5192 -0.00399381 11.9274 0.000154233C12.2964 0.00222825 12.8406 0.352738 12.989 0.688729C13.2096 1.19064 13.4838 1.2342 13.9229 1.23212C16.545 1.21968 19.1692 1.2259 21.7913 1.22797C22.0469 1.22797 22.3087 1.21968 22.5602 1.26738C23.2549 1.39597 23.7662 1.97255 23.7146 2.60927C23.661 3.30199 23.2797 3.76035 22.585 3.89516C22.3355 3.94494 22.0737 3.94079 21.8181 3.94079C19.2475 3.94287 16.6749 3.94079 14.1043 3.94079H13.2282V6.53124C13.9558 6.53124 14.6629 6.53954 15.3679 6.52917C16.3677 6.51258 17.2356 6.76975 17.9014 7.58899C18.0333 7.75284 18.3323 7.85654 18.5549 7.85654C22.1026 7.87313 25.6524 7.86276 29.2001 7.87728C29.5897 7.87728 29.7732 7.75076 29.9484 7.39818C31.9109 3.41606 35.1432 1.25701 39.5299 1.26116C43.8836 1.26738 47.0933 3.42643 49.0475 7.37329C49.2413 7.76321 49.4474 7.87935 49.8576 7.87728C53.3538 7.86276 56.852 7.87728 60.3482 7.85447C60.6141 7.85447 60.9646 7.73625 61.1316 7.54544C61.7603 6.8299 62.5354 6.53124 63.4548 6.53124C64.1969 6.53124 64.939 6.53124 65.7533 6.53124V3.94079C65.475 3.94079 65.2029 3.94079 64.9308 3.94079C62.3849 3.94079 59.8391 3.94079 57.2932 3.94079C57.087 3.94079 56.8809 3.95116 56.6768 3.93457C55.8419 3.86198 55.2689 3.28955 55.2833 2.55949C55.2977 1.85433 55.8481 1.31301 56.6459 1.2342C56.85 1.21346 57.0561 1.2259 57.2623 1.2259C59.8844 1.2259 62.5086 1.21968 65.1307 1.23212C65.5471 1.23212 65.7739 1.15538 66.0007 0.715691C66.1841 0.35896 66.7325 0.00845031 67.1283 0.000154233C67.522 -0.00814184 68.1012 0.319553 68.2826 0.665914C68.5403 1.15953 68.8207 1.23627 69.2907 1.23212C71.8881 1.2176 74.4855 1.22383 77.0829 1.2259C77.289 1.2259 77.4952 1.21553 77.6992 1.23627C78.5011 1.32545 79.0103 1.86262 79.0021 2.59683C78.9959 3.33103 78.4826 3.84953 77.6704 3.93249C77.4663 3.95324 77.2602 3.94287 77.054 3.94287C74.5082 3.94287 71.9623 3.94287 69.4164 3.94287C69.1402 3.94287 68.864 3.94287 68.5424 3.94287V6.53332C69.3237 6.53332 70.0637 6.52502 70.8038 6.53332C72.7065 6.56235 73.7475 7.62425 73.7516 9.53027C73.7537 11.1335 73.7599 12.7388 73.7516 14.342C73.7413 16.0468 72.6446 17.1585 70.9522 17.1647C68.4331 17.173 65.912 17.2021 63.3929 17.1419C62.789 17.1274 62.1396 16.8827 61.6119 16.5695C61.2367 16.3455 60.9811 16.2605 60.5874 16.4285C59.8349 16.752 59.064 17.0382 58.2126 17.3721C58.6847 18.9028 59.1485 20.4168 59.6185 21.9308C61.6181 28.3561 63.5682 34.796 65.6502 41.1943C66.3181 43.2455 64.8627 45.1889 62.8755 44.9815C62.2386 44.9151 61.5913 44.9732 60.9481 44.9711C59.3794 44.9628 58.5898 44.4132 58.0497 42.9241C56.2398 37.9319 54.4381 32.9377 52.6344 27.9434C51.75 25.4981 50.8657 23.0529 49.9648 20.5578C48.6022 21.0888 47.2912 21.5948 45.9842 22.1092C45.8729 22.1528 45.7368 22.2253 45.6853 22.3228C45.2297 23.2084 44.7906 24.1044 44.2959 25.0979C44.9617 25.0979 45.4957 25.0937 46.0296 25.0979C48.2703 25.1165 49.9813 26.7011 50.0184 28.9576C50.0782 32.5519 50.0741 36.1503 50.0225 39.7446C49.9896 41.9991 48.3445 43.6396 46.0749 43.6645C41.7047 43.7143 37.3324 43.7122 32.9622 43.6645C30.6328 43.6396 29.0084 41.9617 28.9836 39.6098C28.9465 36.1171 28.9465 32.6245 28.9836 29.1318C29.0084 26.7011 30.6884 25.1041 33.1189 25.0937C33.6054 25.0937 34.0939 25.0937 34.7165 25.0937C34.232 24.1189 33.7991 23.225 33.3394 22.3456C33.2673 22.2088 33.0776 22.1051 32.921 22.0428C31.6573 21.5471 30.3875 21.0639 29.0558 20.5537C28.3157 22.5904 27.5839 24.596 26.8583 26.6036C24.902 32.0106 22.9498 37.4175 20.9956 42.8224C20.4081 44.4443 19.666 44.9587 17.9344 44.9649C17.3428 44.9649 16.747 44.913 16.1616 44.9753C14.1228 45.191 12.6943 43.202 13.3642 41.2047C14.7907 36.953 16.0606 32.6494 17.3922 28.3686C18.526 24.7266 19.6557 21.0826 20.808 17.3721C19.8886 17.0113 18.9899 16.6442 18.0766 16.3206C17.9385 16.2708 17.7303 16.4222 17.553 16.4824C16.8893 16.7085 16.2317 17.1108 15.5617 17.1316C13.0694 17.2104 10.5751 17.1689 8.08079 17.1606C6.37805 17.1544 5.27313 16.0531 5.26282 14.3586C5.25457 12.7035 5.25457 11.0464 5.26282 9.39131C5.269 7.70099 6.28322 6.61628 7.9571 6.53954C8.77343 6.50221 9.59387 6.53332 10.4638 6.53332V3.93872C9.88453 3.93872 9.32589 3.93872 8.7693 3.93872C6.45432 3.93872 4.1414 3.92005 1.82642 3.94909C1.0369 3.95946 0.428776 3.72302 0.00618428 3.04481V2.11358L0 2.1198ZM18.4662 10.532C18.4662 11.3637 18.5075 12.0875 18.4539 12.8052C18.4106 13.388 18.6085 13.6679 19.1589 13.8795C24.1187 15.7751 29.064 17.704 34.0197 19.61C34.3454 19.7344 34.7144 19.8029 35.0628 19.805C38.0189 19.8195 40.975 19.8174 43.929 19.8091C44.2052 19.8091 44.5 19.7884 44.7556 19.6909C49.8556 17.7309 54.9514 15.7606 60.0452 13.7799C60.2328 13.7073 60.5008 13.5124 60.509 13.3631C60.5523 12.4463 60.5296 11.5255 60.5296 10.5341C60.1441 10.5341 59.8659 10.5341 59.5896 10.5341C55.9656 10.5341 52.3416 10.5362 48.7177 10.5341C47.6148 10.5341 47.32 10.3205 46.951 9.29798C45.7492 5.9837 42.9251 3.95324 39.5113 3.94909C36.0997 3.94494 33.2425 5.98992 32.0593 9.28139C31.6903 10.3101 31.3914 10.532 30.303 10.5341C26.679 10.5382 23.055 10.5341 19.431 10.5341C19.1527 10.5341 18.8744 10.5341 18.4662 10.5341V10.532ZM39.4248 40.9683C41.5583 40.9683 43.694 40.9745 45.8275 40.9662C46.9345 40.962 47.3798 40.5182 47.3819 39.4231C47.388 36.0591 47.388 32.6971 47.3819 29.333C47.3819 28.2587 46.9036 27.7588 45.8275 27.7568C41.6099 27.7443 37.3943 27.7443 33.1766 27.7568C32.1005 27.7588 31.6243 28.2587 31.6243 29.333C31.6181 32.6971 31.6181 36.0591 31.6243 39.4231C31.6243 40.5161 32.0717 40.962 33.1766 40.9662C35.2586 40.9745 37.3427 40.9683 39.4248 40.9683ZM23.29 18.3345C20.7854 26.3734 18.3158 34.3024 15.8132 42.3309C16.5038 42.3309 17.0933 42.2853 17.6705 42.3433C18.2189 42.3973 18.4085 42.1567 18.5796 41.6755C20.7091 35.7376 22.8612 29.81 25.0051 23.8783C25.5184 22.4597 26.0255 21.0411 26.547 19.5872C25.4442 19.162 24.4258 18.77 23.29 18.3345ZM63.1806 42.306C60.676 34.2671 58.2043 26.3402 55.7141 18.3449C54.5845 18.7783 53.5435 19.1807 52.4488 19.6017C55.1947 27.1988 57.924 34.7483 60.6554 42.306H63.1827H63.1806ZM15.7307 9.28554H7.96535V14.4602H15.7307V9.28554ZM71.0635 9.28969H63.3084V14.454H71.0635V9.28969ZM36.4027 22.4804C36.8067 23.3038 37.1325 24.0318 37.5241 24.7204C37.6313 24.9091 37.9426 25.075 38.1673 25.0854C39.0619 25.1269 39.9607 25.1165 40.8574 25.0916C41.0512 25.0854 41.3357 24.9879 41.4161 24.8428C41.8325 24.0899 42.1953 23.3059 42.6014 22.4825H36.4027V22.4804Z" fill="black"/>
<path d="M39.9291 38.9725C37.7935 38.9539 35.9897 37.1329 36 35.0029C36.0104 32.8127 37.8162 30.9959 39.9827 31C42.1555 31.0042 43.9675 32.8376 43.9489 35.0132C43.9303 37.1972 42.1101 38.9891 39.9291 38.9725ZM41.2505 34.9718C41.2443 34.2479 40.7063 33.6983 39.9992 33.6859C39.2633 33.6755 38.6984 34.25 38.7046 35.0049C38.7108 35.735 39.2324 36.2659 39.9559 36.2763C40.7125 36.2867 41.2587 35.7371 41.2505 34.9697V34.9718Z" fill="black"/>
</svg>