<svg width="120" height="92" viewBox="0 0 86 67" fill="none" xmlns="http://www.w3.org/2000/svg">
<path d="M28.6811 22.2387H29.2808C29.4729 22.2387 29.6313 22.2063 29.7559 22.1414C29.8805 22.0739 29.9726 21.9804 30.0323 21.861C30.0946 21.739 30.1258 21.5975 30.1258 21.4366C30.1258 21.2912 30.0972 21.1627 30.0401 21.0511C29.9856 20.9369 29.9012 20.8486 29.787 20.7863C29.6728 20.7214 29.5287 20.6889 29.3548 20.6889C29.2172 20.6889 29.09 20.7162 28.9732 20.7707C28.8564 20.8252 28.7629 20.9018 28.6928 21.0005C28.6227 21.0991 28.5877 21.2185 28.5877 21.3587H27.4623C27.4623 21.0472 27.5454 20.7759 27.7115 20.5449C27.8803 20.3138 28.1061 20.1334 28.3891 20.0036C28.6721 19.8738 28.9836 19.8089 29.3236 19.8089C29.7078 19.8089 30.044 19.8712 30.3322 19.9958C30.6203 20.1178 30.8449 20.2982 31.0058 20.5371C31.1668 20.7759 31.2473 21.0718 31.2473 21.4249C31.2473 21.604 31.2057 21.778 31.1227 21.9467C31.0396 22.1128 30.9202 22.2634 30.7644 22.3984C30.6112 22.5308 30.4243 22.6372 30.2037 22.7177C29.983 22.7956 29.7351 22.8345 29.4599 22.8345H28.6811V22.2387ZM28.6811 23.0915V22.5113H29.4599C29.7689 22.5113 30.0401 22.5464 30.2738 22.6165C30.5074 22.6866 30.7034 22.7878 30.8618 22.9202C31.0201 23.05 31.1395 23.2044 31.22 23.3836C31.3005 23.5601 31.3407 23.7561 31.3407 23.9716C31.3407 24.2364 31.2901 24.4726 31.1889 24.6803C31.0876 24.8853 30.9448 25.0593 30.7605 25.2021C30.5788 25.3448 30.3659 25.4539 30.1219 25.5292C29.8779 25.6018 29.6118 25.6382 29.3236 25.6382C29.0848 25.6382 28.8499 25.6057 28.6188 25.5408C28.3904 25.4733 28.1827 25.3734 27.9958 25.241C27.8115 25.106 27.6635 24.9373 27.5519 24.7348C27.4429 24.5297 27.3883 24.287 27.3883 24.0066H28.5137C28.5137 24.152 28.55 24.2818 28.6227 24.396C28.6954 24.5102 28.7954 24.5998 28.9226 24.6647C29.0524 24.7296 29.1964 24.762 29.3548 24.762C29.5339 24.762 29.6871 24.7296 29.8143 24.6647C29.9441 24.5972 30.0427 24.5037 30.1102 24.3843C30.1803 24.2623 30.2154 24.1208 30.2154 23.9599C30.2154 23.7522 30.1777 23.5861 30.1024 23.4615C30.0272 23.3342 29.9194 23.2408 29.7792 23.1811C29.6391 23.1214 29.4729 23.0915 29.2808 23.0915H28.6811ZM35.6886 22.2271V23.2083C35.6886 23.6341 35.6431 24.0014 35.5523 24.3103C35.4614 24.6167 35.3303 24.8685 35.159 25.0658C34.9903 25.2605 34.7891 25.4045 34.5554 25.498C34.3218 25.5915 34.0622 25.6382 33.7766 25.6382C33.5482 25.6382 33.3353 25.6096 33.138 25.5525C32.9407 25.4928 32.7629 25.4006 32.6045 25.276C32.4488 25.1514 32.3138 24.9944 32.1996 24.8049C32.0879 24.6128 32.0023 24.3843 31.9426 24.1195C31.8829 23.8547 31.853 23.551 31.853 23.2083V22.2271C31.853 21.8013 31.8984 21.4366 31.9893 21.1329C32.0828 20.8265 32.2139 20.576 32.3826 20.3813C32.5539 20.1866 32.7564 20.0438 32.9901 19.953C33.2237 19.8595 33.4833 19.8128 33.7688 19.8128C33.9973 19.8128 34.2089 19.8427 34.4036 19.9024C34.6009 19.9595 34.7787 20.049 34.937 20.171C35.0954 20.2931 35.2304 20.4501 35.342 20.6422C35.4536 20.8317 35.5393 21.0589 35.599 21.3237C35.6587 21.5859 35.6886 21.887 35.6886 22.2271ZM34.5632 23.3563V22.0752C34.5632 21.8701 34.5515 21.691 34.5282 21.5378C34.5074 21.3847 34.475 21.2549 34.4308 21.1484C34.3867 21.0394 34.3322 20.9511 34.2673 20.8836C34.2024 20.8161 34.1284 20.7668 34.0453 20.7357C33.9622 20.7045 33.8701 20.6889 33.7688 20.6889C33.6416 20.6889 33.5287 20.7136 33.4301 20.7629C33.334 20.8123 33.2522 20.8914 33.1848 21.0005C33.1173 21.1069 33.0653 21.2497 33.029 21.4288C32.9952 21.6053 32.9784 21.8208 32.9784 22.0752V23.3563C32.9784 23.5614 32.9888 23.7418 33.0095 23.8976C33.0329 24.0533 33.0666 24.187 33.1108 24.2987C33.1575 24.4077 33.212 24.4972 33.2743 24.5673C33.3392 24.6348 33.4132 24.6842 33.4963 24.7153C33.5819 24.7465 33.6754 24.762 33.7766 24.762C33.9012 24.762 34.0116 24.7374 34.1076 24.6881C34.2063 24.6361 34.2893 24.5557 34.3568 24.4466C34.4269 24.335 34.4788 24.1896 34.5126 24.0105C34.5463 23.8314 34.5632 23.6133 34.5632 23.3563ZM40.0286 22.2271V23.2083C40.0286 23.6341 39.9832 24.0014 39.8924 24.3103C39.8015 24.6167 39.6704 24.8685 39.4991 25.0658C39.3303 25.2605 39.1291 25.4045 38.8955 25.498C38.6619 25.5915 38.4023 25.6382 38.1167 25.6382C37.8883 25.6382 37.6754 25.6096 37.4781 25.5525C37.2808 25.4928 37.103 25.4006 36.9446 25.276C36.7889 25.1514 36.6539 24.9944 36.5396 24.8049C36.428 24.6128 36.3423 24.3843 36.2826 24.1195C36.2229 23.8547 36.1931 23.551 36.1931 23.2083V22.2271C36.1931 21.8013 36.2385 21.4366 36.3294 21.1329C36.4228 20.8265 36.5539 20.576 36.7227 20.3813C36.894 20.1866 37.0965 20.0438 37.3301 19.953C37.5638 19.8595 37.8234 19.8128 38.1089 19.8128C38.3374 19.8128 38.5489 19.8427 38.7436 19.9024C38.9409 19.9595 39.1188 20.049 39.2771 20.171C39.4355 20.2931 39.5705 20.4501 39.6821 20.6422C39.7937 20.8317 39.8794 21.0589 39.9391 21.3237C39.9988 21.5859 40.0286 21.887 40.0286 22.2271ZM38.9033 23.3563V22.0752C38.9033 21.8701 38.8916 21.691 38.8682 21.5378C38.8475 21.3847 38.815 21.2549 38.7709 21.1484C38.7268 21.0394 38.6722 20.9511 38.6073 20.8836C38.5424 20.8161 38.4685 20.7668 38.3854 20.7357C38.3023 20.7045 38.2102 20.6889 38.1089 20.6889C37.9817 20.6889 37.8688 20.7136 37.7701 20.7629C37.6741 20.8123 37.5923 20.8914 37.5248 21.0005C37.4573 21.1069 37.4054 21.2497 37.3691 21.4288C37.3353 21.6053 37.3184 21.8208 37.3184 22.0752V23.3563C37.3184 23.5614 37.3288 23.7418 37.3496 23.8976C37.373 24.0533 37.4067 24.187 37.4508 24.2987C37.4976 24.4077 37.5521 24.4972 37.6144 24.5673C37.6793 24.6348 37.7533 24.6842 37.8363 24.7153C37.922 24.7465 38.0155 24.762 38.1167 24.762C38.2413 24.762 38.3516 24.7374 38.4477 24.6881C38.5463 24.6361 38.6294 24.5557 38.6969 24.4466C38.767 24.335 38.8189 24.1896 38.8527 24.0105C38.8864 23.8314 38.9033 23.6133 38.9033 23.3563ZM41.6624 24.6141L41.6585 25.3656C41.6585 25.6538 41.5858 25.9445 41.4404 26.2379C41.2977 26.5312 41.1159 26.7713 40.8953 26.9582L40.3112 26.6584C40.3761 26.539 40.4397 26.4196 40.502 26.3002C40.5643 26.1807 40.6162 26.0496 40.6578 25.9069C40.6993 25.7641 40.7201 25.6018 40.7201 25.4201V24.6141H41.6624ZM46.092 22.2271V23.2083C46.092 23.6341 46.0466 24.0014 45.9557 24.3103C45.8649 24.6167 45.7338 24.8685 45.5624 25.0658C45.3937 25.2605 45.1925 25.4045 44.9589 25.498C44.7252 25.5915 44.4656 25.6382 44.1801 25.6382C43.9516 25.6382 43.7388 25.6096 43.5415 25.5525C43.3442 25.4928 43.1664 25.4006 43.008 25.276C42.8522 25.1514 42.7173 24.9944 42.603 24.8049C42.4914 24.6128 42.4057 24.3843 42.346 24.1195C42.2863 23.8547 42.2565 23.551 42.2565 23.2083V22.2271C42.2565 21.8013 42.3019 21.4366 42.3928 21.1329C42.4862 20.8265 42.6173 20.576 42.786 20.3813C42.9574 20.1866 43.1599 20.0438 43.3935 19.953C43.6271 19.8595 43.8867 19.8128 44.1723 19.8128C44.4007 19.8128 44.6123 19.8427 44.807 19.9024C45.0043 19.9595 45.1821 20.049 45.3405 20.171C45.4988 20.2931 45.6338 20.4501 45.7455 20.6422C45.8571 20.8317 45.9428 21.0589 46.0025 21.3237C46.0622 21.5859 46.092 21.887 46.092 22.2271ZM44.9667 23.3563V22.0752C44.9667 21.8701 44.955 21.691 44.9316 21.5378C44.9109 21.3847 44.8784 21.2549 44.8343 21.1484C44.7901 21.0394 44.7356 20.9511 44.6707 20.8836C44.6058 20.8161 44.5318 20.7668 44.4488 20.7357C44.3657 20.7045 44.2735 20.6889 44.1723 20.6889C44.0451 20.6889 43.9322 20.7136 43.8335 20.7629C43.7375 20.8123 43.6557 20.8914 43.5882 21.0005C43.5207 21.1069 43.4688 21.2497 43.4324 21.4288C43.3987 21.6053 43.3818 21.8208 43.3818 22.0752V23.3563C43.3818 23.5614 43.3922 23.7418 43.413 23.8976C43.4363 24.0533 43.4701 24.187 43.5142 24.2987C43.5609 24.4077 43.6155 24.4972 43.6778 24.5673C43.7427 24.6348 43.8166 24.6842 43.8997 24.7153C43.9854 24.7465 44.0788 24.762 44.1801 24.762C44.3047 24.762 44.415 24.7374 44.5111 24.6881C44.6097 24.6361 44.6928 24.5557 44.7603 24.4466C44.8304 24.335 44.8823 24.1896 44.916 24.0105C44.9498 23.8314 44.9667 23.6133 44.9667 23.3563ZM50.4321 22.2271V23.2083C50.4321 23.6341 50.3867 24.0014 50.2958 24.3103C50.2049 24.6167 50.0739 24.8685 49.9025 25.0658C49.7338 25.2605 49.5326 25.4045 49.2989 25.498C49.0653 25.5915 48.8057 25.6382 48.5202 25.6382C48.2917 25.6382 48.0788 25.6096 47.8815 25.5525C47.6842 25.4928 47.5064 25.4006 47.3481 25.276C47.1923 25.1514 47.0573 24.9944 46.9431 24.8049C46.8315 24.6128 46.7458 24.3843 46.6861 24.1195C46.6264 23.8547 46.5965 23.551 46.5965 23.2083V22.2271C46.5965 21.8013 46.642 21.4366 46.7328 21.1329C46.8263 20.8265 46.9574 20.576 47.1261 20.3813C47.2974 20.1866 47.4999 20.0438 47.7336 19.953C47.9672 19.8595 48.2268 19.8128 48.5124 19.8128C48.7408 19.8128 48.9524 19.8427 49.1471 19.9024C49.3444 19.9595 49.5222 20.049 49.6806 20.171C49.8389 20.2931 49.9739 20.4501 50.0855 20.6422C50.1972 20.8317 50.2828 21.0589 50.3425 21.3237C50.4022 21.5859 50.4321 21.887 50.4321 22.2271ZM49.3067 23.3563V22.0752C49.3067 21.8701 49.2951 21.691 49.2717 21.5378C49.2509 21.3847 49.2185 21.2549 49.1743 21.1484C49.1302 21.0394 49.0757 20.9511 49.0108 20.8836C48.9459 20.8161 48.8719 20.7668 48.7888 20.7357C48.7058 20.7045 48.6136 20.6889 48.5124 20.6889C48.3852 20.6889 48.2722 20.7136 48.1736 20.7629C48.0775 20.8123 47.9958 20.8914 47.9283 21.0005C47.8608 21.1069 47.8089 21.2497 47.7725 21.4288C47.7388 21.6053 47.7219 21.8208 47.7219 22.0752V23.3563C47.7219 23.5614 47.7323 23.7418 47.753 23.8976C47.7764 24.0533 47.8102 24.187 47.8543 24.2987C47.901 24.4077 47.9555 24.4972 48.0178 24.5673C48.0827 24.6348 48.1567 24.6842 48.2398 24.7153C48.3255 24.7465 48.4189 24.762 48.5202 24.762C48.6448 24.762 48.7551 24.7374 48.8511 24.6881C48.9498 24.6361 49.0329 24.5557 49.1004 24.4466C49.1704 24.335 49.2224 24.1896 49.2561 24.0105C49.2899 23.8314 49.3067 23.6133 49.3067 23.3563ZM54.7722 22.2271V23.2083C54.7722 23.6341 54.7267 24.0014 54.6359 24.3103C54.545 24.6167 54.4139 24.8685 54.2426 25.0658C54.0738 25.2605 53.8727 25.4045 53.639 25.498C53.4054 25.5915 53.1458 25.6382 52.8602 25.6382C52.6318 25.6382 52.4189 25.6096 52.2216 25.5525C52.0243 25.4928 51.8465 25.4006 51.6881 25.276C51.5324 25.1514 51.3974 24.9944 51.2832 24.8049C51.1715 24.6128 51.0859 24.3843 51.0262 24.1195C50.9665 23.8547 50.9366 23.551 50.9366 23.2083V22.2271C50.9366 21.8013 50.982 21.4366 51.0729 21.1329C51.1663 20.8265 51.2974 20.576 51.4662 20.3813C51.6375 20.1866 51.84 20.0438 52.0736 19.953C52.3073 19.8595 52.5669 19.8128 52.8524 19.8128C53.0809 19.8128 53.2925 19.8427 53.4872 19.9024C53.6844 19.9595 53.8623 20.049 54.0206 20.171C54.179 20.2931 54.314 20.4501 54.4256 20.6422C54.5372 20.8317 54.6229 21.0589 54.6826 21.3237C54.7423 21.5859 54.7722 21.887 54.7722 22.2271ZM53.6468 23.3563V22.0752C53.6468 21.8701 53.6351 21.691 53.6118 21.5378C53.591 21.3847 53.5585 21.2549 53.5144 21.1484C53.4703 21.0394 53.4158 20.9511 53.3509 20.8836C53.286 20.8161 53.212 20.7668 53.1289 20.7357C53.0458 20.7045 52.9537 20.6889 52.8524 20.6889C52.7252 20.6889 52.6123 20.7136 52.5137 20.7629C52.4176 20.8123 52.3358 20.8914 52.2683 21.0005C52.2008 21.1069 52.1489 21.2497 52.1126 21.4288C52.0788 21.6053 52.062 21.8208 52.062 22.0752V23.3563C52.062 23.5614 52.0723 23.7418 52.0931 23.8976C52.1165 24.0533 52.1502 24.187 52.1944 24.2987C52.2411 24.4077 52.2956 24.4972 52.3579 24.5673C52.4228 24.6348 52.4968 24.6842 52.5799 24.7153C52.6655 24.7465 52.759 24.762 52.8602 24.762C52.9848 24.762 53.0952 24.7374 53.1912 24.6881C53.2899 24.6361 53.3729 24.5557 53.4404 24.4466C53.5105 24.335 53.5624 24.1896 53.5962 24.0105C53.6299 23.8314 53.6468 23.6133 53.6468 23.3563ZM59.011 22.4023V23.3797H55.1248V22.4023H59.011ZM57.6014 20.8642V24.9918H56.5383V20.8642H57.6014ZM22.29 34.5603H21.0556L21.0634 33.6491H22.29C22.5964 33.6491 22.8547 33.5803 23.0649 33.4427C23.2752 33.3025 23.4336 33.0988 23.54 32.8314C23.649 32.564 23.7035 32.2408 23.7035 31.8618V31.5853C23.7035 31.2946 23.6724 31.0389 23.6101 30.8182C23.5504 30.5975 23.4608 30.4119 23.3414 30.2614C23.222 30.1108 23.0753 29.9979 22.9014 29.9226C22.7275 29.8447 22.5276 29.8058 22.3017 29.8058H21.0323V28.8907H22.3017C22.6807 28.8907 23.0273 28.9556 23.3414 29.0854C23.6581 29.2126 23.932 29.3956 24.163 29.6344C24.3941 29.8733 24.5719 30.1588 24.6965 30.4911C24.8237 30.8208 24.8873 31.1881 24.8873 31.5931V31.8618C24.8873 32.2642 24.8237 32.6315 24.6965 32.9638C24.5719 33.2961 24.3941 33.5816 24.163 33.8204C23.9346 34.0567 23.6607 34.2397 23.3414 34.3695C23.0247 34.4967 22.6742 34.5603 22.29 34.5603ZM21.7176 28.8907V34.5603H20.5494V28.8907H21.7176ZM30.1541 31.5931V31.8618C30.1541 32.2927 30.0957 32.6795 29.9789 33.0222C29.8621 33.3649 29.6973 33.6569 29.4844 33.8983C29.2715 34.1372 29.0171 34.3202 28.7212 34.4474C28.4278 34.5746 28.102 34.6382 27.7438 34.6382C27.3881 34.6382 27.0623 34.5746 26.7664 34.4474C26.473 34.3202 26.2186 34.1372 26.0032 33.8983C25.7877 33.6569 25.6203 33.3649 25.5009 33.0222C25.384 32.6795 25.3256 32.2927 25.3256 31.8618V31.5931C25.3256 31.1596 25.384 30.7728 25.5009 30.4327C25.6177 30.09 25.7825 29.798 25.9954 29.5565C26.2109 29.3151 26.4653 29.1308 26.7586 29.0036C27.0545 28.8764 27.3803 28.8128 27.736 28.8128C28.0942 28.8128 28.42 28.8764 28.7134 29.0036C29.0093 29.1308 29.2637 29.3151 29.4766 29.5565C29.6921 29.798 29.8582 30.09 29.975 30.4327C30.0944 30.7728 30.1541 31.1596 30.1541 31.5931ZM28.9743 31.8618V31.5853C28.9743 31.2842 28.947 31.0194 28.8925 30.7909C28.838 30.5625 28.7575 30.3704 28.6511 30.2146C28.5446 30.0589 28.4148 29.942 28.2617 29.8642C28.1085 29.7837 27.9333 29.7435 27.736 29.7435C27.5387 29.7435 27.3635 29.7837 27.2103 29.8642C27.0597 29.942 26.9312 30.0589 26.8248 30.2146C26.721 30.3704 26.6418 30.5625 26.5873 30.7909C26.5328 31.0194 26.5055 31.2842 26.5055 31.5853V31.8618C26.5055 32.1603 26.5328 32.4251 26.5873 32.6561C26.6418 32.8846 26.7223 33.078 26.8287 33.2364C26.9351 33.3921 27.0649 33.5102 27.2181 33.5907C27.3713 33.6712 27.5465 33.7114 27.7438 33.7114C27.9411 33.7114 28.1163 33.6712 28.2695 33.5907C28.4226 33.5102 28.5511 33.3921 28.655 33.2364C28.7588 33.078 28.838 32.8846 28.8925 32.6561C28.947 32.4251 28.9743 32.1603 28.9743 31.8618ZM32.1228 33.6608L33.252 28.8907H33.8829L34.0269 29.685L32.8237 34.5603H32.1462L32.1228 33.6608ZM31.5426 28.8907L32.4771 33.6608L32.3993 34.5603H31.6438L30.3861 28.8907H31.5426ZM35.0199 33.6413L35.9428 28.8907H37.0993L35.8454 34.5603H35.09L35.0199 33.6413ZM34.2372 28.8907L35.3743 33.6803L35.3431 34.5603H34.6656L33.4545 29.6812L33.6103 28.8907H34.2372ZM42.1091 28.8907V34.5603H40.9409L38.6629 30.7598V34.5603H37.4948V28.8907H38.6629L40.9448 32.6951V28.8907H42.1091ZM46.531 33.6491V34.5603H43.6767V33.6491H46.531ZM44.0544 28.8907V34.5603H42.8862V28.8907H44.0544ZM51.3617 31.5931V31.8618C51.3617 32.2927 51.3033 32.6795 51.1864 33.0222C51.0696 33.3649 50.9048 33.6569 50.6919 33.8983C50.479 34.1372 50.2246 34.3202 49.9287 34.4474C49.6353 34.5746 49.3095 34.6382 48.9513 34.6382C48.5956 34.6382 48.2699 34.5746 47.9739 34.4474C47.6806 34.3202 47.4262 34.1372 47.2107 33.8983C46.9952 33.6569 46.8278 33.3649 46.7084 33.0222C46.5915 32.6795 46.5331 32.2927 46.5331 31.8618V31.5931C46.5331 31.1596 46.5915 30.7728 46.7084 30.4327C46.8252 30.09 46.99 29.798 47.2029 29.5565C47.4184 29.3151 47.6728 29.1308 47.9661 29.0036C48.2621 28.8764 48.5879 28.8128 48.9435 28.8128C49.3018 28.8128 49.6276 28.8764 49.9209 29.0036C50.2168 29.1308 50.4712 29.3151 50.6841 29.5565C50.8996 29.798 51.0657 30.09 51.1825 30.4327C51.302 30.7728 51.3617 31.1596 51.3617 31.5931ZM50.1818 31.8618V31.5853C50.1818 31.2842 50.1545 31.0194 50.1 30.7909C50.0455 30.5625 49.965 30.3704 49.8586 30.2146C49.7522 30.0589 49.6224 29.942 49.4692 29.8642C49.316 29.7837 49.1408 29.7435 48.9435 29.7435C48.7462 29.7435 48.571 29.7837 48.4178 29.8642C48.2673 29.942 48.1388 30.0589 48.0323 30.2146C47.9285 30.3704 47.8493 30.5625 47.7948 30.7909C47.7403 31.0194 47.713 31.2842 47.713 31.5853V31.8618C47.713 32.1603 47.7403 32.4251 47.7948 32.6561C47.8493 32.8846 47.9298 33.078 48.0362 33.2364C48.1426 33.3921 48.2724 33.5102 48.4256 33.5907C48.5788 33.6712 48.754 33.7114 48.9513 33.7114C49.1486 33.7114 49.3238 33.6712 49.477 33.5907C49.6301 33.5102 49.7586 33.3921 49.8625 33.2364C49.9663 33.078 50.0455 32.8846 50.1 32.6561C50.1545 32.4251 50.1818 32.1603 50.1818 31.8618ZM54.1831 29.8603L52.6411 34.5603H51.3989L53.5055 28.8907H54.296L54.1831 29.8603ZM55.4642 34.5603L53.9183 29.8603L53.7937 28.8907H54.592L56.7103 34.5603H55.4642ZM55.3941 32.4498V33.3649H52.3996V32.4498H55.3941ZM58.7373 34.5603H57.5029L57.5107 33.6491H58.7373C59.0436 33.6491 59.3019 33.5803 59.5122 33.4427C59.7225 33.3025 59.8809 33.0988 59.9873 32.8314C60.0963 32.564 60.1508 32.2408 60.1508 31.8618V31.5853C60.1508 31.2946 60.1197 31.0389 60.0574 30.8182C59.9977 30.5975 59.9081 30.4119 59.7887 30.2614C59.6693 30.1108 59.5226 29.9979 59.3487 29.9226C59.1747 29.8447 58.9749 29.8058 58.749 29.8058H57.4796V28.8907H58.749C59.128 28.8907 59.4746 28.9556 59.7887 29.0854C60.1054 29.2126 60.3793 29.3956 60.6103 29.6344C60.8414 29.8733 61.0192 30.1588 61.1438 30.4911C61.271 30.8208 61.3346 31.1881 61.3346 31.5931V31.8618C61.3346 32.2642 61.271 32.6315 61.1438 32.9638C61.0192 33.2961 60.8414 33.5816 60.6103 33.8204C60.3819 34.0567 60.108 34.2397 59.7887 34.3695C59.472 34.4967 59.1215 34.5603 58.7373 34.5603ZM58.1649 28.8907V34.5603H56.9967V28.8907H58.1649ZM64.8959 33.0767C64.8959 32.9755 64.8803 32.8846 64.8491 32.8041C64.8206 32.721 64.7661 32.6458 64.6856 32.5783C64.6051 32.5082 64.4922 32.4394 64.3468 32.3719C64.2014 32.3044 64.0132 32.2343 63.7822 32.1616C63.5252 32.0785 63.2812 31.9851 63.0501 31.8812C62.8217 31.7774 62.6192 31.6567 62.4427 31.5191C62.2687 31.3789 62.1311 31.2167 62.0299 31.0324C61.9313 30.848 61.8819 30.6339 61.8819 30.3899C61.8819 30.1536 61.9339 29.9395 62.0377 29.7474C62.1415 29.5527 62.2869 29.3865 62.4738 29.2489C62.6607 29.1087 62.8814 29.001 63.1358 28.9257C63.3928 28.8504 63.6745 28.8128 63.9808 28.8128C64.3987 28.8128 64.7635 28.8881 65.075 29.0386C65.3865 29.1892 65.6279 29.3956 65.7993 29.6578C65.9732 29.92 66.0602 30.2198 66.0602 30.5573H64.8998C64.8998 30.3912 64.8647 30.2458 64.7946 30.1212C64.7271 29.994 64.6233 29.894 64.4831 29.8213C64.3455 29.7486 64.1716 29.7123 63.9613 29.7123C63.7588 29.7123 63.5901 29.7435 63.4551 29.8058C63.3201 29.8655 63.2189 29.9472 63.1514 30.0511C63.0839 30.1523 63.0501 30.2665 63.0501 30.3938C63.0501 30.4898 63.0735 30.5768 63.1202 30.6546C63.1695 30.7325 63.2422 30.8052 63.3383 30.8727C63.4343 30.9402 63.5525 31.0038 63.6926 31.0635C63.8328 31.1232 63.9951 31.1816 64.1794 31.2387C64.4883 31.3322 64.7596 31.4373 64.9932 31.5542C65.2295 31.671 65.4267 31.8021 65.5851 31.9474C65.7435 32.0928 65.8629 32.2577 65.9434 32.442C66.0238 32.6263 66.0641 32.8353 66.0641 33.0689C66.0641 33.3155 66.016 33.5362 65.92 33.7309C65.8239 33.9256 65.6851 34.0904 65.5033 34.2254C65.3216 34.3604 65.1048 34.463 64.853 34.533C64.6012 34.6031 64.3196 34.6382 64.008 34.6382C63.7277 34.6382 63.4512 34.6018 63.1786 34.5292C62.9061 34.4539 62.6581 34.3409 62.4349 34.1904C62.2142 34.0398 62.0377 33.8477 61.9053 33.6141C61.7729 33.3804 61.7067 33.104 61.7067 32.7847H62.8788C62.8788 32.9612 62.9061 33.1104 62.9606 33.2325C63.0151 33.3545 63.0917 33.4531 63.1903 33.5284C63.2916 33.6037 63.411 33.6582 63.5486 33.6919C63.6887 33.7257 63.8419 33.7426 64.008 33.7426C64.2105 33.7426 64.3767 33.714 64.5065 33.6569C64.6389 33.5998 64.7362 33.5206 64.7985 33.4194C64.8634 33.3181 64.8959 33.2039 64.8959 33.0767Z" fill="#242429"/>
<path d="M45.1842 64.915C45.0976 64.9152 45.0127 64.8904 44.9395 64.8435C44.8663 64.7967 44.8077 64.7297 44.7706 64.6504C44.7335 64.5711 44.7194 64.4828 44.73 64.3957C44.7406 64.3086 44.7753 64.2263 44.8303 64.1585C45.4767 63.3563 46.5683 62.9083 48.3683 62.7072C57.36 61.7012 65.513 57.2904 71.3258 50.286C77.1606 43.2551 80.0207 34.3366 79.3796 25.1755C78.7703 16.3111 74.8675 8.01013 68.4577 1.94514C68.4133 1.90368 68.3775 1.85372 68.3522 1.79815C68.327 1.74257 68.3128 1.68249 68.3106 1.62135C68.3084 1.56021 68.3181 1.49923 68.3392 1.44192C68.3604 1.38462 68.3925 1.33212 68.4338 1.28746C68.4751 1.2428 68.5247 1.20686 68.5797 1.18172C68.6348 1.15657 68.6942 1.14271 68.7545 1.14094C68.8149 1.13917 68.875 1.14953 68.9314 1.17141C68.9878 1.19329 69.0393 1.22627 69.0831 1.26843C75.6616 7.49303 79.6672 16.0124 80.2927 25.1101C80.9506 34.5143 78.0154 43.6679 72.0262 50.8845C66.0617 58.0719 57.6955 62.5982 48.4692 63.6302C46.4912 63.8516 45.8642 64.3431 45.5386 64.7475C45.4956 64.8003 45.4414 64.8428 45.3801 64.8718C45.3188 64.9008 45.2519 64.9155 45.1842 64.915Z" fill="#242429"/>
<path d="M40.924 64.9152C40.8561 64.9154 40.7891 64.9002 40.7277 64.8707C40.6664 64.8412 40.6124 64.7983 40.5695 64.7449C40.244 64.3417 39.617 63.8501 37.6395 63.6277C28.4127 62.5956 20.049 58.0694 14.0819 50.882C8.09329 43.6654 5.15542 34.5118 5.81598 25.1076C6.44134 16.0103 10.4467 7.4912 17.0251 1.26697C17.0688 1.2248 17.1204 1.19182 17.1768 1.16994C17.2332 1.14806 17.2933 1.13771 17.3536 1.13948C17.414 1.14125 17.4734 1.1551 17.5284 1.18025C17.5835 1.2054 17.6331 1.24134 17.6744 1.286C17.7156 1.33066 17.7478 1.38315 17.7689 1.44046C17.7901 1.49776 17.7998 1.55874 17.7976 1.61988C17.7954 1.68102 17.7812 1.74111 17.756 1.79668C17.7307 1.85225 17.6949 1.90221 17.6504 1.94367C11.2408 8.00883 7.33814 16.3097 6.72859 25.1741C6.08746 34.3367 8.94761 43.2552 14.7824 50.2846C20.5951 57.2889 28.7497 61.6997 37.7398 62.7058C39.5398 62.9069 40.6314 63.3548 41.2778 64.1571C41.3328 64.2249 41.3676 64.3071 41.3781 64.3942C41.3887 64.4813 41.3746 64.5697 41.3375 64.649C41.3004 64.7283 41.2419 64.7952 41.1686 64.8421C41.0954 64.8889 41.0105 64.9137 40.9239 64.9136L40.924 64.9152Z" fill="#242429"/>
<path d="M54.011 59.6862C55.5484 57.4736 55.2895 55.1301 55.2895 55.1301C55.2895 55.1301 53.0248 55.6733 51.4874 57.8859C50.1626 59.7915 49.6543 61.1742 49.9919 62.7532C51.5735 62.5446 52.6867 61.5918 54.011 59.6862Z" fill="#242429"/>
<path d="M55.728 63.1736C58.2931 63.9286 59.5349 65.9225 59.5349 65.9225C59.5349 65.9225 57.4314 66.9333 54.8669 66.1763C52.6578 65.5256 51.4086 64.7681 50.6992 63.3205C52.0655 62.4842 53.5189 62.523 55.728 63.1736Z" fill="#242429"/>
<path d="M60.3702 57.1587C61.4392 54.679 60.7225 52.4355 60.7225 52.4355C60.7225 52.4355 58.6111 53.4267 57.5415 55.9069C56.6205 58.0423 56.3952 59.5 57.0385 60.9784C58.5465 60.4523 59.4492 59.2941 60.3702 57.1587Z" fill="#242429"/>
<path d="M62.5646 60.1408C65.2268 60.3605 66.8372 62.0624 66.8372 62.0624C66.8372 62.0624 64.9758 63.4775 62.3136 63.2572C60.021 63.0684 58.6469 62.5789 57.666 61.3048C58.8396 60.2089 60.2715 59.9514 62.5646 60.1408Z" fill="#242429"/>
<path d="M65.6503 53.3457C66.2079 50.6996 65.0627 48.6471 65.0627 48.6471C65.0627 48.6471 63.1897 50.0463 62.6315 52.6903C62.1516 54.9694 62.2188 56.4431 63.1409 57.7614C64.5145 56.9426 65.1698 55.6254 65.6503 53.3457Z" fill="#242429"/>
<path d="M68.4554 56.129C71.1071 55.8045 73.0236 57.1452 73.0236 57.1452C73.0236 57.1452 71.4794 58.9087 68.8277 59.2333C66.5441 59.5131 65.0995 59.3125 63.8887 58.2629C64.8176 56.9515 66.1718 56.4083 68.4554 56.129Z" fill="#242429"/>
<path d="M70.0912 48.8615C70.1148 46.1557 68.5868 44.3767 68.5868 44.3767C68.5868 44.3767 67.0283 46.1281 67.0047 48.8338C66.9847 51.1645 67.3418 52.5945 68.5059 53.699C69.6889 52.6158 70.0733 51.1922 70.0912 48.8615Z" fill="#242429"/>
<path d="M73.5011 50.8458C76.0352 49.9899 78.1744 50.915 78.1744 50.915C78.1744 50.915 77.0103 52.9563 74.4762 53.8123C72.2939 54.5491 70.841 54.6454 69.4453 53.8655C70.0996 52.3892 71.3188 51.5853 73.5011 50.8458Z" fill="#242429"/>
<path d="M73.7399 43.201C73.2285 40.5447 71.3802 39.1121 71.3802 39.1121C71.3802 39.1121 70.1987 41.1438 70.7107 43.8001C71.1512 46.0877 71.7834 47.4177 73.1423 48.262C74.0875 46.9607 74.1805 45.4886 73.7399 43.201Z" fill="#242429"/>
<path d="M77.6029 44.5097C79.9164 43.1573 82.1964 43.6297 82.1964 43.6297C82.1964 43.6297 81.4586 45.8641 79.1451 47.2181C77.1529 48.3832 75.7483 48.7721 74.2266 48.2885C74.5752 46.7116 75.6102 45.6742 77.6029 44.5097Z" fill="#242429"/>
<path d="M76.2182 37.0521C75.1922 34.5517 73.0981 33.5244 73.0981 33.5244C73.0981 33.5244 72.3425 35.7546 73.3686 38.2534C74.2523 40.4053 75.1344 41.5789 76.633 42.1322C77.3009 40.6655 77.1014 39.2041 76.2182 37.0521Z" fill="#242429"/>
<path d="M80.2567 37.4927C82.2562 35.6982 84.5834 35.6982 84.5834 35.6982C84.5834 35.6982 84.3025 38.0391 82.303 39.8335C80.5812 41.379 79.2816 42.0445 77.6953 41.8796C77.7252 40.2644 78.5344 39.0376 80.2567 37.4927Z" fill="#242429"/>
<path d="M77.5478 30.3163C76.0492 28.076 73.7939 27.4929 73.7939 27.4929C73.7939 27.4929 73.4946 29.8337 74.9932 32.0708C76.2844 33.9998 77.3803 34.9713 78.9576 35.2096C79.3231 33.6365 78.839 32.2453 77.5478 30.3163Z" fill="#242429"/>
<path d="M81.3581 30.079C82.9628 27.9154 85.2438 27.4435 85.2438 27.4435C85.2438 27.4435 85.4312 29.7939 83.826 31.9575C82.444 33.8195 81.3024 34.7367 79.7156 34.8968C79.4258 33.3083 79.9766 31.9421 81.3581 30.079Z" fill="#242429"/>
<path d="M77.4586 23.6045C75.5472 21.7137 73.2227 21.5994 73.2227 21.5994C73.2227 21.5994 73.3912 23.9513 75.302 25.8421C76.9482 27.47 78.2142 28.1989 79.8068 28.1127C79.854 26.4975 79.1042 25.2324 77.4586 23.6045Z" fill="#242429"/>
<path d="M81.1961 22.5694C82.3408 20.1222 84.4815 19.1997 84.4815 19.1997C84.4815 19.1997 85.1295 21.4644 83.9848 23.9095C82.9992 26.0152 82.0619 27.1441 80.5386 27.6234C79.9406 26.1253 80.2089 24.6756 81.1961 22.5694Z" fill="#242429"/>
<path d="M76.3332 17.0364C74.2606 15.3292 71.9355 15.4287 71.9355 15.4287C71.9355 15.4287 72.3136 17.7557 74.3861 19.4629C76.1714 20.9333 77.4968 21.543 79.0747 21.3105C78.9775 19.6975 78.1179 18.5069 76.3332 17.0364Z" fill="#242429"/>
<path d="M79.2001 15.3112C79.7614 12.6655 81.6365 11.2679 81.6365 11.2679C81.6365 11.2679 82.7791 13.322 82.2173 15.9677C81.7336 18.2462 81.0762 19.5624 79.7016 20.3833C78.7811 19.0634 78.716 17.5903 79.2001 15.3112Z" fill="#242429"/>
<path d="M74.1429 10.7576C71.9822 9.16637 69.666 9.39353 69.666 9.39353C69.666 9.39353 70.1675 11.696 72.3282 13.2873C74.1891 14.6572 75.5454 15.1934 77.1065 14.8747C76.9259 13.2697 76.0038 12.128 74.1429 10.7576Z" fill="#242429"/>
<path d="M76.2888 8.56714C76.4463 5.86617 78.0882 4.19568 78.0882 4.19568C78.0882 4.19568 79.5265 6.0497 79.3689 8.75121C79.2335 11.0777 78.7819 12.48 77.5469 13.5025C76.44 12.3406 76.1538 10.8941 76.2888 8.56714Z" fill="#242429"/>
<path d="M70.0235 5.89094C67.9757 3.39053 67.9395 0.664551 67.9395 0.664551C67.9395 0.664551 70.5786 1.19655 72.6285 3.69696C74.3939 5.84944 75.1626 7.43055 75.0008 9.275C73.1804 9.09944 71.7878 8.04395 70.0235 5.89094Z" fill="#242429"/>
<path d="M32.0958 59.6862C30.5583 57.4736 30.8172 55.1301 30.8172 55.1301C30.8172 55.1301 33.0819 55.6733 34.6199 57.8859C35.9442 59.7915 36.4525 61.1742 36.1148 62.7532C34.5333 62.5446 33.4227 61.5918 32.0958 59.6862Z" fill="#242429"/>
<path d="M30.3811 63.1736C27.8161 63.9286 26.5742 65.9225 26.5742 65.9225C26.5742 65.9225 28.6777 66.9333 31.2423 66.1763C33.4513 65.5256 34.7005 64.7681 35.4099 63.3205C34.0457 62.4842 32.5902 62.523 30.3811 63.1736Z" fill="#242429"/>
<path d="M25.7383 57.1587C24.6687 54.679 25.3855 52.4355 25.3855 52.4355C25.3855 52.4355 27.4968 53.4267 28.5664 55.9069C29.4875 58.0423 29.7127 59.5 29.0695 60.9784C27.5614 60.4523 26.6593 59.2941 25.7383 57.1587Z" fill="#242429"/>
<path d="M23.5447 60.1408C20.8825 60.3605 19.2715 62.0624 19.2715 62.0624C19.2715 62.0624 21.1329 63.4775 23.7951 63.2572C26.0877 63.0684 27.4618 62.5789 28.4427 61.3048C27.2712 60.2089 25.8372 59.9514 23.5447 60.1408Z" fill="#242429"/>
<path d="M20.4519 53.3457C19.8943 50.6996 21.0395 48.6471 21.0395 48.6471C21.0395 48.6471 22.9125 50.0463 23.4707 52.6903C23.9511 54.9694 23.8834 56.4431 22.9613 57.7614C21.5903 56.9426 20.9345 55.6254 20.4519 53.3457Z" fill="#242429"/>
<path d="M17.6523 56.1289C15.0006 55.8044 13.084 57.145 13.084 57.145C13.084 57.145 14.6283 58.9086 17.28 59.2331C19.5636 59.513 21.0081 59.3124 22.219 58.2628C21.2901 56.9514 19.9359 56.4082 17.6523 56.1289Z" fill="#242429"/>
<path d="M16.0159 48.8612C15.9923 46.1555 17.5203 44.3765 17.5203 44.3765C17.5203 44.3765 19.0787 46.1278 19.1024 48.8336C19.1223 51.1643 18.7653 52.5943 17.6011 53.6987C16.4181 52.6156 16.0364 51.1919 16.0159 48.8612Z" fill="#242429"/>
<path d="M12.6088 50.8458C10.0753 49.9899 7.93555 50.915 7.93555 50.915C7.93555 50.915 9.10019 52.9563 11.6337 53.8123C13.816 54.5491 15.2689 54.6454 16.6646 53.8655C16.0104 52.3892 14.7911 51.5853 12.6088 50.8458Z" fill="#242429"/>
<path d="M12.3683 43.201C12.8802 40.5447 14.728 39.1121 14.728 39.1121C14.728 39.1121 15.9095 41.1438 15.3975 43.8001C14.957 46.0877 14.3247 47.4177 12.9658 48.262C12.0217 46.9607 11.9288 45.4886 12.3683 43.201Z" fill="#242429"/>
<path d="M8.50559 44.5097C6.19205 43.1573 3.91211 43.6297 3.91211 43.6297C3.91211 43.6297 4.64987 45.8641 6.96341 47.2181C8.9556 48.3832 10.3602 48.7721 11.8824 48.2885C11.5333 46.7116 10.4983 45.6742 8.50559 44.5097Z" fill="#242429"/>
<path d="M9.88992 37.052C10.9159 34.5516 13.01 33.5243 13.01 33.5243C13.01 33.5243 13.7656 35.7544 12.7396 38.2533C11.8559 40.4052 10.9737 41.5788 9.47509 42.1321C8.80665 40.6654 9.00724 39.2039 9.88992 37.052Z" fill="#242429"/>
<path d="M5.85212 37.4927C3.85258 35.6982 1.52539 35.6982 1.52539 35.6982C1.52539 35.6982 1.80631 38.0391 3.80585 39.8335C5.52762 41.379 6.82721 42.0445 8.41351 41.8796C8.38357 40.2644 7.57441 39.0376 5.85212 37.4927Z" fill="#242429"/>
<path d="M8.55844 30.3163C10.0565 28.076 12.3144 27.4929 12.3144 27.4929C12.3144 27.4929 12.6142 29.8337 11.1151 32.0708C9.8239 33.9998 8.72804 34.9713 7.15067 35.2096C6.78311 33.6365 7.26725 32.2453 8.55844 30.3163Z" fill="#242429"/>
<path d="M4.75371 30.0789C3.14903 27.9152 0.868048 27.4434 0.868048 27.4434C0.868048 27.4434 0.680592 29.7937 2.28579 31.9574C3.6673 33.8194 4.80884 34.7366 6.39566 34.8967C6.68341 33.3082 6.13259 31.942 4.75371 30.0789Z" fill="#242429"/>
<path d="M8.64912 23.6046C10.5604 21.7139 12.885 21.5995 12.885 21.5995C12.885 21.5995 12.7165 23.9515 10.8057 25.8422C9.15951 27.4701 7.89352 28.199 6.30093 28.1128C6.25367 26.4976 7.00349 25.2325 8.64912 23.6046Z" fill="#242429"/>
<path d="M4.90958 22.5694C3.76489 20.1222 1.62409 19.1997 1.62409 19.1997C1.62409 19.1997 0.976132 21.4644 2.12083 23.9095C3.10642 26.0152 4.04371 27.1441 5.56699 27.6234C6.16507 26.1253 5.89517 24.6756 4.90958 22.5694Z" fill="#242429"/>
<path d="M9.77469 17.0365C11.8472 15.3293 14.1723 15.4288 14.1723 15.4288C14.1723 15.4288 13.7943 17.7558 11.7223 19.463C9.93695 20.9334 8.6111 21.5431 7.0332 21.3106C7.13034 19.6976 7.98991 18.507 9.77469 17.0365Z" fill="#242429"/>
<path d="M6.90548 15.3113C6.34364 12.6656 4.46855 11.2681 4.46855 11.2681C4.46855 11.2681 3.32595 13.3221 3.8878 15.9678C4.3714 18.2463 5.02881 19.5625 6.40349 20.3834C7.32555 19.0635 7.39119 17.5904 6.90548 15.3113Z" fill="#242429"/>
<path d="M11.9662 10.7576C14.127 9.16637 16.4431 9.39353 16.4431 9.39353C16.4431 9.39353 15.9417 11.696 13.7809 13.2873C11.92 14.6572 10.5637 15.1934 9 14.8747C9.18326 13.2697 10.1053 12.128 11.9662 10.7576Z" fill="#242429"/>
<path d="M9.81968 8.56714C9.66216 5.86617 8.0202 4.19568 8.0202 4.19568C8.0202 4.19568 6.58199 6.0497 6.73846 8.75121C6.87394 11.0777 7.32551 12.48 8.56052 13.5025C9.66846 12.3406 9.95306 10.8941 9.81968 8.56714Z" fill="#242429"/>
<path d="M16.0868 5.89106C18.1346 3.39065 18.1703 0.664673 18.1703 0.664673C18.1703 0.664673 15.5312 1.19667 13.4813 3.69708C11.7159 5.84956 10.9472 7.43068 11.1089 9.27513C12.9284 9.09957 14.3214 8.04407 16.0868 5.89106Z" fill="#242429"/>
</svg>
