<svg xmlns="http://www.w3.org/2000/svg" width="98" height="67" viewBox="0 0 98 67" fill="none">
  <path d="M77.9026 1.29306C77.4614 0.813865 77.0887 0.407693 76.716 0C76.3859 0.390959 76.0573 0.781919 75.642 1.2748C69.2589 0.935565 62.678 1.04509 56.1169 1.7829C56.1093 1.88482 56.1001 1.98826 56.0925 2.09019C56.4926 2.16625 56.8912 2.30012 57.2928 2.30773C60.9149 2.38227 64.5385 2.4705 68.1606 2.48115C70.6676 2.48875 73.1746 2.38075 75.8139 2.3199C75.7607 3.0653 75.7044 3.85179 75.6405 4.73563H72.4094C72.4459 5.3852 72.4763 5.92981 72.5128 6.57025C72.2512 6.58546 71.9895 6.61437 71.7263 6.61437C67.2402 6.61741 62.7525 6.6098 58.2664 6.62501C57.7659 6.62653 57.4403 6.53678 57.1924 6.03173C56.8805 5.39737 56.2599 5.10834 55.554 5.10834C51.0679 5.10073 46.5802 5.10073 42.094 5.11138C41.3243 5.1129 40.766 5.50082 40.3461 6.15039C40.2108 6.36032 39.9126 6.59611 39.6874 6.59763C34.9473 6.62197 30.2071 6.61437 25.4669 6.61132C25.371 6.61132 25.2737 6.57481 25.1428 6.54895C25.1778 5.98457 25.2113 5.43844 25.2508 4.78887H22.0395C21.9574 3.90503 21.8843 3.11398 21.825 2.46898C25.1885 2.46898 28.4713 2.52678 31.7511 2.45224C35.0081 2.37922 38.2712 2.28339 41.4977 1.77681C41.5084 1.6901 41.519 1.60187 41.5297 1.51516C41.1904 1.44062 40.8527 1.30827 40.5135 1.30066C36.9157 1.22612 33.3195 1.13028 29.7218 1.1242C27.265 1.11963 24.8082 1.25807 22.3498 1.29914C22.1293 1.30218 21.7748 1.11811 21.7063 0.935565C21.539 0.498968 21.4401 -0.0821471 20.8894 0.0486798C20.573 0.123221 20.3616 0.670868 20.1182 1.01467C20.0649 1.08921 20.0756 1.20787 20.0604 1.29154C13.6894 0.935565 7.34581 1.04814 0.993101 1.70227C0.968762 1.89243 0.9429 2.08258 0.912476 2.27274C7.24389 2.70021 13.5707 2.50549 19.9082 2.30012C19.9341 2.38227 19.9782 2.45224 19.9767 2.5207C19.927 4.00442 19.1603 4.74831 17.6766 4.75236C17.3541 4.75236 17.0331 4.75236 16.6087 4.75236C16.6954 7.4115 17.0924 9.85613 19.1385 11.6588C20.4665 12.8286 22.0851 12.5716 23.3113 11.0381C23.7296 10.5148 24.0871 10.4433 24.7108 10.5939C30.6406 12.0315 36.5795 13.4295 42.5154 14.8412C42.6797 14.8808 42.8349 14.9538 43.1498 15.0679C42.774 15.2733 42.523 15.4163 42.2659 15.5501C41.1007 16.1602 39.8776 16.6804 38.7793 17.3939C36.9507 18.5805 35.7855 20.3116 35.1404 22.3912C34.3235 25.026 33.5097 27.6623 32.6928 30.2971C32.6197 30.5329 32.5285 30.7641 32.4494 30.9862C32.1619 30.9086 31.9367 30.8295 31.704 30.7869C31.0285 30.6667 30.7988 30.9208 30.8003 31.6403C30.8232 42.9219 30.8171 54.2019 30.811 65.4834C30.811 66.0128 30.8049 66.4312 31.5473 66.3825C32.0234 66.3521 32.2653 66.2456 32.2181 65.7344C32.2044 65.5899 32.2546 65.4393 32.2896 65.1929C32.5969 65.1929 32.8936 65.1929 33.1887 65.1929C43.6335 65.1929 54.0769 65.1929 64.5217 65.1868C65.0603 65.1868 65.5364 65.1427 65.471 65.9368C65.4238 66.5133 65.9258 66.3308 66.2453 66.3642C66.6484 66.4083 66.8584 66.2577 66.8538 65.8166C66.8416 64.5752 66.8508 63.3324 66.8508 62.0895C66.8508 52.025 66.8508 41.9604 66.8508 31.8974C66.8508 30.6896 66.3959 30.4218 65.2109 31.0364C64.8229 29.7996 64.4381 28.5781 64.0562 27.3565C63.4964 25.5691 62.9716 23.7709 62.3737 21.9957C61.604 19.7138 60.136 17.9887 58.0169 16.8402C57.1711 16.3823 56.2933 15.9852 55.4323 15.5562C55.1691 15.4254 54.9136 15.2809 54.4587 15.039C55.9145 14.683 57.1528 14.3742 58.3942 14.0776C63.3428 12.8956 68.2959 11.7242 73.2415 10.5255C73.6842 10.419 73.9154 10.5103 74.1953 10.8602C75.858 12.9367 77.9254 12.8652 79.4482 10.667C80.6576 8.92057 81.0364 6.93839 81.0364 4.75084C80.1282 4.75084 79.2991 4.72802 78.4715 4.75997C77.9893 4.77822 77.7702 4.61241 77.7657 4.12105C77.7596 3.52016 77.7155 2.91774 77.6866 2.30773C84.3253 2.70173 90.8894 2.50701 97.4749 1.80876V1.96392C97.5114 1.862 97.5479 1.76008 97.5875 1.65968C97.3699 1.57297 97.157 1.45887 96.9531 1.32805C90.5228 0.915788 84.1245 1.08769 77.9056 1.29154L77.9026 1.29306ZM65.3812 63.4495H32.2623V41.3337H65.3812V63.4495ZM53.1946 39.5599C51.725 39.5736 50.254 39.563 48.7845 39.563V39.5599C47.1111 39.5599 45.4377 39.5417 43.7659 39.5706C43.2259 39.5797 43.0798 39.3926 43.0753 38.8708C43.0585 36.9601 43.1057 36.8947 44.9951 36.8947C47.7576 36.8947 50.5202 36.8932 53.2843 36.8947C54.3355 36.8947 54.5774 37.132 54.5698 38.1984C54.5606 39.7912 54.769 39.5447 53.1961 39.5599H53.1946ZM56.7254 18.9577C58.4946 19.8629 59.6005 21.3248 60.1862 23.1959C61.0259 25.8779 61.8565 28.5613 62.6658 31.2524C63.04 32.4998 63.752 33.3959 64.9903 33.8735C65.188 33.9496 65.4223 34.2523 65.4269 34.4546C65.4634 36.0002 65.4558 37.5473 65.4284 39.0929C65.4254 39.2496 65.1972 39.5341 65.0709 39.5356C62.1623 39.5615 59.2521 39.5554 56.2507 39.5554C56.2507 38.9773 56.2599 38.4783 56.2492 37.9794C56.2173 36.3699 55.3517 35.3126 53.7711 35.2776C50.4776 35.2046 47.1796 35.2031 43.8861 35.2776C42.307 35.3141 41.4384 36.376 41.4064 37.9778C41.3973 38.4768 41.4064 38.9773 41.4064 39.4991C41.1463 39.5265 40.9744 39.5615 40.801 39.5615C38.189 39.5645 35.5786 39.5478 32.9681 39.5736C32.3627 39.5797 32.1816 39.3743 32.1984 38.7856C32.2349 37.418 32.2227 36.0474 32.2029 34.6798C32.1968 34.2173 32.314 33.9648 32.8023 33.7944C33.9341 33.3989 34.6019 32.5242 34.9503 31.3969C35.7794 28.7119 36.6161 26.03 37.4284 23.3404C38.0567 21.2624 39.2934 19.7184 41.2695 18.7797C42.5276 18.1819 43.7765 17.5658 45.0316 16.9603C45.2521 16.8539 45.4803 16.7641 45.7222 16.6607C45.9463 17.9659 46.7161 18.6185 48.0315 18.6185C48.7921 18.6185 49.5527 18.62 50.3133 18.6185C51.5288 18.6155 51.7905 18.3644 51.8452 17.1748C51.8513 17.0273 51.8802 16.8797 51.9137 16.612C52.58 16.933 53.1885 17.225 53.7939 17.5217C54.7721 17.9993 55.7563 18.4648 56.7254 18.9608V18.9577Z" fill="black"/>
  <path d="M29.9561 39.668V41.1786C29.8724 41.2075 29.7796 41.2698 29.6914 41.2637C28.1853 41.1664 28.4196 41.6075 28.4196 42.5964C28.415 49.0327 28.4166 55.4691 28.4196 61.9055C28.4196 62.9034 28.9282 63.4501 29.9454 63.5454V65.0819C28.3451 65.5245 26.6778 64.7898 26.7021 62.5809C26.7751 55.7901 26.7751 48.9993 26.7021 42.2084C26.6778 39.957 28.3101 39.2481 29.9576 39.6695L29.9561 39.668Z" fill="black"/>
  <path d="M67.7072 41.1832V39.6163C68.5697 39.5128 69.373 39.4763 70.0803 39.9844C70.7892 40.494 70.9398 41.2364 70.9383 42.0655C70.9262 47.5633 70.9338 53.061 70.9338 58.5588C70.9338 59.8503 70.9368 61.1434 70.9338 62.4349C70.9262 64.6149 69.9875 65.412 67.695 65.1184C67.6829 64.8644 67.6661 64.5951 67.6585 64.3274C67.6524 64.0794 67.6585 63.833 67.6585 63.6245C67.7726 63.5591 67.8137 63.5165 67.8578 63.5135C68.7827 63.4577 69.2452 62.9679 69.2452 62.044C69.2452 55.7095 69.2452 49.3766 69.2452 43.0421C69.2452 41.9732 68.7335 41.353 67.7102 41.1816L67.7072 41.1832Z" fill="black"/>
  <path d="M28.3253 31.6052H29.9515V33.9875H28.3253V31.6052Z" fill="black"/>
  <path d="M67.7209 31.6038H69.3182V33.9723H67.7209V31.6038Z" fill="black"/>
  <path d="M48.859 45.1885C52.8568 45.2007 56.0545 48.4136 56.0393 52.4038C56.0241 56.3849 52.7899 59.5856 48.7982 59.5703C44.8095 59.5551 41.6012 56.3271 41.6179 52.3444C41.6346 48.3527 44.8475 45.1763 48.8575 45.1885H48.859ZM49.609 56.1795C49.609 55.5953 49.6014 55.0949 49.609 54.5944C49.6349 53.0031 49.3504 53.1857 51.0009 53.169C51.5227 53.1644 52.046 53.169 52.5876 53.169C52.615 52.9134 52.6393 52.7673 52.6439 52.6198C52.6662 51.9241 52.33 51.5762 51.6353 51.5762C50.9857 51.5762 50.3346 51.5762 49.606 51.5762C49.606 50.6787 49.577 49.8983 49.6151 49.1209C49.6455 48.4744 49.2332 48.5368 48.821 48.5307C48.392 48.5246 48.0102 48.5048 48.0421 49.1361C48.0817 49.9105 48.0512 50.6893 48.0512 51.5762C47.3849 51.5762 46.8099 51.5762 46.2349 51.5762C45.3353 51.5732 44.9367 52.0265 45.0392 52.9362C45.0437 52.9818 45.0818 53.0229 45.1578 53.169C45.8561 53.169 46.6076 53.1918 47.3576 53.1613C47.8763 53.1401 48.0862 53.3135 48.0604 53.855C48.0223 54.6233 48.0512 55.3961 48.0512 56.1795H49.6075H49.609Z" fill="black"/>
</svg>