<svg width="32" height="32" viewBox="0 0 32 32" fill="none" xmlns="http://www.w3.org/2000/svg">
<mask id="mask0_514_4170" style="mask-type:alpha" maskUnits="userSpaceOnUse" x="0" y="0" width="32" height="32">
<rect width="32" height="32" fill="#D9D9D9"/>
</mask>
<g mask="url(#mask0_514_4170)">
<path d="M6.66696 5.33322V13.5717V13.5384V26.6666V5.33322ZM9.66699 18.3332H14.3978C14.5636 17.9503 14.7567 17.5943 14.9772 17.2653C15.1977 16.9362 15.4456 16.6255 15.7208 16.3333H9.66699V18.3332ZM9.66699 23.6665H13.708C13.6311 23.3332 13.5802 22.9999 13.5554 22.6666C13.5306 22.3332 13.5319 21.9999 13.5593 21.6666H9.66699V23.6665ZM7.07726 28.6665C6.40375 28.6665 5.83366 28.4332 5.36699 27.9665C4.90033 27.4999 4.66699 26.9298 4.66699 26.2563V5.74352C4.66699 5.07001 4.90033 4.49992 5.36699 4.03325C5.83366 3.56659 6.40375 3.33325 7.07726 3.33325H17.667L24.6669 10.3332V14.0127C24.3473 13.8862 24.0208 13.7901 23.6875 13.7243C23.3541 13.6585 23.014 13.6076 22.667 13.5717V11.3332H16.667V5.33322H7.07726C6.97468 5.33322 6.88065 5.37595 6.79516 5.46142C6.70969 5.54691 6.66696 5.64094 6.66696 5.74352V26.2563C6.66696 26.3588 6.70969 26.4529 6.79516 26.5384C6.88065 26.6238 6.97468 26.6666 7.07726 26.6666H14.9439C15.2054 27.0631 15.4986 27.4294 15.8234 27.7653C16.1481 28.1011 16.5003 28.4016 16.8798 28.6665H7.07726ZM22.0003 25.5384C22.9935 25.5384 23.8315 25.1969 24.5144 24.514C25.1973 23.8311 25.5388 22.9931 25.5388 21.9999C25.5388 21.0067 25.1973 20.1687 24.5144 19.4858C23.8315 18.8029 22.9935 18.4614 22.0003 18.4614C21.0071 18.4614 20.1691 18.8029 19.4862 19.4858C18.8033 20.1687 18.4618 21.0067 18.4618 21.9999C18.4618 22.9931 18.8033 23.8311 19.4862 24.514C20.1691 25.1969 21.0071 25.5384 22.0003 25.5384ZM28.8003 30.1922L25.149 26.5409C24.6994 26.8691 24.2067 27.1174 23.6708 27.2858C23.1349 27.4541 22.5781 27.5383 22.0003 27.5383C20.4619 27.5383 19.1542 26.9999 18.0772 25.923C17.0003 24.846 16.4619 23.5383 16.4619 21.9999C16.4619 20.4614 17.0003 19.1538 18.0772 18.0768C19.1542 16.9999 20.4619 16.4615 22.0003 16.4615C23.5387 16.4615 24.8464 16.9999 25.9234 18.0768C27.0003 19.1538 27.5387 20.4614 27.5387 21.9999C27.5387 22.5777 27.4545 23.1345 27.2862 23.6704C27.1178 24.2063 26.8695 24.699 26.5413 25.1486L30.1926 28.7999L28.8003 30.1922Z" fill="white"/>
</g>
</svg>
