<svg xmlns="http://www.w3.org/2000/svg" width="74" height="74" viewBox="0 0 74 74" fill="none">
  <path d="M66.3084 73.7449H39.3781V71.4996C39.3781 70.5604 39.3781 69.6212 39.3762 68.6821C39.3724 66.0679 39.3686 63.3682 39.3914 60.7047C35.3533 60.3967 31.3456 60.0526 27.6079 59.7275C27.0052 59.6742 26.298 59.5868 25.6135 59.3301C23.3796 58.4917 22.1249 56.1608 22.6933 53.9098C23.2827 51.579 25.4082 50.1056 27.8645 50.328C29.8418 50.5067 31.7943 50.6664 33.8647 50.8337C34.2753 50.866 34.6879 50.9003 35.1024 50.9345C35.0986 50.8888 35.0948 50.8413 35.0929 50.7957C35.0073 49.6284 34.9256 48.5257 34.8609 47.3983C34.8267 46.7956 34.7735 46.172 34.724 45.5693C34.5909 43.9818 34.4522 42.3411 34.5985 40.6985C34.9389 36.8771 38.1557 33.9664 42.0797 33.9284C49.0057 33.8599 55.8595 33.8618 62.449 33.9341C65.0442 33.9626 67.2077 35.2839 68.5423 37.6585C70.9093 41.8677 72.5253 46.4971 73.3466 51.4136C73.7459 53.8034 74.0463 56.6399 73.2459 59.5659C72.2915 63.0545 69.7895 64.9462 66.3084 64.8607V73.743V73.7449ZM41.8497 71.2734H63.8369V62.1781L65.4149 62.3169C65.5442 62.3283 65.6354 62.3359 65.7248 62.3454C68.4644 62.6553 70.145 61.5336 70.8618 58.9157C71.5348 56.4498 71.2629 53.946 70.9093 51.8223C70.1336 47.1872 68.6127 42.8297 66.3883 38.8695C65.7647 37.7593 64.5689 36.4303 62.4224 36.4056C55.8481 36.3353 49.0114 36.3334 42.1025 36.3999C39.4979 36.4246 37.283 38.4095 37.0606 40.9171C36.9332 42.3468 37.0568 43.8107 37.1861 45.3621C37.2374 45.9819 37.2925 46.6226 37.3287 47.2576C37.3914 48.3641 37.4712 49.4554 37.5568 50.6132C37.5948 51.1341 37.6347 51.6607 37.6728 52.1969L37.7735 53.6342L36.3381 53.5144C35.4332 53.4402 34.5434 53.368 33.6651 53.2957C31.5909 53.1265 29.6307 52.9687 27.6421 52.7881C26.4006 52.6741 25.3778 53.3699 25.0888 54.5125C24.8284 55.543 25.4272 56.6171 26.4824 57.0126C26.8854 57.1647 27.3854 57.2236 27.8208 57.2616C31.627 57.5924 35.7164 57.9423 39.8268 58.2559C41.171 58.3586 41.8744 59.1267 41.863 60.4784C41.8402 63.2085 41.844 65.9881 41.8459 68.6744C41.8459 69.5395 41.8478 70.4045 41.8478 71.2696L41.8497 71.2734Z" fill="black"/>
  <path d="M37.148 10.1351C37.148 12.1029 37.148 13.9698 37.148 15.8349C37.148 15.9661 37.148 16.0992 37.148 16.2304C37.1423 17.0935 36.8838 17.4718 36.302 17.4604C35.726 17.449 35.4769 17.0783 35.4769 16.2037C35.4731 14.2246 35.4769 12.2455 35.4769 10.1713C34.5225 10.1713 33.5871 10.1504 32.6517 10.1789C32.1764 10.1941 31.8761 10.0743 31.5738 9.65225C29.2144 6.3708 24.4652 6.41643 22.1496 9.72639C21.9214 10.0515 21.7009 10.1941 21.2978 10.1808C20.332 10.1485 19.3643 10.1713 18.2845 10.1713C18.2845 10.407 18.2845 10.6371 18.2845 10.8671C18.2845 12.7151 18.2902 14.563 18.2807 16.411C18.2769 17.2095 17.8282 17.6087 17.1875 17.4091C16.6533 17.2437 16.6209 16.7893 16.619 16.3387C16.6152 14.5136 16.619 12.6865 16.619 10.8614C16.619 10.6485 16.619 10.4355 16.619 10.1504C15.4327 10.1504 14.3091 10.0819 13.2026 10.1865C12.8186 10.2226 12.3984 10.6257 12.1303 10.966C11.7216 11.4888 11.2672 11.7283 10.6075 11.6751C10.0828 11.6314 9.55042 11.6827 9.02379 11.6599C8.26902 11.6276 7.86597 11.2626 7.85456 10.5249C7.83175 8.98493 7.82794 7.44497 7.86026 5.90501C7.87928 5.00384 8.49716 4.40307 9.40403 4.33463C9.81849 4.30421 10.2405 4.30611 10.6531 4.34794C11.4649 4.43159 12.0619 5.07229 12.0885 5.8898C12.1132 6.61225 12.0942 7.3385 12.0942 8.22826C13.2254 8.1446 14.33 8.18073 15.3814 7.95829C17.6514 7.47919 19.9252 6.97157 22.1382 6.28524C25.4748 5.251 28.7315 5.33275 32.03 6.41262C34.4902 7.21683 36.9807 7.93547 39.5892 8.10468C40.2432 8.14651 40.901 8.16742 41.6577 8.20164C41.6577 7.4887 41.6539 6.83849 41.6577 6.18828C41.6653 5.02856 42.2451 4.40117 43.4086 4.31562C43.7357 4.2909 44.0684 4.30231 44.3954 4.33463C45.2965 4.42398 45.8973 5.02476 45.9182 5.93543C45.9524 7.42976 45.9581 8.92789 45.9315 10.4222C45.9163 11.3025 45.5418 11.6276 44.652 11.658C44.3003 11.6694 43.9448 11.6333 43.5969 11.6675C42.7014 11.7569 42.0037 11.5515 41.4485 10.7359C41.2166 10.3956 40.6063 10.196 40.1481 10.1561C39.1899 10.0686 38.2203 10.1294 37.1499 10.1294L37.148 10.1351Z" fill="black"/>
  <path d="M51.6046 32.6414H51.5837C49.4335 32.6357 47.3992 31.7745 45.8535 30.2193C44.3003 28.6565 43.4504 26.6014 43.4618 24.434C43.4828 19.9909 47.133 16.3882 51.6084 16.3882C51.6198 16.3882 51.6312 16.3882 51.6445 16.3882C56.1028 16.4072 59.7246 20.0575 59.7208 24.5272C59.7189 26.6717 58.8615 28.706 57.3082 30.2535C55.7625 31.7935 53.7378 32.6414 51.6065 32.6414H51.6046ZM51.6084 18.8597C48.4905 18.8597 45.9467 21.3598 45.9334 24.4454C45.9258 25.9512 46.5209 27.3827 47.6083 28.4778C48.6882 29.5653 50.1027 30.1661 51.5913 30.1699H51.6065C53.0799 30.1699 54.4849 29.5786 55.5648 28.5025C56.6504 27.4208 57.2492 26.0082 57.2511 24.5253C57.2549 21.4149 54.7359 18.873 51.6369 18.8597C51.6293 18.8597 51.6198 18.8597 51.6122 18.8597H51.6084Z" fill="black"/>
  <path d="M31.5015 12.9909C31.5015 15.5575 29.395 17.6374 26.8284 17.6032C24.315 17.5708 22.2693 15.5157 22.256 13.0118C22.2427 10.4965 24.3264 8.32918 26.8379 8.3577C29.703 8.39002 31.5281 10.6543 31.5015 12.9909ZM26.8816 15.5727C28.2942 15.5708 29.4691 14.432 29.49 13.0422C29.5128 11.5897 28.3303 10.4091 26.855 10.411C25.4538 10.4129 24.2903 11.5764 24.2941 12.9681C24.2979 14.4092 25.4557 15.5746 26.8816 15.5727Z" fill="black"/>
  <path d="M16.8452 6.67498C17.9156 5.07988 17.6761 3.9905 15.9441 3.07793C14.1341 2.12544 12.1626 1.85167 10.1417 1.82885C8.37165 1.80794 6.62446 1.99045 4.97613 2.65587C4.2784 2.93725 3.59397 3.3422 3.02362 3.8308C2.2042 4.53044 2.22512 5.47913 2.97038 6.26242C3.78789 7.12366 4.86777 7.49249 5.97426 7.80428C6.21761 7.87273 6.44955 7.97349 6.64538 8.1541C4.6035 7.85942 2.66999 7.30427 1.32015 5.59891C0.679453 4.7909 0.728883 3.83461 1.34297 2.96766C2.06161 1.95433 3.10156 1.36687 4.23467 0.986628C8.22146 -0.351807 12.214 -0.370819 16.1456 1.19006C16.9194 1.49805 17.657 2.01707 18.2673 2.59123C19.3396 3.60266 19.3396 4.95631 18.2958 5.96584C17.9289 6.32136 17.3357 6.44493 16.8452 6.67498Z" fill="black"/>
  <path d="M47.0627 8.01708C47.3155 7.94293 47.5665 7.86689 47.8213 7.79464C48.884 7.49425 49.9202 7.13493 50.7225 6.32692C51.5533 5.4923 51.5438 4.53601 50.6806 3.7318C49.6426 2.7641 48.3232 2.37816 46.9847 2.1253C44.1995 1.60248 41.4352 1.68423 38.7393 2.65383C38.3286 2.80212 37.9332 3.00555 37.5606 3.23179C36.0434 4.15007 35.8723 5.14058 36.9712 6.50944C35.7468 6.42008 35.3191 6.1273 34.8951 5.11017C34.4939 4.15197 34.7829 3.33826 35.4407 2.63482C36.6005 1.39525 38.1271 0.838199 39.7298 0.488381C43.1272 -0.251181 46.5056 -0.205552 49.7605 1.10817C50.6844 1.4808 51.559 2.1291 52.2738 2.83635C53.175 3.7261 53.0856 4.90484 52.232 5.85543C50.867 7.37258 49.0285 7.87449 47.1463 8.26614C47.1197 8.18438 47.0912 8.10263 47.0646 8.02088L47.0627 8.01708Z" fill="black"/>
  <path d="M27.4634 42.6796C26.7866 40.4457 26.1212 38.2822 25.4843 36.1091C25.4006 35.8258 25.4728 35.4969 25.4728 35.1908C25.623 35.1661 25.7713 35.1414 25.9215 35.1167C26.6782 37.5217 27.4349 39.9267 28.2087 42.3868C29.3227 41.9286 30.3608 41.4762 31.4179 41.0731C32.5396 40.6453 32.9369 40.8716 33.032 42.0389C33.2335 44.52 33.3856 47.0067 33.5624 49.5258C30.2809 49.6969 27.0946 48.4706 23.7808 49.4726C23.3606 48.4497 22.8663 47.3965 22.5013 46.2995C22.2332 45.4953 22.7522 44.6588 23.6572 44.2652C24.8949 43.7272 26.1497 43.2234 27.4653 42.6758L27.4634 42.6796Z" fill="black"/>
  <path d="M48.5704 1.16333C50.0628 2.0759 50.0837 3.11395 48.7129 3.93146C48.2338 4.21664 47.6939 4.39915 47.0798 4.67482C47.0798 4.18241 47.0475 3.81358 47.095 3.45426C47.114 3.30787 47.2871 3.15197 47.4277 3.05691C47.6616 2.89911 47.9354 2.80215 48.1768 2.65576C48.711 2.33446 48.9658 1.90289 48.5685 1.16333H48.5704Z" fill="black"/>
  <path d="M6.63398 7.32528C6.03511 7.042 5.46095 6.83287 4.95333 6.51918C3.68714 5.73779 3.71756 4.75297 5.07501 3.91455C4.77272 4.78529 5.24802 5.28341 5.90393 5.49824C6.6701 5.7492 6.75946 6.2302 6.6701 6.8823C6.65489 6.98877 6.65109 7.09524 6.63398 7.32528Z" fill="black"/>
  <path d="M13.3224 6.95444C13.1703 6.2472 13.2577 5.78902 14.0182 5.50574C14.8699 5.18824 15.0353 4.75287 14.8965 4C16.0525 4.43347 16.2635 5.52095 15.3205 6.29473C14.7578 6.75672 14.1399 7.12745 13.3224 6.95444Z" fill="black"/>
  <path d="M38.8952 3.93726C38.6024 4.81941 39.1081 5.30231 39.7754 5.52475C40.5873 5.79472 40.5378 6.31944 40.4447 6.95824C39.4637 7.11984 38.7469 6.66356 38.167 6.01715C37.5358 5.31181 37.8267 4.50951 38.8952 3.93726Z" fill="black"/>
  <path d="M25.4215 12.8957C25.893 13.2303 26.4386 13.3767 26.7713 12.8862C27.0033 12.5421 26.9671 12.0173 27.0565 11.5439C27.7371 11.5915 28.2676 12.0402 28.3968 12.8329C28.4995 13.4641 28.125 14.0839 27.6002 14.3102C27.3132 14.0421 27.0831 13.6562 26.8208 13.6333C26.5546 13.6086 26.2561 13.9413 25.8492 14.1942C25.6895 13.8862 25.4766 13.4717 25.2618 13.0573C25.315 13.0041 25.3663 12.9489 25.4196 12.8957H25.4215Z" fill="black"/>
</svg>