<svg xmlns="http://www.w3.org/2000/svg" width="71" height="75" viewBox="0 0 71 75" fill="none">
  <path d="M17.455 69.2004C19.8745 69.2004 22.294 69.2004 24.7146 69.2004C25.4854 69.2004 25.7959 69.5065 25.7982 70.2683C25.8004 71.4781 25.8027 72.689 25.7982 73.8987C25.7959 74.6784 25.472 74.9957 24.6901 74.9957C19.8912 74.9979 15.0913 75.0001 10.2925 75.0001C9.45915 75.0001 9.17319 74.7153 9.16984 73.8987C9.16537 72.7147 9.15755 71.5306 9.15532 70.3465C9.15308 69.492 9.4357 69.2049 10.2768 69.2049C12.6695 69.2049 15.0634 69.2049 17.4561 69.2049C17.4561 69.2038 17.4561 69.2027 17.4561 69.2016L17.455 69.2004Z" fill="black"/>
  <path d="M13.2705 68.3605H11.7524C11.7201 68.3113 11.6932 68.289 11.6944 68.27C11.7457 67.3406 11.233 66.7285 10.5382 66.2247C9.23686 65.2808 7.91875 64.3592 6.63303 63.3929C5.73939 62.7216 4.8815 62.0011 4.02137 61.2873C3.06853 60.4965 2.60943 59.442 2.4765 58.2367C2.15367 55.3122 1.78728 52.3912 1.5393 49.4589C1.2053 45.5102 0.957317 41.5536 0.693694 37.5992C0.614384 36.4118 1.17626 35.4824 2.14027 35.058C3.57344 34.4257 5.21438 35.1775 5.59864 36.6967C6.1661 38.9397 6.68329 41.1961 7.22059 43.447C7.22953 43.4827 7.22059 43.5218 7.22059 43.5497C6.73803 43.7251 6.26217 43.8994 5.74944 44.0859C5.53609 43.2079 5.3205 42.3266 5.10826 41.4441C4.77091 40.0456 4.43915 38.6448 4.09845 37.2463C3.94877 36.6319 3.53211 36.3392 2.98364 36.442C2.49996 36.5325 2.21734 36.9804 2.25868 37.5557C2.38378 39.3016 2.49437 41.0487 2.62283 42.7946C2.81608 45.4387 2.98587 48.0838 3.22715 50.7234C3.44274 53.0781 3.7678 55.4228 3.99568 57.7764C4.10739 58.9326 4.61341 59.8329 5.51486 60.5143C6.91005 61.5688 8.33429 62.5842 9.72836 63.6398C10.5985 64.2989 11.4464 64.9881 12.283 65.6885C12.9265 66.2269 13.1275 66.9865 13.2158 67.7841C13.2359 67.9617 13.2493 68.1415 13.2694 68.3616L13.2705 68.3605Z" fill="black"/>
  <path d="M22.2404 68.3805C22.2728 67.2601 22.38 66.19 22.3197 65.1299C22.1521 62.2033 21.1379 59.6129 19.0289 57.5217C18.6033 57.0995 18.1029 56.7409 17.598 56.4114C14.1843 54.1795 14.7953 54.6219 12.5981 51.6517C11.3738 49.9962 10.1841 48.3151 8.97548 46.6495C8.35552 45.795 7.36246 45.7146 6.71346 46.4563C6.29792 46.9321 6.27223 47.6169 6.68553 48.1966C7.35799 49.1394 8.04945 50.0688 8.73196 51.0038C10.1584 52.9575 11.5849 54.9123 13.0091 56.8672C13.342 57.324 13.3018 57.8222 12.9186 58.0937C12.5243 58.3729 12.0686 58.2679 11.7256 57.7988C9.63007 54.9313 7.52779 52.0683 5.44673 49.1908C4.17218 47.4281 4.89826 45.1393 6.90783 44.4992C8.112 44.1161 9.43123 44.5785 10.2132 45.6565C11.8016 47.8425 13.4202 50.0074 14.9684 52.2225C15.728 53.3094 16.7713 54.012 17.8593 54.6688C19.6254 55.7356 21.0686 57.1084 22.1041 58.9002C23.1106 60.6417 23.7294 62.5183 23.859 64.52C23.935 65.6952 23.821 66.8815 23.7998 68.0622C23.7953 68.3113 23.6892 68.3951 23.4423 68.385C23.0335 68.3683 22.6224 68.3805 22.2426 68.3805H22.2404Z" fill="black"/>
  <path d="M54.0025 69.2184C56.4019 69.2184 58.8013 69.2184 61.2007 69.2184C62.0363 69.2184 62.3178 69.4955 62.3178 70.3176C62.3178 71.5497 62.3211 72.7829 62.3122 74.015C62.3077 74.6841 61.9871 74.998 61.3102 74.998C57.4206 74.9947 53.5322 74.9857 49.6426 74.9813C48.7066 74.9813 47.7705 74.9947 46.8333 74.9947C46.0357 74.9947 45.733 74.6908 45.733 73.9089C45.733 72.6891 45.7319 71.4693 45.733 70.2495C45.733 69.5368 46.0525 69.2162 46.7618 69.2151C49.1746 69.2151 51.5885 69.2151 54.0014 69.2151V69.2184H54.0025Z" fill="black"/>
  <path d="M59.829 68.3828H58.226C58.3031 67.3149 58.4606 66.3062 59.323 65.5924C60.201 64.8663 61.1013 64.1659 62.0139 63.4834C63.1745 62.6144 64.3619 61.7822 65.527 60.9187C65.8353 60.6908 66.09 60.3926 66.3905 60.1524C67.2864 59.4386 67.4137 58.402 67.5232 57.3844C67.8572 54.2734 68.1934 51.1624 68.4559 48.0447C68.7486 44.5651 68.9597 41.0788 69.2066 37.5959C69.2446 37.0552 68.9363 36.6207 68.4582 36.5414C67.9387 36.4543 67.5142 36.7347 67.378 37.2921C66.8597 39.4223 66.3514 41.5558 65.8398 43.6871C65.8018 43.8469 65.7583 44.0044 65.7169 44.1641C65.221 43.9854 64.744 43.8134 64.2346 43.6291C64.4871 42.5612 64.7429 41.4665 65.0042 40.3729C65.2813 39.2123 65.5605 38.0528 65.8443 36.8944C66.1537 35.631 67.3579 34.7709 68.5598 34.9463C69.9371 35.1473 70.8553 36.2119 70.7704 37.5937C70.5895 40.5281 70.3817 43.4604 70.1728 46.3926C70.0477 48.1464 69.9237 49.9013 69.7584 51.6528C69.5193 54.1918 69.3429 56.7409 68.7821 59.2398C68.6425 59.8609 68.3353 60.3736 67.9142 60.8394C66.748 62.1273 65.3204 63.0891 63.9185 64.0866C62.9567 64.7714 62.0039 65.4673 61.0499 66.1632C60.306 66.7061 59.7217 67.3439 59.8301 68.3828H59.829Z" fill="black"/>
  <path d="M49.3276 68.394C48.8641 68.394 48.4172 68.4052 47.9715 68.3839C47.8889 68.3795 47.7537 68.2499 47.7414 68.1639C47.3114 65.0931 47.728 62.1598 49.1679 59.3873C50.2224 57.3554 51.7829 55.8261 53.7344 54.6655C54.1309 54.4298 54.5018 54.1517 54.895 53.9082C55.9472 53.258 56.5605 52.2147 57.2642 51.2574C58.5935 49.4478 59.9038 47.6237 61.2141 45.8006C61.9502 44.7763 62.9455 44.3083 64.1821 44.5004C65.3729 44.6858 66.1738 45.4041 66.538 46.5636C66.8206 47.465 66.6843 48.3274 66.1358 49.0881C64.0402 51.9902 61.9268 54.88 59.8189 57.7754C59.7809 57.8268 59.7396 57.877 59.6994 57.9262C59.3877 58.3127 58.9387 58.4009 58.5846 58.1451C58.216 57.8793 58.1434 57.3978 58.4383 56.9845C58.9968 56.2003 59.5698 55.4273 60.1373 54.6499C61.6654 52.5554 63.1768 50.4487 64.7295 48.3732C65.498 47.3455 64.8881 46.2273 63.9587 46.0587C63.3499 45.9481 62.8863 46.1994 62.5356 46.6876C61.8084 47.6974 61.0845 48.7105 60.3518 49.7159C59.3766 51.0541 58.3947 52.3867 57.415 53.7205C56.7214 54.6644 55.7473 55.2732 54.781 55.8797C53.3445 56.7801 52.0175 57.7809 51.0881 59.2443C49.7018 61.4259 49.0942 63.8074 49.1768 66.3755C49.1981 67.0279 49.274 67.678 49.3299 68.394H49.3276Z" fill="black"/>
  <path d="M27.925 0.951172C28.2456 0.951172 28.5651 0.951172 28.8857 0.951172C30.7031 2.52621 30.7109 2.86802 28.9561 4.6229C26.7812 6.79667 24.6052 8.96821 22.3577 11.2135C24.7001 13.1918 26.9822 15.1187 28.908 16.7451C33.6354 15.8604 37.9505 15.8168 42.5237 16.7786C44.5478 15.0662 46.8031 13.1582 49.0774 11.2336C48.8752 11.0135 48.7468 10.8627 48.6071 10.7231C46.344 8.45772 44.0898 6.18341 41.811 3.9348C41.0213 3.1551 41.0068 2.43126 41.7965 1.67278C42.0523 1.42815 42.3159 1.19134 42.5762 0.951172C42.8968 0.951172 43.2163 0.951172 43.5369 0.951172C45.4738 2.34078 47.3683 3.79629 49.3634 5.09765C50.7921 6.02926 51.9337 7.12285 52.4163 8.77943C52.7938 10.0774 53.6171 10.8705 54.895 11.2515C56.4633 11.7184 57.6619 12.6779 58.388 14.1379C58.5466 14.4574 58.3444 14.9578 58.3087 15.3745C57.9356 15.2762 57.3436 15.2918 57.2229 15.0617C56.3416 13.3727 54.6582 12.9047 53.1412 12.1283C52.4933 11.7966 51.7941 11.1721 51.5517 10.5187C50.763 8.40187 49.5075 6.78215 47.5001 5.72319C46.869 5.39031 46.3217 4.90328 45.7296 4.49444C44.8863 3.91134 44.0384 3.33606 43.1928 2.75632L43.3503 2.6502C49.2372 8.54038 55.1229 14.4317 61.0097 20.3219C60.4054 19.7175 59.839 19.0339 59.4358 18.2643C59.266 17.9403 59.4414 17.4365 59.4592 17.0132C59.8547 17.1249 60.4087 17.1104 60.6187 17.3717C61.3906 18.3335 62.0485 19.3858 62.7501 20.4045V20.8849C61.4688 22.7961 60.7561 22.871 59.1498 21.2658C57.8194 19.9365 56.479 18.6184 55.1664 17.2723C54.2862 16.3698 53.4473 15.4281 52.5425 14.4529C49.4036 18.1682 46.4591 21.6433 43.5346 25.1341C43.347 25.3586 43.2196 25.6993 43.2051 25.9931C43.0733 28.5511 42.87 31.1136 45.2929 32.9456C45.9765 33.4628 46.4367 34.2738 47.0053 34.944C48.806 37.0709 50.61 39.1944 52.4598 41.3748C54.9162 38.9151 57.281 36.5347 59.6603 34.1676C60.5562 33.2762 61.2342 33.2964 62.0966 34.2112C62.339 34.4692 62.5356 34.7709 62.7523 35.0535V35.5338C61.4398 37.4384 60.0569 39.2982 58.837 41.2587C57.7368 43.0258 56.3583 44.3506 54.3365 44.9438C53.4696 45.1985 52.9245 45.7615 52.6631 46.6294C52.0577 48.639 50.7373 50.0196 48.9724 51.13C47.0958 52.3107 45.3442 53.6925 43.5391 54.9871H42.5784C40.7331 53.373 40.7241 53.0982 42.4913 51.3366C44.6729 49.1629 46.8601 46.9947 49.1254 44.745C46.7204 42.7108 44.3791 40.7225 42.0221 38.7509C41.8713 38.6247 41.6033 38.5945 41.3899 38.5945C37.6255 38.5889 33.861 38.5923 30.0966 38.6023C29.8821 38.6023 29.6095 38.6146 29.4621 38.7386C27.104 40.7102 24.7616 42.6996 22.389 44.7092C22.6716 45.0075 22.8838 45.2409 23.1061 45.4643C25.2553 47.6158 27.4112 49.7594 29.5537 51.9175C30.4976 52.8681 30.4752 53.5417 29.5112 54.4543C29.3135 54.642 29.0968 54.8095 28.889 54.986H27.9284C26.2886 53.802 24.6253 52.6492 23.0301 51.4081C22.7263 51.1713 22.6939 50.586 22.5364 50.1615C22.9676 50.1448 23.4077 50.0699 23.8266 50.1336C24.0746 50.1716 24.2879 50.4296 24.518 50.5893C25.7691 51.4584 27.0202 52.3286 28.173 53.1295C22.3432 47.2963 16.4496 41.3983 10.5673 35.5115C11.8809 37.3959 13.1599 39.3552 14.5808 41.2062C15.1572 41.9568 15.9503 42.7443 16.8082 43.0359C18.8401 43.7262 20.1113 44.9985 20.6788 47.0126C20.8575 47.6482 21.8036 48.4658 20.7 48.9361C19.6589 49.3796 19.4656 48.2502 19.278 47.6035C18.7854 45.9067 17.6337 45.0276 16.0598 44.4154C15.2421 44.0982 14.3674 43.5709 13.8547 42.8873C12.063 40.4946 10.4176 37.9924 8.71631 35.5327C8.71631 35.3729 8.71631 35.2121 8.71631 35.0523C9.79203 33.4829 10.6198 32.7557 12.3311 34.6625C13.4515 35.9102 14.7126 37.0318 15.8755 38.2437C16.8864 39.2982 17.847 40.4008 18.877 41.5346C20.3883 39.7573 21.664 38.2761 22.9184 36.7759C24.7124 34.6323 26.4829 32.4686 28.2825 30.3306C28.5316 30.0346 28.8935 29.8313 29.2029 29.5855C29.4196 29.9687 29.8028 30.344 29.8218 30.7361C29.8955 32.2519 29.8419 33.7744 29.8542 35.2936C29.8676 36.9011 30.6607 37.5445 32.4524 37.2898C32.4524 36.643 32.439 35.9728 32.4547 35.3037C32.5027 33.3444 33.5918 32.3703 35.7187 32.3692C37.8567 32.3681 38.9614 33.3354 39.0139 35.2758C39.0329 35.9717 39.0173 36.6687 39.0173 37.3456C40.9386 37.4618 41.6144 36.8608 41.6167 35.202C41.6222 30.0826 41.6234 24.9632 41.6167 19.8438C41.6144 18.3525 41.0079 17.7504 39.5077 17.7437C37.0278 17.7326 34.548 17.7348 32.0693 17.7426C30.4227 17.7471 29.8586 18.3212 29.8542 19.9789C29.8486 22.1382 29.8799 24.2997 29.8184 26.4567C29.8095 26.7717 29.3783 27.0755 29.1426 27.3838C28.86 27.1191 28.4914 26.9024 28.3138 26.5807C27.9295 25.8825 27.753 25.0503 27.2928 24.417C26.4248 23.224 25.4217 22.1281 24.4667 20.9999C22.6671 18.8731 20.862 16.7496 19.03 14.5914C18.7161 14.8874 18.4815 15.0986 18.2592 15.322C16.11 17.4712 13.9675 19.6271 11.8105 21.7684C10.9147 22.6587 10.2321 22.6397 9.37313 21.7293C9.12962 21.4702 8.93302 21.1675 8.71519 20.8837C8.71519 20.724 8.71519 20.5631 8.71519 20.4034C10.0523 18.4676 11.4676 16.582 12.7019 14.5825C13.7575 12.8723 15.1013 11.6279 17.0227 11.0403C17.9733 10.7499 18.5631 10.1545 18.8535 9.19832C19.4355 7.27477 20.7078 5.95107 22.4024 4.88094C24.3069 3.67788 26.0875 2.2704 27.925 0.951172ZM28.0993 33.045C25.4039 36.2398 22.7889 39.3396 20.1705 42.4438C20.5469 42.884 20.8485 43.2369 21.1993 43.6469C23.6423 41.5893 25.9601 39.6434 28.2657 37.6841C28.4277 37.5467 28.6098 37.2898 28.5919 37.1077C28.4634 35.8131 28.2847 34.524 28.0993 33.045ZM43.452 33.1523C43.3626 33.1701 43.2721 33.188 43.1828 33.2059C43.1828 33.9509 43.3805 34.7653 43.1448 35.4266C42.5137 37.1926 43.4866 38.055 44.7064 38.9989C46.5864 40.4533 48.3636 42.0406 50.1017 43.5028C50.6044 43.1286 50.9786 42.8504 51.3841 42.5488C48.6507 39.3116 46.0525 36.2319 43.4531 33.1534L43.452 33.1523ZM28.0177 22.7995C28.1395 22.7727 28.2613 22.747 28.383 22.7202C28.383 21.3764 28.3953 20.0314 28.3696 18.6887C28.3652 18.4843 28.2322 18.2241 28.0736 18.0889C25.8306 16.1843 23.5741 14.2976 21.3255 12.4121C20.8664 12.774 20.4799 13.0789 20.0778 13.3962C22.8302 16.6557 25.424 19.7276 28.0177 22.7995ZM43.0789 22.7425C43.1962 22.7671 43.3135 22.7905 43.4307 22.8151C46.0547 19.7041 48.6797 16.5943 51.335 13.4464C50.896 13.0276 50.562 12.7081 50.1978 12.3596C47.8878 14.2976 45.657 16.1631 43.4386 18.0431C43.2744 18.1827 43.1001 18.4229 43.0956 18.6206C43.0655 19.9946 43.08 21.3697 43.08 22.7436L43.0789 22.7425ZM43.1716 53.0949C43.1839 53.1306 43.195 53.1664 43.2073 53.2021C44.8594 52.0493 46.4658 50.8195 48.1793 49.765C49.6415 48.8657 50.7184 47.7286 51.1964 46.0854C51.6008 44.6936 52.4978 43.8591 53.8584 43.4536C55.4647 42.9756 56.5694 41.9289 57.4508 40.5091C58.5265 38.7755 59.7597 37.1412 60.9259 35.4634C60.8969 35.45 60.8689 35.4366 60.8399 35.4232C54.9508 41.3134 49.0607 47.2047 43.1716 53.0949ZM11.1291 19.6025C16.3401 14.4071 22.2393 8.52474 27.5464 3.23218C26.7801 3.76836 25.3636 4.87871 23.8322 5.79692C22.0147 6.88604 20.633 8.26447 20.0365 10.3332C19.7449 11.343 19.0546 11.8893 18.1062 12.2791C17.1221 12.6835 15.9246 13.0186 15.3046 13.7782C13.5799 15.8917 12.1054 18.2106 11.128 19.6025H11.1291ZM34.0219 37.3211H37.4411C37.6735 34.4949 37.3451 33.8593 35.7231 33.8627C34.1112 33.866 33.7772 34.524 34.023 37.3211H34.0219Z" fill="black"/>
  <path d="M37.0982 23.6451C36.6447 23.9735 36.1543 24.5979 35.7466 24.5487C35.2998 24.4951 34.7077 23.8662 34.605 23.3948C34.5413 23.1033 35.2439 22.3683 35.6539 22.3247C36.0984 22.2778 36.6022 22.805 37.0803 23.081C37.0859 23.2686 37.0926 23.4563 37.0982 23.6439V23.6451Z" fill="black"/>
  <path d="M35.7287 24.9341C36.5554 24.9341 37.2256 24.264 37.2256 23.4373C37.2256 22.6106 36.5554 21.9404 35.7287 21.9404C34.902 21.9404 34.2319 22.6106 34.2319 23.4373C34.2319 24.264 34.902 24.9341 35.7287 24.9341Z" fill="black"/>
</svg>