<svg width="163" height="49" viewBox="0 0 163 49" fill="none" xmlns="http://www.w3.org/2000/svg">
<g clip-path="url(#clip0_6647_11173)">
<path d="M156.239 47.8484H6.76794C3.48105 47.8484 0.789062 45.2197 0.789062 42.0099V6.97883C0.789062 3.76911 3.48105 1.14032 6.76794 1.14032H156.239C159.527 1.14032 162.219 3.76911 162.219 6.97883V42.0099C162.219 45.2197 159.527 47.8484 156.239 47.8484Z" fill="#101010"/>
<path d="M13.2791 9.94164C12.9279 10.3007 12.7246 10.8597 12.7246 11.5837V37.4074C12.7246 38.1314 12.9279 38.6905 13.2791 39.0496L13.3659 39.1283L28.1845 24.6634V24.3219L13.3659 9.85699L13.2791 9.94164Z" fill="url(#paint0_linear_6647_11173)"/>
<path d="M33.1119 29.4909L28.1777 24.6669V24.3253L33.1179 19.5013L33.2284 19.564L39.0787 22.8146C40.7484 23.7371 40.7484 25.2551 39.0787 26.1834L33.2284 29.4281L33.1119 29.4909Z" fill="url(#paint1_linear_6647_11173)"/>
<path d="M33.2275 29.4267L28.1768 24.4946L13.2715 39.0515C13.826 39.6208 14.7303 39.6893 15.7586 39.1201L33.2275 29.4267Z" fill="url(#paint2_linear_6647_11173)"/>
<path d="M33.2275 19.5617L15.7586 9.86837C14.7303 9.30493 13.826 9.37353 13.2715 9.94277L28.1768 24.4938L33.2275 19.5617Z" fill="url(#paint3_linear_6647_11173)"/>
<path d="M57.4984 13.1021C57.4984 14.077 57.1995 14.858 56.6106 15.4403C55.9334 16.1308 55.0516 16.4782 53.9709 16.4782C52.9381 16.4782 52.0562 16.1249 51.3327 15.4287C50.6078 14.7223 50.2461 13.8552 50.2461 12.8174C50.2461 11.7796 50.6078 10.9126 51.3327 10.212C52.0562 9.5099 52.9381 9.15668 53.9709 9.15668C54.4851 9.15668 54.9754 9.26031 55.4432 9.45298C55.9095 9.64711 56.2892 9.90982 56.5643 10.2339L55.9394 10.8499C55.4596 10.2967 54.8065 10.0237 53.9709 10.0237C53.2176 10.0237 52.5644 10.2806 52.0098 10.7987C51.4613 11.3183 51.1862 11.9913 51.1862 12.8174C51.1862 13.6436 51.4613 14.3223 52.0098 14.8419C52.5644 15.3542 53.2176 15.617 53.9709 15.617C54.7706 15.617 55.4432 15.3542 55.9739 14.8361C56.3236 14.4931 56.5224 14.0202 56.5747 13.4158H53.9709V12.5722H57.4446C57.4865 12.7546 57.4984 12.9312 57.4984 13.1021Z" fill="white" stroke="white" stroke-width="0.166074" stroke-miterlimit="10"/>
<path d="M63.0031 10.1777H59.7401V12.3963H62.6817V13.24H59.7401V15.4586H63.0031V16.3183H58.8164V9.31793H63.0031V10.1777Z" fill="white" stroke="white" stroke-width="0.166074" stroke-miterlimit="10"/>
<path d="M66.9037 16.3183H65.9799V10.1777H63.9785V9.31793H68.9066V10.1777H66.9037V16.3183Z" fill="white" stroke="white" stroke-width="0.166074" stroke-miterlimit="10"/>
<path d="M72.4648 16.3183V9.31793H73.387V16.3183H72.4648Z" fill="white" stroke="white" stroke-width="0.166074" stroke-miterlimit="10"/>
<path d="M77.472 16.3183H76.5558V10.1777H74.5469V9.31793H79.481V10.1777H77.472V16.3183Z" fill="white" stroke="white" stroke-width="0.166074" stroke-miterlimit="10"/>
<path d="M88.8201 15.4186C88.1131 16.1265 87.2372 16.4798 86.1924 16.4798C85.1417 16.4798 84.2658 16.1265 83.5588 15.4186C82.8533 14.7122 82.502 13.8452 82.502 12.8191C82.502 11.793 82.8533 10.9259 83.5588 10.2195C84.2658 9.51155 85.1417 9.15833 86.1924 9.15833C87.2312 9.15833 88.1072 9.51155 88.8142 10.2253C89.5257 10.9376 89.877 11.7988 89.877 12.8191C89.877 13.8452 89.5256 14.7122 88.8201 15.4186ZM84.2419 14.8319C84.774 15.3559 85.4212 15.6187 86.1924 15.6187C86.9577 15.6187 87.6109 15.3559 88.1371 14.8319C88.6677 14.3079 88.9367 13.635 88.9367 12.8191C88.9367 12.0032 88.6677 11.3302 88.1371 10.8062C87.6109 10.2823 86.9577 10.0195 86.1924 10.0195C85.4212 10.0195 84.774 10.2823 84.2419 10.8062C83.7112 11.3302 83.4422 12.0032 83.4422 12.8191C83.4422 13.635 83.7112 14.3079 84.2419 14.8319Z" fill="white" stroke="white" stroke-width="0.166074" stroke-miterlimit="10"/>
<path d="M91.168 16.3183V9.31793H92.289L95.7744 14.7623H95.815L95.7744 13.4166V9.31793H96.6965V16.3183H95.7347L92.0842 10.6053H92.0439L92.0842 11.9569V16.3183H91.168Z" fill="white" stroke="white" stroke-width="0.166074" stroke-miterlimit="10"/>
<path d="M82.2745 26.5435C79.466 26.5435 77.1716 28.6308 77.1716 31.5107C77.1716 34.3672 79.466 36.4763 82.2745 36.4763C85.0891 36.4763 87.3835 34.3672 87.3835 31.5107C87.3835 28.6308 85.0891 26.5435 82.2745 26.5435ZM82.2745 34.5204C80.7335 34.5204 79.4076 33.2783 79.4076 31.5107C79.4076 29.7198 80.7335 28.4995 82.2745 28.4995C83.8156 28.4995 85.1473 29.7198 85.1473 31.5107C85.1473 33.2783 83.8156 34.5204 82.2745 34.5204ZM71.1404 26.5435C68.3258 26.5435 66.0374 28.6308 66.0374 31.5107C66.0374 34.3672 68.3258 36.4763 71.1404 36.4763C73.9535 36.4763 76.2433 34.3672 76.2433 31.5107C76.2433 28.6308 73.9535 26.5435 71.1404 26.5435ZM71.1404 34.5204C69.5978 34.5204 68.2675 33.2783 68.2675 31.5107C68.2675 29.7198 69.5978 28.4995 71.1404 28.4995C72.6814 28.4995 74.0073 29.7198 74.0073 31.5107C74.0073 33.2783 72.6814 34.5204 71.1404 34.5204ZM57.8912 28.066V30.1766H63.0525C62.9015 31.3559 62.4979 32.223 61.8791 32.8273C61.1257 33.5571 59.9524 34.3672 57.8912 34.3672C54.7149 34.3672 52.2276 31.8639 52.2276 28.7622C52.2276 25.6605 54.7149 23.1572 57.8912 23.1572C59.6086 23.1572 60.8582 23.8126 61.7804 24.6621L63.3036 23.1748C62.0136 21.972 60.2976 21.0481 57.8912 21.0481C53.5356 21.0481 49.875 24.5088 49.875 28.7622C49.875 33.0155 53.5356 36.4763 57.8912 36.4763C60.2453 36.4763 62.0137 35.7232 63.4037 34.3102C64.8282 32.9192 65.2721 30.9633 65.2721 29.384C65.2721 28.8936 65.2302 28.4425 65.1555 28.066H57.8912ZM112.069 29.7022C111.649 28.5914 110.353 26.5435 107.713 26.5435C105.098 26.5435 102.919 28.5564 102.919 31.5107C102.919 34.2928 105.075 36.4763 107.964 36.4763C110.3 36.4763 111.649 35.0853 112.204 34.2752L110.469 33.147C109.891 33.9731 109.103 34.5204 107.964 34.5204C106.833 34.5204 106.021 34.0139 105.501 33.0155L112.303 30.267L112.069 29.7022ZM105.134 31.3559C105.075 29.4409 106.657 28.46 107.789 28.46C108.677 28.46 109.431 28.8936 109.682 29.5139L105.134 31.3559ZM99.6045 36.1742H101.84V21.5779H99.6045V36.1742ZM95.9426 27.6499H95.8679C95.3657 27.0691 94.4076 26.5435 93.1937 26.5435C90.6465 26.5435 88.3176 28.7272 88.3176 31.5268C88.3176 34.3102 90.6465 36.4763 93.1937 36.4763C94.4076 36.4763 95.3657 35.9465 95.8679 35.348H95.9426V36.0604C95.9426 37.9593 94.9032 38.9796 93.2279 38.9796C91.8616 38.9796 91.0141 38.0163 90.6644 37.2062L88.7197 37.9987C89.2802 39.3153 90.7645 40.9355 93.2279 40.9355C95.8494 40.9355 98.062 39.4291 98.062 35.7641V26.8457H95.9426V27.6499ZM93.3848 34.5204C91.8437 34.5204 90.5538 33.2608 90.5538 31.5268C90.5538 29.7766 91.8437 28.4995 93.3848 28.4995C94.9032 28.4995 96.1005 29.7766 96.1005 31.5268C96.1005 33.2608 94.9032 34.5204 93.3848 34.5204ZM122.537 21.5779H117.19V36.1742H119.42V30.6437H122.537C125.015 30.6437 127.444 28.8936 127.444 26.1101C127.444 23.328 125.008 21.5779 122.537 21.5779ZM122.596 28.6134H119.42V23.6083H122.596C124.261 23.6083 125.212 24.9584 125.212 26.1101C125.212 27.2398 124.261 28.6134 122.596 28.6134ZM136.382 26.5158C134.771 26.5158 133.095 27.2106 132.406 28.7505L134.385 29.5606C134.811 28.7505 135.594 28.4878 136.422 28.4878C137.579 28.4878 138.752 29.1666 138.771 30.3649V30.5181C138.367 30.2904 137.503 29.9533 136.44 29.9533C134.308 29.9533 132.136 31.099 132.136 33.2374C132.136 35.1933 133.883 36.453 135.845 36.453C137.346 36.453 138.174 35.7918 138.694 35.0226H138.771V36.1508H140.924V30.5517C140.924 27.9638 138.945 26.5158 136.382 26.5158ZM136.113 34.5146C135.383 34.5146 134.367 34.1613 134.367 33.2783C134.367 32.1486 135.635 31.715 136.732 31.715C137.714 31.715 138.174 31.9267 138.771 32.2054C138.595 33.5571 137.404 34.5146 136.113 34.5146ZM148.771 26.8355L146.208 33.163H146.132L143.482 26.8355H141.076L145.059 35.6779L142.787 40.5983H145.117L151.252 26.8355H148.771ZM128.669 36.1742H130.905V21.5779H128.669V36.1742Z" fill="white"/>
</g>
<defs>
<linearGradient id="paint0_linear_6647_11173" x1="26.8687" y1="37.6764" x2="7.27745" y2="17.6141" gradientUnits="userSpaceOnUse">
<stop stop-color="#00A0FF"/>
<stop offset="0.0066" stop-color="#00A1FF"/>
<stop offset="0.2601" stop-color="#00BEFF"/>
<stop offset="0.5122" stop-color="#00D2FF"/>
<stop offset="0.7604" stop-color="#00DFFF"/>
<stop offset="1" stop-color="#00E3FF"/>
</linearGradient>
<linearGradient id="paint1_linear_6647_11173" x1="41.2528" y1="24.4945" x2="12.3188" y2="24.4945" gradientUnits="userSpaceOnUse">
<stop stop-color="#FFE000"/>
<stop offset="0.4087" stop-color="#FFBD00"/>
<stop offset="0.7754" stop-color="#FFA500"/>
<stop offset="1" stop-color="#FF9C00"/>
</linearGradient>
<linearGradient id="paint2_linear_6647_11173" x1="30.4811" y1="21.8134" x2="3.91363" y2="-5.39271" gradientUnits="userSpaceOnUse">
<stop stop-color="#FF3A44"/>
<stop offset="1" stop-color="#C31162"/>
</linearGradient>
<linearGradient id="paint3_linear_6647_11173" x1="9.51945" y1="47.6421" x2="21.383" y2="35.4934" gradientUnits="userSpaceOnUse">
<stop stop-color="#32A071"/>
<stop offset="0.0685" stop-color="#2DA771"/>
<stop offset="0.4762" stop-color="#15CF74"/>
<stop offset="0.8009" stop-color="#06E775"/>
<stop offset="1" stop-color="#00F076"/>
</linearGradient>
<clipPath id="clip0_6647_11173">
<rect width="162.462" height="48" fill="white" transform="translate(0 0.476318)"/>
</clipPath>
</defs>
</svg>
