<svg width="32" height="32" viewBox="0 0 32 32" fill="none" xmlns="http://www.w3.org/2000/svg">
<mask id="mask0_514_4175" style="mask-type:alpha" maskUnits="userSpaceOnUse" x="0" y="0" width="32" height="32">
<rect width="32" height="32" fill="#D9D9D9"/>
</mask>
<g mask="url(#mask0_514_4175)">
<path d="M16.667 28.1793L16.4619 24.6665H15.3336C12.3661 24.6665 9.84647 23.6306 7.77469 21.5588C5.70289 19.487 4.66699 16.9674 4.66699 13.9999C4.66699 11.0324 5.70289 8.51273 7.77469 6.44095C9.84647 4.36915 12.3661 3.33325 15.3336 3.33325C16.8174 3.33325 18.2041 3.61061 19.4939 4.16532C20.7836 4.72001 21.9131 5.48196 22.8823 6.45119C23.8515 7.42043 24.6135 8.54992 25.1682 9.83965C25.7229 11.1294 26.0003 12.5161 26.0003 13.9999C26.0003 15.5127 25.7644 16.9652 25.2926 18.3576C24.8208 19.7498 24.1725 21.0524 23.3477 22.2652C22.5229 23.478 21.5396 24.5857 20.3977 25.5883C19.2559 26.5908 18.0123 27.4545 16.667 28.1793ZM18.667 24.4666C20.2447 23.1332 21.5281 21.5721 22.517 19.7832C23.5058 17.9943 24.0003 16.0666 24.0003 13.9999C24.0003 11.5777 23.1614 9.52766 21.4836 7.84989C19.8058 6.17211 17.7558 5.33322 15.3336 5.33322C12.9114 5.33322 10.8614 6.17211 9.18363 7.84989C7.50585 9.52766 6.66696 11.5777 6.66696 13.9999C6.66696 16.4221 7.50585 18.4721 9.18363 20.1499C10.8614 21.8277 12.9114 22.6666 15.3336 22.6666H18.667V24.4666ZM15.3388 21.0306C15.6652 21.0306 15.9426 20.9165 16.1708 20.6883C16.399 20.4601 16.5131 20.1828 16.5131 19.8563C16.5131 19.5298 16.399 19.2525 16.1708 19.0243C15.9426 18.7961 15.6652 18.682 15.3388 18.682C15.0123 18.682 14.7349 18.7961 14.5067 19.0243C14.2785 19.2525 14.1644 19.5298 14.1644 19.8563C14.1644 20.1828 14.2785 20.4601 14.5067 20.6883C14.7349 20.9165 15.0123 21.0306 15.3388 21.0306ZM14.5644 16.964H16.1541C16.1712 16.3571 16.2571 15.9076 16.4118 15.6153C16.5665 15.3229 16.9866 14.8341 17.6721 14.1486C18.0635 13.7571 18.3819 13.3452 18.6272 12.9127C18.8725 12.4802 18.9952 12.0016 18.9952 11.4768C18.9952 10.429 18.6375 9.62596 17.9221 9.06785C17.2067 8.50974 16.3524 8.23069 15.3593 8.23069C14.4584 8.23069 13.6982 8.4794 13.0785 8.97682C12.4589 9.47426 12.0157 10.0734 11.749 10.7743L13.2311 11.3537C13.3763 10.9674 13.6131 10.6016 13.9413 10.2563C14.2695 9.911 14.7422 9.73835 15.3593 9.73835C16.0362 9.73835 16.5396 9.92424 16.8695 10.296C17.1995 10.6678 17.3644 11.0751 17.3644 11.5179C17.3644 11.9298 17.2512 12.2879 17.0247 12.5922C16.7982 12.8965 16.5165 13.217 16.1798 13.5538C15.4704 14.1691 15.0238 14.6862 14.8401 15.105C14.6563 15.5238 14.5644 16.1435 14.5644 16.964Z" fill="white"/>
</g>
</svg>
