<svg width="1668" height="757" viewBox="0 0 1668 757" fill="none" xmlns="http://www.w3.org/2000/svg">
<rect width="1668" height="756.389" rx="117.769" fill="#FEA7C9"/>
<path d="M196.712 219.757C210.065 219.757 222.811 219.749 235.558 219.768C237.579 219.771 239.61 219.799 241.618 219.998C244.402 220.274 246.058 221.906 246.289 224.703C246.489 227.118 246.518 229.551 246.519 231.977C246.532 276.489 246.518 321.002 246.554 365.514C246.556 368.456 246.906 371.398 247.175 375.597C250.095 374.137 252.094 373.412 253.79 372.245C268.788 361.927 283.642 351.491 296.963 338.913C314.507 322.348 329.306 303.857 339.7 282.038C347.24 266.208 352.221 249.608 353.497 232.012C353.643 230 353.955 227.989 354.335 226.006C355.309 220.921 356.292 219.877 361.626 219.845C380.037 219.735 398.449 219.726 416.86 219.864C422.242 219.905 423.9 221.424 423.572 226.951C422.973 237.027 422.321 247.17 420.611 257.1C412.656 303.302 390.153 341.516 355.818 373.027C352.247 376.304 348.326 379.199 344.58 382.285C339.76 386.258 339.499 387.722 343.339 392.846C352.439 404.987 361.639 417.054 370.81 429.142C387.318 450.9 403.835 472.651 420.347 494.406C429.276 506.169 438.213 517.927 447.117 529.709C448.284 531.253 449.275 532.931 451 535.53C448.056 536.002 446.183 536.559 444.309 536.564C419.828 536.618 395.346 536.538 370.864 536.635C365.901 536.654 362.6 534.508 359.705 530.635C343.958 509.57 328.069 488.611 312.202 467.636C292.307 441.337 272.391 415.053 252.464 388.779C251.289 387.229 249.934 385.816 247.995 383.564C247.319 385.812 246.724 387.021 246.629 388.268C246.447 390.683 246.531 393.12 246.531 395.548C246.527 438.644 246.534 481.74 246.523 524.836C246.52 536.375 246.271 536.611 234.512 536.62C218.528 536.633 202.544 536.625 186.56 536.621C184.941 536.621 183.318 536.657 181.705 536.554C176.522 536.223 175.29 535.039 174.919 530.014C174.801 528.403 174.837 526.779 174.837 525.161C174.834 427.233 174.831 329.306 174.838 231.379C174.839 220.091 175.164 219.79 186.394 219.759C189.631 219.75 192.868 219.757 196.712 219.757Z" fill="#0B051D"/>
<path d="M544.495 511.136C544.473 517.809 544.595 523.881 544.385 529.94C544.209 535.017 542.835 536.499 537.73 536.536C519.532 536.669 501.331 536.67 483.133 536.528C478.098 536.488 476.898 534.979 476.58 529.813C476.455 527.798 476.507 525.771 476.506 523.749C476.504 426.683 476.502 329.617 476.513 232.552C476.513 229.925 476.535 227.29 476.748 224.675C476.975 221.877 478.663 220.292 481.448 220.01C483.054 219.847 484.677 219.799 486.292 219.798C502.47 219.783 518.648 219.783 534.825 219.799C536.44 219.801 538.065 219.85 539.667 220.033C542.464 220.353 544.075 222.015 544.266 224.801C544.459 227.621 544.486 230.457 544.486 233.286C544.497 325.7 544.495 418.115 544.495 511.136Z" fill="#0B051D"/>
<path d="M589.439 490.016C573.22 463.9 567.728 435.863 570.838 405.912C572.793 387.088 578.282 369.417 588.532 353.479C608.394 322.594 636.889 306.765 673.57 305.48C686.265 305.036 698.58 306.605 710.476 311.218C727.941 317.991 741.112 329.753 750.805 345.617C751.828 347.293 752.867 348.959 753.899 350.629C754.298 350.499 754.698 350.369 755.097 350.239C754.561 348.257 753.952 346.291 753.502 344.289C751.91 337.195 750.293 330.104 748.866 322.976C748.476 321.026 748.609 318.943 748.696 316.93C748.828 313.864 750.486 312.065 753.586 311.783C755.195 311.637 756.818 311.59 758.435 311.589C774.015 311.575 789.595 311.575 805.175 311.588C806.792 311.589 808.413 311.64 810.025 311.769C813.108 312.014 814.812 313.736 815.046 316.811C815.184 318.624 815.229 320.448 815.229 322.267C815.238 388.028 815.244 453.789 815.228 519.55C815.226 529.523 814.595 530.126 804.481 530.144C789.305 530.171 774.129 530.153 758.954 530.147C757.538 530.146 756.115 530.175 754.708 530.047C750.07 529.625 748.477 528.261 748.688 523.506C748.911 518.483 749.799 513.474 750.63 508.498C751.128 505.515 752.026 502.594 752.83 499.669C753.567 496.99 754.419 494.342 755.498 490.758C752.43 492.015 752.005 494.118 751.075 495.694C740.44 513.714 725.365 526.759 705.278 532.339C673.586 541.142 643.561 536.492 616.13 517.694C605.461 510.382 596.988 500.947 589.439 490.016ZM643.468 445.011C644.762 447.294 645.946 449.648 647.366 451.849C660.699 472.5 685.205 481.35 708.12 474.232C729.883 467.473 747.096 446.604 746.628 419.811C746.352 403.968 740.141 390.638 728.541 379.488C707.659 359.414 670.659 359.068 649.929 386.277C636.46 403.956 634.713 423.613 643.468 445.011Z" fill="#0B051D"/>
<path d="M905.271 347.387C908.616 343.08 911.734 338.57 915.348 334.501C928.436 319.766 945.007 314.094 964.383 316.527C970.625 317.311 971.75 318.662 971.792 324.703C971.912 342.292 971.912 359.883 971.807 377.472C971.771 383.619 970.63 384.547 964.389 383.533C956.319 382.222 948.308 381.858 940.303 383.788C929.037 386.505 920.68 393 915.325 403.278C910.541 412.462 908.86 422.393 908.828 432.607C908.729 463.339 908.764 494.072 908.735 524.804C908.724 536.392 908.496 536.617 896.795 536.628C881.833 536.641 866.871 536.635 851.909 536.624C850.091 536.623 848.258 536.673 846.456 536.474C842.49 536.037 841.271 534.768 840.867 530.684C840.689 528.879 840.742 527.048 840.742 525.229C840.736 459.923 840.731 394.617 840.743 329.311C840.745 318.514 841.201 318.076 852.055 318.06C866.41 318.04 880.766 318.051 895.121 318.061C896.94 318.062 898.772 318.011 900.574 318.203C904.575 318.628 906.201 319.911 906.139 323.927C906.054 329.35 905.249 334.763 904.701 340.174C904.538 341.78 904.198 343.367 903.684 345.837C901.971 350.004 900.58 353.314 900.696 357.027C901.822 355.981 902.575 354.825 903.081 353.569C903.897 351.543 904.549 349.451 905.271 347.387Z" fill="#0B051D"/>
<path d="M1061.78 350.881C1065.19 346.371 1068.57 341.831 1072.02 337.356C1083.41 322.625 1098.59 314.379 1116.91 312.489C1133.33 310.795 1149.66 311.789 1165.37 317.622C1185.24 324.996 1200.94 337.395 1211.54 355.936C1218.32 367.804 1221.7 380.768 1221.8 394.243C1222.12 438.747 1221.93 483.256 1221.92 527.762C1221.92 529.174 1221.85 530.597 1221.66 531.996C1221.33 534.509 1219.85 536.038 1217.33 536.338C1215.53 536.552 1213.7 536.611 1211.88 536.613C1195.9 536.633 1179.92 536.63 1163.94 536.616C1162.32 536.615 1160.7 536.567 1159.09 536.424C1156 536.149 1154.33 534.366 1154.14 531.31C1153.98 528.891 1153.95 526.46 1153.95 524.034C1153.94 490.047 1153.98 456.06 1153.91 422.073C1153.89 412.928 1152.74 403.924 1149.41 395.297C1144.6 382.839 1135.41 375.438 1122.44 373.612C1115.35 372.614 1107.83 372.628 1100.77 373.781C1078.12 377.48 1068.2 396.69 1066.78 411.471C1065.98 419.708 1065.48 428.004 1065.43 436.277C1065.27 466.217 1065.38 496.158 1065.36 526.099C1065.35 535.88 1064.65 536.593 1055.14 536.615C1039.16 536.652 1023.18 536.63 1007.19 536.615C1005.58 536.613 1003.95 536.565 1002.35 536.406C999.558 536.13 997.912 534.542 997.619 531.751C997.429 529.945 997.392 528.117 997.391 526.299C997.38 460.348 997.373 394.397 997.391 328.446C997.394 318.788 998.112 318.085 1007.74 318.064C1023.11 318.029 1038.49 318.05 1053.86 318.062C1055.48 318.063 1057.11 318.03 1058.71 318.237C1062.41 318.717 1063.97 319.957 1063.87 323.686C1063.73 328.708 1063.01 333.738 1062.21 338.712C1061.6 342.496 1060.48 346.198 1059.33 350.754C1058.56 353.296 1058.04 355.02 1057.53 356.744C1057.99 356.895 1058.46 357.047 1058.93 357.199C1059.88 355.093 1060.83 352.987 1061.78 350.881Z" fill="#0B051D"/>
<path d="M1315.64 312.656C1335.93 305.136 1356.25 303.314 1376.93 307.999C1399.58 313.134 1416.93 325.808 1428.77 345.881C1429.77 347.563 1430.83 349.202 1432.86 350.533C1432.5 348.889 1432.15 347.244 1431.8 345.601C1430.16 338.102 1428.44 330.621 1426.95 323.095C1426.52 320.949 1426.58 318.659 1426.74 316.457C1426.91 313.936 1428.47 312.39 1431 312.085C1432.8 311.867 1434.63 311.805 1436.45 311.803C1452.03 311.782 1467.6 311.785 1483.18 311.799C1484.8 311.8 1486.42 311.85 1488.03 311.988C1491.13 312.254 1492.76 314.04 1492.98 317.096C1493.11 318.91 1493.16 320.733 1493.16 322.552C1493.17 388.304 1493.17 454.055 1493.16 519.806C1493.16 529.739 1492.52 530.337 1482.37 530.355C1467.19 530.381 1452.02 530.365 1436.85 530.355C1435.23 530.354 1433.6 530.392 1432 530.197C1427.88 529.695 1426.32 528.197 1426.64 523.682C1427.05 518.055 1427.91 512.429 1429.02 506.893C1430.05 501.804 1431.67 496.835 1433.03 491.813C1432.65 491.605 1432.27 491.397 1431.89 491.189C1430.82 492.927 1429.73 494.652 1428.69 496.404C1414.8 519.766 1394.13 533.171 1367.33 535.953C1318.11 541.065 1277.32 517.167 1258.7 473.414C1242.62 435.633 1243.78 397.575 1262.49 360.78C1273.9 338.344 1291.72 322.315 1315.64 312.656ZM1416.89 392.442C1413.72 388.267 1411.12 383.461 1407.3 380.018C1378.93 354.496 1341.71 364.998 1325.42 389.732C1308.8 414.98 1315.47 450.897 1340.59 467.733C1367.54 485.799 1403.73 476.226 1418.23 447.25C1427.33 429.059 1426.84 411.079 1416.89 392.442Z" fill="#0B051D"/>
</svg>
