<svg id="surface1" xmlns="http://www.w3.org/2000/svg" xmlns:xlink="http://www.w3.org/1999/xlink" width="136.588" height="45.859" viewBox="0 0 136.588 45.859">
  <defs>
    <clipPath id="clip-path">
      <path id="Path_11538" data-name="Path 11538" d="M0,0H38.938V45.859H0ZM0,0"/>
    </clipPath>
    <clipPath id="clip-path-2">
      <path id="Path_11546" data-name="Path 11546" d="M404,76h14.643V96.525H404Zm0,0" transform="translate(-404 -76)"/>
    </clipPath>
  </defs>
  <g id="Group_11110" data-name="Group 11110" clip-path="url(#clip-path)">
    <path id="Path_11537" data-name="Path 11537" d="M35.024,11.654c.559-3.568,0-5.994-1.934-8.193C30.965,1.04,27.127,0,22.218,0H7.965a2.038,2.038,0,0,0-2.014,1.72L.016,39.359a1.224,1.224,0,0,0,1.209,1.415h8.8l-.607,3.851a1.069,1.069,0,0,0,1.056,1.237h7.416a1.784,1.784,0,0,0,1.763-1.506l.072-.377,1.4-8.86.091-.489a1.783,1.783,0,0,1,1.762-1.506h1.11c7.185,0,12.812-2.919,14.455-11.362.686-3.528.331-6.472-1.484-8.542a7.063,7.063,0,0,0-2.03-1.566" transform="translate(0 -0.003)" fill="#159bd7"/>
  </g>
  <path id="Path_11539" data-name="Path 11539" d="M35.024,11.654c.559-3.568,0-5.994-1.934-8.193C30.965,1.04,27.127,0,22.218,0H7.965a2.038,2.038,0,0,0-2.014,1.72L.016,39.359a1.224,1.224,0,0,0,1.209,1.415h8.8l2.21-14.016-.068.439a2.033,2.033,0,0,1,2.007-1.721h4.182c8.213,0,14.644-3.337,16.524-12.986.055-.285.1-.562.146-.835" transform="translate(0 -0.003)" fill="#222c65"/>
  <path id="Path_11540" data-name="Path 11540" d="M14.608,11.7A1.782,1.782,0,0,1,16.37,10.2H27.542a23.317,23.317,0,0,1,3.686.268c.322.052.637.112.941.18s.6.143.887.226c.144.041.284.086.423.132a10.127,10.127,0,0,1,1.545.652c.559-3.568,0-5.994-1.934-8.193C30.965,1.04,27.127,0,22.218,0H7.965a2.038,2.038,0,0,0-2.014,1.72L.016,39.359a1.224,1.224,0,0,0,1.209,1.415h8.8l2.21-14.016L14.608,11.7" transform="translate(0 -0.003)" fill="#253b80"/>
  <path id="Path_11541" data-name="Path 11541" d="M314.616,91.89H315.8a6.478,6.478,0,0,0,6.781-5.7c.567-3.648-1.513-5.7-4.917-5.7H316.8a.433.433,0,0,0-.428.366Zm-2.882-15.258a.744.744,0,0,1,.735-.627h6.875A8.534,8.534,0,0,1,328.1,86.19a12.478,12.478,0,0,1-11.968,10.185h-7a.433.433,0,0,1-.428-.5l3.036-19.243" transform="translate(-215.516 -53.063)" fill="#253b80"/>
  <path id="Path_11542" data-name="Path 11542" d="M271.616,81.116l-.441,2.777h5.464a.434.434,0,0,1,.428.5l-.525,3.356a.744.744,0,0,1-.735.628h-4.7a.742.742,0,0,0-.733.624l-.466,2.888h5.787a.434.434,0,0,1,.428.5l-.525,3.356a.744.744,0,0,1-.735.628H264.416a.434.434,0,0,1-.428-.5l3.037-19.243a.743.743,0,0,1,.733-.627h10.448a.434.434,0,0,1,.428.5l-.526,3.356a.742.742,0,0,1-.733.628h-5.024a.744.744,0,0,0-.735.627" transform="translate(-184.301 -53.063)" fill="#253b80"/>
  <path id="Path_11543" data-name="Path 11543" d="M377.686,96.375h-4.153a.434.434,0,0,1-.428-.5l3.037-19.243a.743.743,0,0,1,.733-.627h4.153a.433.433,0,0,1,.428.5L378.42,95.748a.744.744,0,0,1-.735.627" transform="translate(-260.482 -53.063)" fill="#253b80"/>
  <path id="Path_11544" data-name="Path 11544" d="M212.893,85.136h.513c1.729,0,3.718-.325,4.08-2.54s-.792-2.533-2.64-2.54h-.75a.46.46,0,0,0-.454.388Zm9.088,11.239H216.54a.6.6,0,0,1-.542-.342l-3.591-7.493h-.053l-1.163,7.328a.6.6,0,0,1-.594.507h-4.274a.434.434,0,0,1-.428-.5l3.055-19.362a.6.6,0,0,1,.594-.508h7.4c4.025,0,6.781,1.918,6.105,6.268a6.712,6.712,0,0,1-5.375,5.755l4.679,7.689a.434.434,0,0,1-.371.659" transform="translate(-143.742 -53.063)" fill="#253b80"/>
  <g id="Group_11111" data-name="Group 11111" transform="translate(121.945 22.94)" clip-path="url(#clip-path-2)">
    <path id="Path_11545" data-name="Path 11545" d="M410.582,96.375h-4.153a.434.434,0,0,1-.428-.5l2.432-15.385h-3.87a.433.433,0,0,1-.428-.5l.526-3.357A.743.743,0,0,1,405.4,76h12.9a.434.434,0,0,1,.428.5l-.526,3.356a.743.743,0,0,1-.733.628h-3.741l-2.414,15.258a.743.743,0,0,1-.733.627" transform="translate(-404.091 -76.003)" fill="#253b80"/>
  </g>
  <path id="Path_11547" data-name="Path 11547" d="M167.8,80.546a.461.461,0,0,1-.791.239,5.083,5.083,0,0,0-3.672-1.421A6.511,6.511,0,0,0,157.024,85c-.487,3.213,1.349,5.533,4.642,5.533a7.017,7.017,0,0,0,3.995-1.38.459.459,0,0,1,.718.449l-.753,4.661a.728.728,0,0,1-.515.584,14.746,14.746,0,0,1-4.361.815c-8.781,0-10.185-7.5-9.733-10.689,1.269-8.94,8.524-10.989,12.971-10.741a13.069,13.069,0,0,1,3.975.742.913.913,0,0,1,.579,1l-.738,4.567" transform="translate(-105.38 -51.815)" fill="#253b80"/>
  <path id="Path_11548" data-name="Path 11548" d="M278.347,12.737c-.25,1.647-1.508,1.647-2.725,1.647h-.691l.485-3.074a.383.383,0,0,1,.378-.323h.317c.828,0,1.609,0,2.013.472A1.525,1.525,0,0,1,278.347,12.737Zm-.529-4.3h-4.587a.638.638,0,0,0-.63.539l-1.855,11.76a.382.382,0,0,0,.377.442h2.353a.446.446,0,0,0,.441-.376l.526-3.334a.637.637,0,0,1,.63-.538h1.451c3.021,0,4.765-1.462,5.221-4.36a3.533,3.533,0,0,0-.585-2.961,4.257,4.257,0,0,0-3.344-1.172" transform="translate(-189.02 -5.893)" fill="#159bd7"/>
  <path id="Path_11549" data-name="Path 11549" d="M169.96,12.737c-.25,1.647-1.508,1.647-2.724,1.647h-.692l.485-3.074a.383.383,0,0,1,.378-.323h.317c.828,0,1.609,0,2.013.472A1.525,1.525,0,0,1,169.96,12.737Zm-.529-4.3h-4.587a.638.638,0,0,0-.63.539L162.36,20.74a.382.382,0,0,0,.377.442h2.191a.637.637,0,0,0,.63-.538l.5-3.173a.637.637,0,0,1,.63-.538h1.451c3.021,0,4.765-1.462,5.221-4.36a3.533,3.533,0,0,0-.585-2.961,4.257,4.257,0,0,0-3.344-1.172" transform="translate(-113.349 -5.893)" fill="#253b80"/>
  <path id="Path_11550" data-name="Path 11550" d="M204.132,26.294a2.449,2.449,0,0,1-2.48,2.1,1.7,1.7,0,0,1-1.818-2.135,2.456,2.456,0,0,1,2.461-2.113,1.85,1.85,0,0,1,1.464.6A1.887,1.887,0,0,1,204.132,26.294Zm3.061-4.274H205a.383.383,0,0,0-.377.322l-.1.614-.153-.222a3.127,3.127,0,0,0-2.6-.922,5.051,5.051,0,0,0-4.9,4.418,4.146,4.146,0,0,0,.818,3.375,3.435,3.435,0,0,0,2.766,1.117,4.2,4.2,0,0,0,3.041-1.257l-.1.611a.383.383,0,0,0,.378.442h1.977a.636.636,0,0,0,.63-.538l1.187-7.519a.382.382,0,0,0-.377-.441" transform="translate(-137.401 -15.229)" fill="#253b80"/>
  <path id="Path_11551" data-name="Path 11551" d="M312.519,26.294a2.449,2.449,0,0,1-2.48,2.1,1.7,1.7,0,0,1-1.818-2.135,2.456,2.456,0,0,1,2.461-2.113,1.85,1.85,0,0,1,1.464.6A1.892,1.892,0,0,1,312.519,26.294Zm3.061-4.274h-2.2a.382.382,0,0,0-.377.322l-.1.614-.153-.222a3.127,3.127,0,0,0-2.6-.922,5.051,5.051,0,0,0-4.9,4.418,4.15,4.15,0,0,0,.817,3.375,3.439,3.439,0,0,0,2.767,1.117,4.2,4.2,0,0,0,3.041-1.257l-.1.611a.383.383,0,0,0,.378.442h1.977a.636.636,0,0,0,.63-.538l1.187-7.519a.382.382,0,0,0-.377-.441" transform="translate(-213.072 -15.229)" fill="#159bd7"/>
  <path id="Path_11552" data-name="Path 11552" d="M246.3,22.5H244.1a.638.638,0,0,0-.527.279l-3.046,4.485-1.29-4.311a.639.639,0,0,0-.611-.454h-2.171a.383.383,0,0,0-.362.506l2.431,7.135-2.286,3.226a.382.382,0,0,0,.311.6h2.206a.637.637,0,0,0,.523-.275l7.342-10.6a.382.382,0,0,0-.314-.6" transform="translate(-164.813 -15.709)" fill="#253b80"/>
  <path id="Path_11553" data-name="Path 11553" d="M343.817,8.764l-1.883,11.977a.381.381,0,0,0,.377.441h1.894a.636.636,0,0,0,.63-.538l1.856-11.761a.382.382,0,0,0-.377-.442h-2.119a.381.381,0,0,0-.377.323" transform="translate(-238.72 -5.893)" fill="#159bd7"/>
</svg>
