<svg xmlns="http://www.w3.org/2000/svg" width="92" height="59" viewBox="0 0 92 59" fill="none">
  <path d="M45.5333 44.0082C43.0685 43.9868 40.9868 41.898 40.9987 39.4547C41.0106 36.9424 43.0947 34.8583 45.5951 34.863C48.1027 34.8678 50.1939 36.9709 50.1725 39.4666C50.1511 41.9717 48.0503 44.0273 45.5333 44.0082ZM47.0583 39.419C47.0511 38.5887 46.4302 37.9582 45.6142 37.944C44.7648 37.9321 44.113 38.5911 44.1201 39.4571C44.1272 40.2945 44.7291 40.9035 45.5642 40.9154C46.4373 40.9273 47.0678 40.2969 47.0583 39.4166V39.419Z" fill="#242429"/>
  <path d="M89.6676 1.42273C89.4321 1.39656 89.1942 1.41084 88.9563 1.41084C85.9586 1.41084 82.961 1.40132 79.9633 1.41797C79.4209 1.42035 79.0974 1.33233 78.8 0.768485C78.5906 0.371178 77.9221 -0.00471681 77.4677 0.00479952C77.0133 0.0143159 76.3804 0.416381 76.1663 0.825583C75.9046 1.32995 75.6429 1.42035 75.1624 1.41797C72.1362 1.40608 69.1076 1.41084 66.0814 1.41084C65.8435 1.41084 65.6056 1.39894 65.3701 1.42035C64.4517 1.51076 63.8165 2.1317 63.7999 2.94059C63.7832 3.77802 64.4446 4.43465 65.4081 4.51792C65.6436 4.53933 65.8816 4.52506 66.1195 4.52506C69.0576 4.52506 71.9958 4.52506 74.934 4.52506H75.8832V7.49653C74.9459 7.49653 74.0894 7.49653 73.2305 7.49653C72.1695 7.49653 71.2726 7.83912 70.5493 8.6599C70.3566 8.87878 69.9522 9.01201 69.6453 9.01439C65.6103 9.03818 61.573 9.02152 57.5381 9.04056C57.0647 9.04056 56.8268 8.90971 56.6031 8.46244C54.3478 3.93742 50.6435 1.45842 45.6189 1.45128C40.5586 1.44414 36.8282 3.92315 34.5609 8.49099C34.3611 8.89543 34.147 9.04294 33.6973 9.04056C29.6029 9.0239 25.5061 9.0358 21.4117 9.01677C21.1548 9.01677 20.8122 8.89781 20.6576 8.70986C19.8891 7.77013 18.8875 7.47512 17.7337 7.49415C16.9177 7.50843 16.104 7.49653 15.2642 7.49653V4.52506H16.2753C19.242 4.52506 22.2111 4.52506 25.1778 4.52506C25.4728 4.52506 25.775 4.52744 26.0629 4.47272C26.8646 4.3157 27.3047 3.7923 27.3666 2.99769C27.4237 2.26731 26.8337 1.60592 26.0343 1.45842C25.7464 1.40608 25.4443 1.41322 25.1469 1.41322C22.1207 1.41084 19.0921 1.4037 16.0659 1.41797C15.5592 1.41797 15.2428 1.36801 14.9882 0.794655C14.8193 0.404485 14.1912 0.00242044 13.7654 4.13556e-05C13.2967 -0.00471681 12.7947 0.402106 12.3617 0.706629C12.1785 0.835099 12.1333 1.15865 12.0191 1.40846C8.68365 1.40846 5.391 1.42749 2.09835 1.39656C1.18954 1.38943 0.482954 1.65112 0 2.43146V3.49967C0.487712 4.27763 1.18954 4.54647 2.10073 4.53695C4.77006 4.50364 7.44177 4.52506 10.1135 4.52506C10.7582 4.52506 11.4006 4.52506 12.0691 4.52506V7.50129C11.0651 7.50129 10.1182 7.4656 9.17612 7.50843C7.24431 7.59645 6.0738 8.84309 6.06666 10.7797C6.05952 12.6782 6.05714 14.5791 6.06666 16.4776C6.07856 18.4237 7.35374 19.687 9.31887 19.6917C12.1976 19.7012 15.0786 19.7488 17.9526 19.6584C18.7258 19.6346 19.4847 19.1731 20.2508 18.9137C20.453 18.8448 20.6956 18.6711 20.855 18.7282C21.909 19.0993 22.9439 19.5228 24.0073 19.9344C22.6774 24.1906 21.3713 28.3706 20.0652 32.5483C18.5283 37.4611 17.0604 42.3977 15.4165 47.2724C14.6433 49.5635 16.292 51.845 18.6449 51.5976C19.3205 51.5262 20.0081 51.5881 20.6909 51.5857C22.6893 51.5809 23.5458 50.9885 24.2238 49.1281C26.4816 42.9282 28.7346 36.7236 30.9899 30.5237C31.8274 28.2207 32.6719 25.9201 33.526 23.5839C35.0605 24.1691 36.5261 24.7235 37.9868 25.2921C38.1676 25.3634 38.3865 25.48 38.4698 25.6394C39.0027 26.6481 39.4999 27.6735 40.059 28.7917C39.3405 28.7917 38.779 28.7917 38.2152 28.7917C35.4103 28.8036 33.4713 30.6355 33.4428 33.4238C33.3999 37.4301 33.3999 41.4365 33.4428 45.4429C33.4713 48.1432 35.346 50.0678 38.0344 50.094C42.8758 50.144 47.7173 50.1463 52.5587 50.0964C51.9306 49.1329 51.412 48.0932 51.0218 46.9941C49.1828 46.9941 47.3414 46.9941 45.5023 46.9941C43.0995 46.9941 40.6942 47.0012 38.2913 46.9917C37.0161 46.9869 36.4999 46.4754 36.4999 45.2216C36.4927 41.3628 36.4951 37.5063 36.4999 33.6474C36.4999 32.415 37.0495 31.8417 38.2913 31.8393C43.1589 31.825 48.0242 31.825 52.8918 31.8393C53.3676 31.8393 53.7387 31.925 54.0195 32.0986C54.7213 31.3278 55.504 30.6331 56.3533 30.0264C55.5325 29.258 54.4001 28.8036 53.1178 28.7941C52.5016 28.7893 51.8854 28.7941 51.117 28.7941C51.688 27.6545 52.1947 26.6267 52.7205 25.6109C52.7776 25.4991 52.9346 25.4158 53.0654 25.3658C54.5738 24.7758 56.0869 24.1929 57.6595 23.5863C58.2447 25.1921 58.8204 26.779 59.3962 28.3587C60.3407 27.9781 61.3351 27.6949 62.3653 27.5165C61.7562 25.8393 61.1472 24.1644 60.5358 22.4824C61.7991 21.9994 63.0005 21.5403 64.3042 21.0406C64.9656 23.1509 65.627 25.2564 66.286 27.3619C67.4779 27.4713 68.627 27.7187 69.719 28.0899C69.4145 27.1121 69.11 26.1366 68.8055 25.1612C68.263 23.4269 67.7277 21.6878 67.1829 19.932C68.1655 19.5466 69.0553 19.2207 69.9236 18.8495C70.378 18.6544 70.673 18.7544 71.106 19.0113C71.7151 19.3705 72.4645 19.6513 73.1616 19.6679C76.0688 19.7393 78.9784 19.706 81.8857 19.6941C83.8389 19.687 85.1069 18.4118 85.1164 16.4562C85.126 14.6171 85.1212 12.7757 85.1164 10.9367C85.1117 8.74793 83.9102 7.53222 81.7144 7.49891C80.8603 7.48701 80.0086 7.49891 79.1045 7.49891V4.52744H80.1132C83.0514 4.52744 85.9896 4.52744 88.9277 4.52744C89.1656 4.52744 89.4035 4.53933 89.6391 4.51554C90.5764 4.42038 91.1665 3.82561 91.176 2.98341C91.1855 2.14122 90.5979 1.52503 89.6724 1.42273H89.6676ZM18.1548 16.587H9.19278V10.6512H18.1548V16.587ZM28.863 27.3928C26.3888 34.197 23.9026 40.9964 21.4474 47.8077C21.2476 48.3597 21.0287 48.6356 20.3959 48.5738C19.7297 48.5072 19.0517 48.5595 18.2523 48.5595C21.1382 39.3501 23.9907 30.2525 26.8813 21.0335C28.1898 21.5331 29.3698 21.9851 30.645 22.4729C30.0431 24.1406 29.4554 25.7679 28.8654 27.3952L28.863 27.3928ZM47.7982 28.4943C47.7054 28.6609 47.3771 28.775 47.1534 28.7798C46.1185 28.8084 45.0812 28.8203 44.0487 28.7727C43.7894 28.7608 43.4302 28.5704 43.3064 28.354C42.852 27.5641 42.4785 26.729 42.0122 25.7845H49.1661C48.6974 26.729 48.2787 27.6283 47.7982 28.4919V28.4943ZM69.8332 15.3285C69.8261 15.4998 69.5144 15.7234 69.2979 15.8067C63.4216 18.0787 57.5405 20.3388 51.6523 22.5871C51.3596 22.6989 51.0171 22.7227 50.6983 22.7227C47.2867 22.7322 43.875 22.7369 40.4658 22.7179C40.0638 22.7179 39.6379 22.6394 39.262 22.4943C33.5427 20.3079 27.8353 18.0953 22.1112 15.9209C21.476 15.6782 21.2476 15.357 21.2975 14.6885C21.3594 13.8653 21.3118 13.035 21.3118 12.081H22.4252C26.6077 12.081 30.7901 12.0834 34.9725 12.081C36.2263 12.081 36.5713 11.8241 36.9995 10.6441C38.3651 6.86845 41.6625 4.52268 45.5999 4.52744C49.5396 4.53219 52.799 6.86132 54.186 10.6631C54.6118 11.8336 54.9521 12.0786 56.2249 12.081C60.4073 12.0858 64.5897 12.081 68.7721 12.081H69.857C69.857 13.2182 69.8808 14.2745 69.8332 15.3261V15.3285ZM82.0141 10.656V16.5799H73.064V10.656H82.0141Z" fill="#242429"/>
  <path d="M64.9656 58.04C64.8942 58.04 64.8252 58.04 64.7539 58.04C55.9846 57.9211 48.9092 50.7006 48.9829 41.9432C49.0186 37.6418 50.7197 33.6283 53.7696 30.6401C56.8077 27.6639 60.8284 26.0509 65.106 26.1104C69.4097 26.1651 73.4185 27.8852 76.3923 30.9518C79.3662 34.0184 80.9721 38.0867 80.915 42.4094C80.8603 46.5657 79.1283 50.5007 76.0331 53.4912C72.9926 56.4294 69.0695 58.04 64.9632 58.04H64.9656ZM51.3644 41.9622C51.3025 49.4158 57.324 55.561 64.7872 55.6609C68.3368 55.7109 71.7436 54.331 74.382 51.7807C77.018 49.2327 78.4931 45.8948 78.5383 42.3785C78.5859 38.6886 77.2179 35.2199 74.6865 32.6076C72.1552 29.9978 68.7436 28.5346 65.0774 28.4894C61.4398 28.4442 58.0211 29.8122 55.4374 32.3412C52.8418 34.882 51.3953 38.3008 51.3644 41.9646V41.9622Z" fill="#242429"/>
  <path d="M63.0742 43.7656C65.3225 41.4388 67.5588 39.0693 69.8665 36.7758C70.2947 36.3523 70.9871 36.0883 71.5913 36.0098C72.3408 35.9122 72.8832 36.4356 73.1639 37.1612C73.4756 37.9677 73.2995 38.6886 72.7143 39.3C71.5628 40.4967 70.4042 41.6862 69.2479 42.8782C67.6706 44.5055 66.098 46.1399 64.5112 47.7577C63.5001 48.7878 62.4723 48.7854 61.4683 47.7577C60.1051 46.3659 58.7514 44.9646 57.4025 43.561C56.4271 42.5451 56.3271 41.4031 57.1241 40.5609C57.9521 39.6854 59.0702 39.783 60.1051 40.8345C61.0235 41.7671 61.9346 42.7069 62.8506 43.6395C62.8934 43.6823 62.96 43.7013 63.0742 43.7656Z" fill="#242429"/>
</svg>