<svg width="163" height="125" viewBox="0 0 163 125" fill="none" xmlns="http://www.w3.org/2000/svg">
<path d="M47.3262 35.625V47H44.9903V35.625H47.3262ZM50.8262 35.625V37.4609H41.545V35.625H50.8262ZM60.8072 41.0469V41.5859C60.8072 42.4505 60.69 43.2266 60.4556 43.9141C60.2212 44.6016 59.8905 45.1875 59.4634 45.6719C59.0364 46.151 58.5259 46.5182 57.9322 46.7734C57.3436 47.0286 56.69 47.1562 55.9712 47.1562C55.2577 47.1562 54.6041 47.0286 54.0103 46.7734C53.4218 46.5182 52.9114 46.151 52.4791 45.6719C52.0468 45.1875 51.7108 44.6016 51.4712 43.9141C51.2369 43.2266 51.1197 42.4505 51.1197 41.5859V41.0469C51.1197 40.1771 51.2369 39.401 51.4712 38.7188C51.7056 38.0312 52.0364 37.4453 52.4634 36.9609C52.8957 36.4766 53.4061 36.1068 53.9947 35.8516C54.5884 35.5964 55.2421 35.4688 55.9556 35.4688C56.6744 35.4688 57.328 35.5964 57.9166 35.8516C58.5103 36.1068 59.0207 36.4766 59.4478 36.9609C59.8801 37.4453 60.2134 38.0312 60.4478 38.7188C60.6874 39.401 60.8072 40.1771 60.8072 41.0469ZM58.44 41.5859V41.0312C58.44 40.4271 58.3853 39.8958 58.2759 39.4375C58.1666 38.9792 58.0051 38.5938 57.7916 38.2812C57.578 37.9688 57.3176 37.7344 57.0103 37.5781C56.703 37.4167 56.3515 37.3359 55.9556 37.3359C55.5598 37.3359 55.2082 37.4167 54.9009 37.5781C54.5989 37.7344 54.341 37.9688 54.1275 38.2812C53.9192 38.5938 53.7603 38.9792 53.6509 39.4375C53.5416 39.8958 53.4869 40.4271 53.4869 41.0312V41.5859C53.4869 42.1849 53.5416 42.7161 53.6509 43.1797C53.7603 43.638 53.9218 44.026 54.1353 44.3438C54.3489 44.6562 54.6093 44.8932 54.9166 45.0547C55.2239 45.2161 55.5754 45.2969 55.9712 45.2969C56.3671 45.2969 56.7186 45.2161 57.0259 45.0547C57.3332 44.8932 57.591 44.6562 57.7994 44.3438C58.0077 44.026 58.1666 43.638 58.2759 43.1797C58.3853 42.7161 58.44 42.1849 58.44 41.5859ZM66.4444 42.9453H63.5459V41.1172H66.4444C66.8923 41.1172 67.2569 41.0443 67.5381 40.8984C67.8194 40.7474 68.0251 40.5391 68.1553 40.2734C68.2855 40.0078 68.3506 39.7083 68.3506 39.375C68.3506 39.0365 68.2855 38.7214 68.1553 38.4297C68.0251 38.138 67.8194 37.9036 67.5381 37.7266C67.2569 37.5495 66.8923 37.4609 66.4444 37.4609H64.3584V47H62.0147V35.625H66.4444C67.335 35.625 68.098 35.7865 68.7334 36.1094C69.3741 36.4271 69.8636 36.8672 70.2022 37.4297C70.5407 37.9922 70.71 38.6354 70.71 39.3594C70.71 40.0938 70.5407 40.7292 70.2022 41.2656C69.8636 41.8021 69.3741 42.2161 68.7334 42.5078C68.098 42.7995 67.335 42.9453 66.4444 42.9453ZM75.3516 35.625H79.5938C80.4635 35.625 81.2109 35.7552 81.8359 36.0156C82.4661 36.276 82.9505 36.6615 83.2891 37.1719C83.6276 37.6823 83.7969 38.3099 83.7969 39.0547C83.7969 39.6641 83.6927 40.1875 83.4844 40.625C83.2812 41.0573 82.9922 41.4193 82.6172 41.7109C82.2474 41.9974 81.8125 42.2266 81.3125 42.3984L80.5703 42.7891H76.8828L76.8672 40.9609H79.6094C80.0208 40.9609 80.362 40.888 80.6328 40.7422C80.9036 40.5964 81.1068 40.3932 81.2422 40.1328C81.3828 39.8724 81.4531 39.5703 81.4531 39.2266C81.4531 38.862 81.3854 38.5469 81.25 38.2812C81.1146 38.0156 80.9089 37.8125 80.6328 37.6719C80.3568 37.5312 80.0104 37.4609 79.5938 37.4609H77.6953V47H75.3516V35.625ZM81.7109 47L79.1172 41.9297L81.5938 41.9141L84.2188 46.8906V47H81.7109ZM89.7466 37.5703L86.6528 47H84.1606L88.3872 35.625H89.9731L89.7466 37.5703ZM92.3169 47L89.2153 37.5703L88.9653 35.625H90.5669L94.8169 47H92.3169ZM92.1762 42.7656V44.6016H86.1684V42.7656H92.1762ZM99.5087 35.625V47H97.1728V35.625H99.5087ZM103.009 35.625V37.4609H93.7275V35.625H103.009ZM111.497 45.1719V47H105.443V45.1719H111.497ZM106.208 35.625V47H103.865V35.625H106.208ZM110.708 40.2578V42.0391H105.443V40.2578H110.708ZM111.49 35.625V37.4609H105.443V35.625H111.49ZM115.877 47H113.4L113.416 45.1719H115.877C116.491 45.1719 117.01 45.0339 117.432 44.7578C117.853 44.4766 118.171 44.0677 118.385 43.5312C118.603 42.9948 118.713 42.3464 118.713 41.5859V41.0312C118.713 40.4479 118.65 39.9349 118.525 39.4922C118.406 39.0495 118.226 38.6771 117.986 38.375C117.747 38.0729 117.452 37.8464 117.103 37.6953C116.754 37.5391 116.353 37.4609 115.9 37.4609H113.353V35.625H115.9C116.661 35.625 117.356 35.7552 117.986 36.0156C118.622 36.2708 119.171 36.638 119.635 37.1172C120.098 37.5964 120.455 38.1693 120.705 38.8359C120.96 39.4974 121.088 40.2344 121.088 41.0469V41.5859C121.088 42.3932 120.96 43.1302 120.705 43.7969C120.455 44.4635 120.098 45.0365 119.635 45.5156C119.176 45.9896 118.627 46.3568 117.986 46.6172C117.351 46.8724 116.648 47 115.877 47ZM114.728 35.625V47H112.385V35.625H114.728Z" fill="black"/>
<path d="M85.3279 122.07C85.1612 122.07 84.9978 122.023 84.8568 121.934C84.7159 121.845 84.6031 121.718 84.5317 121.567C84.4603 121.417 84.4332 121.249 84.4535 121.083C84.4739 120.918 84.5408 120.762 84.6466 120.633C85.891 119.109 87.9925 118.258 91.4577 117.876C108.767 115.964 124.463 107.584 135.653 94.2764C146.885 80.9182 152.391 63.9739 151.157 46.5687C149.984 29.7271 142.471 13.9559 130.131 2.433C130.046 2.35422 129.977 2.25931 129.928 2.15373C129.88 2.04814 129.853 1.93398 129.848 1.81782C129.844 1.70167 129.863 1.58581 129.903 1.47693C129.944 1.36806 130.006 1.26832 130.085 1.18347C130.165 1.09862 130.26 1.03034 130.366 0.982562C130.472 0.934783 130.587 0.908454 130.703 0.905092C130.819 0.901731 130.935 0.921405 131.043 0.962978C131.152 1.00455 131.251 1.0672 131.335 1.14732C144 12.9735 151.711 29.1596 152.915 46.4444C154.181 64.3115 148.531 81.7026 137.001 95.4135C125.519 109.069 109.413 117.668 91.6518 119.629C87.8439 120.05 86.637 120.984 86.0102 121.752C85.9273 121.852 85.823 121.933 85.705 121.988C85.587 122.043 85.4582 122.071 85.3279 122.07Z" fill="#231F20"/>
<path d="M77.1239 122.07C76.9933 122.07 76.8642 122.042 76.7461 121.986C76.6281 121.93 76.524 121.848 76.4416 121.747C75.8149 120.98 74.6079 120.047 70.8011 119.624C53.0386 117.663 36.9379 109.064 25.4507 95.4083C13.922 81.6974 8.26635 64.3064 9.53799 46.4392C10.7419 29.1551 18.4526 12.9697 31.1164 1.1442C31.2007 1.06409 31.2999 1.00144 31.4085 0.959865C31.517 0.918292 31.6328 0.898618 31.749 0.90198C31.8652 0.905341 31.9795 0.93167 32.0855 0.979449C32.1915 1.02723 32.2869 1.09551 32.3664 1.18036C32.4458 1.26521 32.5077 1.36495 32.5485 1.47382C32.5892 1.5827 32.6079 1.69855 32.6036 1.81471C32.5994 1.93087 32.5721 2.04503 32.5235 2.15061C32.4749 2.2562 32.4059 2.35111 32.3204 2.42988C19.9813 13.9531 12.4683 29.7241 11.2948 46.5656C10.0606 63.9738 15.5667 80.9181 26.799 94.2733C37.9891 107.581 53.6874 115.961 70.9941 117.872C74.4592 118.254 76.5608 119.106 77.8051 120.63C77.9109 120.759 77.9779 120.915 77.9983 121.08C78.0186 121.246 77.9915 121.414 77.9201 121.564C77.8487 121.715 77.7359 121.842 77.5949 121.931C77.4539 122.02 77.2906 122.067 77.1238 122.067L77.1239 122.07Z" fill="#231F20"/>
<path d="M102.317 112.135C105.277 107.932 104.779 103.479 104.779 103.479C104.779 103.479 100.419 104.511 97.4591 108.715C94.9087 112.336 93.9302 114.963 94.5802 117.962C97.6249 117.566 99.7678 115.756 102.317 112.135Z" fill="#231F20"/>
<path d="M105.621 118.761C110.559 120.195 112.949 123.983 112.949 123.983C112.949 123.983 108.9 125.904 103.963 124.466C99.7102 123.229 97.3054 121.79 95.9398 119.04C98.57 117.451 101.368 117.525 105.621 118.761Z" fill="#231F20"/>
<path d="M114.56 107.333C116.619 102.622 115.239 98.3598 115.239 98.3598C115.239 98.3598 111.174 100.243 109.115 104.955C107.342 109.012 106.908 111.782 108.147 114.591C111.05 113.591 112.787 111.39 114.56 107.333Z" fill="#231F20"/>
<path d="M118.781 112.999C123.906 113.417 127.006 116.65 127.006 116.65C127.006 116.65 123.423 119.339 118.298 118.921C113.884 118.562 111.239 117.632 109.351 115.211C111.61 113.129 114.366 112.64 118.781 112.999Z" fill="#231F20"/>
<path d="M124.727 100.089C125.8 95.0616 123.595 91.1621 123.595 91.1621C123.595 91.1621 119.99 93.8204 118.915 98.8439C117.991 103.174 118.121 105.974 119.896 108.478C122.54 106.923 123.802 104.42 124.727 100.089Z" fill="#231F20"/>
<path d="M130.123 105.377C135.228 104.761 138.918 107.308 138.918 107.308C138.918 107.308 135.945 110.659 130.84 111.275C126.444 111.807 123.663 111.426 121.332 109.432C123.12 106.94 125.727 105.908 130.123 105.377Z" fill="#231F20"/>
<path d="M133.276 91.5695C133.322 86.4288 130.38 83.0488 130.38 83.0488C130.38 83.0488 127.38 86.3762 127.335 91.5169C127.296 95.9451 127.983 98.662 130.224 100.76C132.502 98.7024 133.242 95.9976 133.276 91.5695Z" fill="#231F20"/>
<path d="M139.835 95.3397C144.713 93.7133 148.831 95.4711 148.831 95.4711C148.831 95.4711 146.59 99.3493 141.712 100.976C137.511 102.376 134.714 102.558 132.027 101.077C133.286 98.2719 135.634 96.7446 139.835 95.3397Z" fill="#231F20"/>
<path d="M140.296 80.8149C139.311 75.7682 135.753 73.0463 135.753 73.0463C135.753 73.0463 133.478 76.9063 134.464 81.953C135.312 86.2993 136.529 88.8262 139.145 90.4303C140.965 87.9579 141.144 85.1612 140.296 80.8149Z" fill="#231F20"/>
<path d="M147.731 83.3015C152.185 80.7321 156.574 81.6297 156.574 81.6297C156.574 81.6297 155.154 85.8749 150.7 88.4472C146.865 90.6608 144.161 91.3997 141.232 90.4809C141.903 87.485 143.895 85.514 147.731 83.3015Z" fill="#231F20"/>
<path d="M145.069 69.1327C143.094 64.3821 139.062 62.4304 139.062 62.4304C139.062 62.4304 137.608 66.6674 139.583 71.415C141.284 75.5035 142.982 77.7332 145.867 78.7844C147.153 75.9977 146.769 73.2212 145.069 69.1327Z" fill="#231F20"/>
<path d="M152.842 69.9696C156.691 66.5603 161.171 66.5603 161.171 66.5603C161.171 66.5603 160.631 71.0076 156.781 74.4169C153.467 77.3532 150.965 78.6176 147.911 78.3043C147.969 75.2356 149.527 72.9048 152.842 69.9696Z" fill="#231F20"/>
<path d="M147.629 56.3356C144.744 52.0793 140.403 50.9715 140.403 50.9715C140.403 50.9715 139.826 55.4188 142.711 59.6691C145.197 63.3341 147.307 65.1797 150.343 65.6325C151.047 62.6437 150.115 60.0006 147.629 56.3356Z" fill="#231F20"/>
<path d="M154.96 55.8847C158.049 51.7739 162.44 50.8774 162.44 50.8774C162.44 50.8774 162.801 55.3429 159.711 59.4536C157.05 62.9913 154.853 64.7338 151.798 65.0381C151.24 62.02 152.3 59.4243 154.96 55.8847Z" fill="#231F20"/>
<path d="M147.454 43.5838C143.775 39.9915 139.3 39.7742 139.3 39.7742C139.3 39.7742 139.624 44.2428 143.303 47.835C146.472 50.9279 148.909 52.3127 151.975 52.1489C152.066 49.0803 150.622 46.6767 147.454 43.5838Z" fill="#231F20"/>
<path d="M154.652 41.6169C156.855 36.9674 160.976 35.2148 160.976 35.2148C160.976 35.2148 162.224 39.5176 160.02 44.163C158.123 48.1636 156.318 50.3084 153.386 51.2191C152.235 48.3728 152.751 45.6185 154.652 41.6169Z" fill="#231F20"/>
<path d="M145.288 31.105C141.298 27.8615 136.822 28.0505 136.822 28.0505C136.822 28.0505 137.55 32.4716 141.54 35.7151C144.977 38.5088 147.528 39.6671 150.566 39.2254C150.379 36.1608 148.724 33.8988 145.288 31.105Z" fill="#231F20"/>
<path d="M150.807 27.8272C151.888 22.8007 155.498 20.1454 155.498 20.1454C155.498 20.1454 157.697 24.048 156.616 29.0745C155.685 33.4035 154.419 35.9042 151.773 37.4637C150.001 34.9561 149.875 32.1573 150.807 27.8272Z" fill="#231F20"/>
<path d="M141.072 19.1751C136.912 16.1519 132.453 16.5835 132.453 16.5835C132.453 16.5835 133.419 20.958 137.578 23.9812C141.161 26.5839 143.772 27.6028 146.777 26.9973C146.429 23.9479 144.654 21.7788 141.072 19.1751Z" fill="#231F20"/>
<path d="M145.204 15.0139C145.507 9.88227 148.668 6.7085 148.668 6.7085C148.668 6.7085 151.437 10.231 151.134 15.3636C150.873 19.7836 150.004 22.448 147.626 24.3907C145.495 22.1832 144.944 19.4349 145.204 15.0139Z" fill="#231F20"/>
<path d="M133.141 9.92967C129.198 5.17912 129.129 0 129.129 0C129.129 0 134.209 1.01076 138.156 5.76131C141.554 9.85083 143.034 12.8548 142.723 16.3591C139.218 16.0255 136.537 14.0202 133.141 9.92967Z" fill="#231F20"/>
<path d="M60.1307 112.135C57.1709 107.932 57.6693 103.479 57.6693 103.479C57.6693 103.479 62.029 104.511 64.9898 108.715C67.5391 112.336 68.5176 114.963 67.8677 117.962C64.823 117.566 62.6851 115.756 60.1307 112.135Z" fill="#231F20"/>
<path d="M56.8272 118.761C51.8893 120.195 49.4986 123.983 49.4986 123.983C49.4986 123.983 53.5481 125.904 58.485 124.466C62.7376 123.229 65.1424 121.79 66.5081 119.04C63.8819 117.451 61.0798 117.525 56.8272 118.761Z" fill="#231F20"/>
<path d="M47.8884 107.333C45.8293 102.622 47.2091 98.3598 47.2091 98.3598C47.2091 98.3598 51.2737 100.243 53.3328 104.955C55.1058 109.012 55.5394 111.782 54.3012 114.591C51.398 113.591 49.6614 111.39 47.8884 107.333Z" fill="#231F20"/>
<path d="M43.6681 112.999C38.5431 113.417 35.4419 116.65 35.4419 116.65C35.4419 116.65 39.0253 119.339 44.1503 118.921C48.5636 118.562 51.209 117.632 53.0972 115.211C50.842 113.129 48.0814 112.64 43.6681 112.999Z" fill="#231F20"/>
<path d="M37.7173 100.089C36.6437 95.0616 38.8484 91.1621 38.8484 91.1621C38.8484 91.1621 42.4541 93.8204 43.5286 98.8439C44.4535 103.174 44.3231 105.974 42.5481 108.478C39.9088 106.923 38.6462 104.42 37.7173 100.089Z" fill="#231F20"/>
<path d="M32.3244 105.377C27.2196 104.761 23.5301 107.308 23.5301 107.308C23.5301 107.308 26.503 110.659 31.6077 111.275C36.0039 111.807 38.7847 111.426 41.1157 109.432C39.3275 106.94 36.7205 105.908 32.3244 105.377Z" fill="#231F20"/>
<path d="M29.1716 91.5695C29.1261 86.4288 32.0677 83.0488 32.0677 83.0488C32.0677 83.0488 35.0678 86.3762 35.1133 91.5169C35.1517 95.9451 34.4644 98.662 32.2233 100.76C29.9459 98.7024 29.211 95.9976 29.1716 91.5695Z" fill="#231F20"/>
<path d="M22.6133 95.3397C17.736 93.7133 13.6168 95.4711 13.6168 95.4711C13.6168 95.4711 15.8588 99.3493 20.7361 100.976C24.9372 102.376 27.7342 102.558 30.421 101.077C29.1615 98.2719 26.8143 96.7446 22.6133 95.3397Z" fill="#231F20"/>
<path d="M22.1503 80.8149C23.1359 75.7682 26.693 73.0463 26.693 73.0463C26.693 73.0463 28.9674 76.9063 27.9818 81.953C27.1337 86.2993 25.9167 88.8262 23.3006 90.4303C21.4831 87.9579 21.3042 85.1612 22.1503 80.8149Z" fill="#231F20"/>
<path d="M14.7166 83.3015C10.2628 80.7321 5.87372 81.6297 5.87372 81.6297C5.87372 81.6297 7.29396 85.8749 11.7477 88.4472C15.5829 90.6608 18.2869 91.3997 21.2173 90.4809C20.5451 87.485 18.5527 85.514 14.7166 83.3015Z" fill="#231F20"/>
<path d="M17.3801 69.1327C19.3553 64.3821 23.3865 62.4304 23.3865 62.4304C23.3865 62.4304 24.8412 66.6674 22.866 71.415C21.1647 75.5035 19.4665 77.7332 16.5815 78.7844C15.2947 75.9977 15.6809 73.2212 17.3801 69.1327Z" fill="#231F20"/>
<path d="M9.60573 69.9696C5.75644 66.5603 1.2764 66.5603 1.2764 66.5603C1.2764 66.5603 1.81719 71.0076 5.66648 74.4169C8.98103 77.3532 11.4829 78.6176 14.5366 78.3043C14.479 75.2356 12.9213 72.9048 9.60573 69.9696Z" fill="#231F20"/>
<path d="M14.8187 56.3356C17.7026 52.0793 22.0492 50.9715 22.0492 50.9715C22.0492 50.9715 22.6264 55.4188 19.7404 59.6691C17.2548 63.3341 15.1451 65.1797 12.1086 65.6325C11.401 62.6437 12.333 60.0006 14.8187 56.3356Z" fill="#231F20"/>
<path d="M7.49308 55.8847C4.40394 51.7739 0.0128455 50.8774 0.0128455 50.8774C0.0128455 50.8774 -0.348025 55.3429 2.74212 59.4536C5.40165 62.9913 7.59922 64.7338 10.654 65.0381C11.2079 62.02 10.1476 59.4243 7.49308 55.8847Z" fill="#231F20"/>
<path d="M14.9935 43.5838C18.673 39.9915 23.148 39.7742 23.148 39.7742C23.148 39.7742 22.8235 44.2428 19.145 47.835C15.976 50.9279 13.5389 52.3127 10.473 52.1489C10.382 49.0803 11.8255 46.6767 14.9935 43.5838Z" fill="#231F20"/>
<path d="M7.79632 41.6169C5.59268 36.9674 1.47147 35.2148 1.47147 35.2148C1.47147 35.2148 0.224088 39.5176 2.42772 44.163C4.32507 48.1636 6.12944 50.3084 9.06189 51.2191C10.2132 48.3728 9.69367 45.6185 7.79632 41.6169Z" fill="#231F20"/>
<path d="M17.1597 31.105C21.1495 27.8615 25.6255 28.0505 25.6255 28.0505C25.6255 28.0505 24.8977 32.4716 20.909 35.7151C17.4721 38.5088 14.9197 39.6671 11.8821 39.2254C12.0691 36.1608 13.7239 33.8988 17.1597 31.105Z" fill="#231F20"/>
<path d="M11.6375 27.8272C10.5559 22.8007 6.94622 20.1454 6.94622 20.1454C6.94622 20.1454 4.74662 24.048 5.82822 29.0745C6.75921 33.4035 8.02478 35.9042 10.6712 37.4637C12.4462 34.9561 12.5726 32.1573 11.6375 27.8272Z" fill="#231F20"/>
<path d="M21.376 19.1751C25.5356 16.1519 29.9944 16.5835 29.9944 16.5835C29.9944 16.5835 29.0291 20.958 24.8694 23.9812C21.287 26.5839 18.676 27.6028 15.6657 26.9973C16.0185 23.9479 17.7936 21.7788 21.376 19.1751Z" fill="#231F20"/>
<path d="M17.2437 15.0139C16.9404 9.88227 13.7795 6.7085 13.7795 6.7085C13.7795 6.7085 11.0108 10.231 11.3121 15.3636C11.5729 19.7836 12.4422 22.448 14.8197 24.3907C16.9526 22.1832 17.5004 19.4349 17.2437 15.0139Z" fill="#231F20"/>
<path d="M29.3101 9.92967C33.2524 5.17912 33.3211 0 33.3211 0C33.3211 0 28.2406 1.01076 24.2943 5.76131C20.8958 9.85083 19.416 12.8548 19.7273 16.3591C23.2299 16.0255 25.9116 14.0202 29.3101 9.92967Z" fill="#231F20"/>
<g clip-path="url(#clip0_1_172)">
<path d="M56.144 62.439L51.827 61.811L49.9 57.9C49.8084 57.7425 49.6771 57.6117 49.5192 57.5208C49.3612 57.43 49.1822 57.3821 49 57.3821C48.8178 57.3821 48.6388 57.43 48.4808 57.5208C48.3229 57.6117 48.1916 57.7425 48.1 57.9L46.173 61.812L41.856 62.439C41.6711 62.4655 41.4974 62.5433 41.3544 62.6634C41.2115 62.7836 41.1051 62.9414 41.0472 63.119C40.9893 63.2966 40.9823 63.4868 41.027 63.6681C41.0717 63.8494 41.1663 64.0146 41.3 64.145L44.423 67.19L43.686 71.49C43.6545 71.6739 43.6751 71.8629 43.7454 72.0358C43.8157 72.2086 43.933 72.3583 44.0839 72.4679C44.2349 72.5776 44.4135 72.6428 44.5996 72.6563C44.7857 72.6697 44.9719 72.6308 45.137 72.544L49 70.513L52.861 72.542C53.0261 72.6288 53.2123 72.6677 53.3984 72.6543C53.5845 72.6408 53.7631 72.5756 53.9141 72.466C54.065 72.3563 54.1823 72.2066 54.2526 72.0338C54.3229 71.8609 54.3435 71.6719 54.312 71.488L53.575 67.188L56.7 64.145C56.8334 64.0147 56.9277 63.8498 56.9724 63.6687C57.017 63.4877 57.0101 63.2978 56.9525 63.1205C56.8948 62.9431 56.7888 62.7854 56.6463 62.6652C56.5038 62.545 56.3305 62.467 56.146 62.44L56.144 62.439Z" fill="black"/>
</g>
<g clip-path="url(#clip1_1_172)">
<path d="M72.144 62.439L67.827 61.811L65.9 57.9C65.8084 57.7425 65.6771 57.6117 65.5192 57.5208C65.3612 57.43 65.1822 57.3821 65 57.3821C64.8178 57.3821 64.6388 57.43 64.4808 57.5208C64.3229 57.6117 64.1916 57.7425 64.1 57.9L62.173 61.812L57.856 62.439C57.6711 62.4655 57.4974 62.5433 57.3544 62.6634C57.2115 62.7836 57.1051 62.9414 57.0472 63.119C56.9893 63.2966 56.9823 63.4868 57.027 63.6681C57.0717 63.8494 57.1663 64.0146 57.3 64.145L60.423 67.19L59.686 71.49C59.6545 71.6739 59.6751 71.8629 59.7454 72.0358C59.8157 72.2086 59.933 72.3583 60.0839 72.4679C60.2349 72.5776 60.4135 72.6428 60.5996 72.6563C60.7857 72.6697 60.9719 72.6308 61.137 72.544L65 70.513L68.861 72.542C69.0261 72.6288 69.2123 72.6677 69.3984 72.6543C69.5845 72.6408 69.7631 72.5756 69.9141 72.466C70.065 72.3563 70.1823 72.2066 70.2526 72.0338C70.3229 71.8609 70.3435 71.6719 70.312 71.488L69.575 67.188L72.7 64.145C72.8334 64.0147 72.9277 63.8498 72.9724 63.6687C73.017 63.4877 73.0101 63.2978 72.9525 63.1205C72.8948 62.9431 72.7888 62.7854 72.6463 62.6652C72.5038 62.545 72.3305 62.467 72.146 62.44L72.144 62.439Z" fill="black"/>
</g>
<g clip-path="url(#clip2_1_172)">
<path d="M88.144 62.439L83.827 61.811L81.9 57.9C81.8084 57.7425 81.6771 57.6117 81.5192 57.5208C81.3612 57.43 81.1822 57.3821 81 57.3821C80.8178 57.3821 80.6388 57.43 80.4808 57.5208C80.3229 57.6117 80.1916 57.7425 80.1 57.9L78.173 61.812L73.856 62.439C73.6711 62.4655 73.4974 62.5433 73.3544 62.6634C73.2115 62.7836 73.1051 62.9414 73.0472 63.119C72.9893 63.2966 72.9823 63.4868 73.027 63.6681C73.0717 63.8494 73.1663 64.0146 73.3 64.145L76.423 67.19L75.686 71.49C75.6545 71.6739 75.6751 71.8629 75.7454 72.0358C75.8157 72.2086 75.933 72.3583 76.0839 72.4679C76.2349 72.5776 76.4135 72.6428 76.5996 72.6563C76.7857 72.6697 76.9719 72.6308 77.137 72.544L81 70.513L84.861 72.542C85.0261 72.6288 85.2123 72.6677 85.3984 72.6543C85.5845 72.6408 85.7631 72.5756 85.9141 72.466C86.065 72.3563 86.1823 72.2066 86.2526 72.0338C86.3229 71.8609 86.3435 71.6719 86.312 71.488L85.575 67.188L88.7 64.145C88.8334 64.0147 88.9277 63.8498 88.9724 63.6687C89.017 63.4877 89.0101 63.2978 88.9525 63.1205C88.8948 62.9431 88.7888 62.7854 88.6463 62.6652C88.5038 62.545 88.3305 62.467 88.146 62.44L88.144 62.439Z" fill="black"/>
</g>
<g clip-path="url(#clip3_1_172)">
<path d="M104.144 62.439L99.827 61.811L97.9 57.9C97.8084 57.7425 97.6771 57.6117 97.5192 57.5208C97.3612 57.43 97.1822 57.3821 97 57.3821C96.8178 57.3821 96.6388 57.43 96.4808 57.5208C96.3229 57.6117 96.1916 57.7425 96.1 57.9L94.173 61.812L89.856 62.439C89.6711 62.4655 89.4974 62.5433 89.3544 62.6634C89.2115 62.7836 89.1051 62.9414 89.0472 63.119C88.9893 63.2966 88.9823 63.4868 89.027 63.6681C89.0717 63.8494 89.1663 64.0146 89.3 64.145L92.423 67.19L91.686 71.49C91.6545 71.6739 91.6751 71.8629 91.7454 72.0358C91.8157 72.2086 91.933 72.3583 92.0839 72.4679C92.2349 72.5776 92.4135 72.6428 92.5996 72.6563C92.7857 72.6697 92.9719 72.6308 93.137 72.544L97 70.513L100.861 72.542C101.026 72.6288 101.212 72.6677 101.398 72.6543C101.584 72.6408 101.763 72.5756 101.914 72.466C102.065 72.3563 102.182 72.2066 102.253 72.0338C102.323 71.8609 102.344 71.6719 102.312 71.488L101.575 67.188L104.7 64.145C104.833 64.0147 104.928 63.8498 104.972 63.6687C105.017 63.4877 105.01 63.2978 104.952 63.1205C104.895 62.9431 104.789 62.7854 104.646 62.6652C104.504 62.545 104.33 62.467 104.146 62.44L104.144 62.439Z" fill="black"/>
</g>
<g clip-path="url(#clip4_1_172)">
<path d="M120.144 62.439L115.827 61.811L113.9 57.9C113.808 57.7425 113.677 57.6117 113.519 57.5208C113.361 57.43 113.182 57.3821 113 57.3821C112.818 57.3821 112.639 57.43 112.481 57.5208C112.323 57.6117 112.192 57.7425 112.1 57.9L110.173 61.812L105.856 62.439C105.671 62.4655 105.497 62.5433 105.354 62.6634C105.211 62.7836 105.105 62.9414 105.047 63.119C104.989 63.2966 104.982 63.4868 105.027 63.6681C105.072 63.8494 105.166 64.0146 105.3 64.145L108.423 67.19L107.686 71.49C107.654 71.6739 107.675 71.8629 107.745 72.0358C107.816 72.2086 107.933 72.3583 108.084 72.4679C108.235 72.5776 108.414 72.6428 108.6 72.6563C108.786 72.6697 108.972 72.6308 109.137 72.544L113 70.513L116.861 72.542C117.026 72.6288 117.212 72.6677 117.398 72.6543C117.584 72.6408 117.763 72.5756 117.914 72.466C118.065 72.3563 118.182 72.2066 118.253 72.0338C118.323 71.8609 118.344 71.6719 118.312 71.488L117.575 67.188L120.7 64.145C120.833 64.0147 120.928 63.8498 120.972 63.6687C121.017 63.4877 121.01 63.2978 120.952 63.1205C120.895 62.9431 120.789 62.7854 120.646 62.6652C120.504 62.545 120.33 62.467 120.146 62.44L120.144 62.439Z" fill="black"/>
</g>
<defs>
<clipPath id="clip0_1_172">
<rect width="16" height="16" fill="white" transform="translate(41 57)"/>
</clipPath>
<clipPath id="clip1_1_172">
<rect width="16" height="16" fill="white" transform="translate(57 57)"/>
</clipPath>
<clipPath id="clip2_1_172">
<rect width="16" height="16" fill="white" transform="translate(73 57)"/>
</clipPath>
<clipPath id="clip3_1_172">
<rect width="16" height="16" fill="white" transform="translate(89 57)"/>
</clipPath>
<clipPath id="clip4_1_172">
<rect width="16" height="16" fill="white" transform="translate(105 57)"/>
</clipPath>
</defs>
</svg>
