<svg width="228" height="38" viewBox="0 0 228 38" fill="none" xmlns="http://www.w3.org/2000/svg">
<path d="M7.52941 38L12.2353 23.6341L0 14.8293H15.5294L20.2353 0L25.4118 14.8293H40L20.2353 28.9332L29.6471 26.878L32.9412 38L20.2353 28.9332L7.52941 38Z" fill="#51B37F"/>
<path d="M53.3412 38L57.9294 23.6341L46 14.8293H61.1412L65.7294 0L70.7765 14.8293H85L65.7294 28.9332L74.9059 26.878L78.1176 38L65.7294 28.9332L53.3412 38Z" fill="#51B37F"/>
<path d="M100.529 38L105.235 23.6341L93 14.8293H108.529L113.235 0L118.412 14.8293H133L113.235 28.9332L122.647 26.878L125.941 38L113.235 28.9332L100.529 38Z" fill="#51B37F"/>
<path d="M146.529 38L151.235 23.6341L139 14.8293H154.529L159.235 0L164.412 14.8293H179L159.235 28.9332L168.647 26.878L171.941 38L159.235 28.9332L146.529 38Z" fill="#51B37F"/>
<path d="M195.529 38L200.235 23.6341L188 14.8293H203.529L208.235 0L213.412 14.8293H228L208.235 28.9332L217.647 26.878L220.941 38L208.235 28.9332L195.529 38Z" fill="#51B37F"/>
</svg>
