<?xml version="1.0" encoding="utf-8"?>
<!-- Generator: Adobe Illustrator 26.2.1, SVG Export Plug-In . SVG Version: 6.00 Build 0)  -->
<svg version="1.1" id="Layer_1" xmlns="http://www.w3.org/2000/svg" xmlns:xlink="http://www.w3.org/1999/xlink" x="0px" y="0px"
	 viewBox="0 0 548.9 381.9" style="enable-background:new 0 0 548.9 381.9;" xml:space="preserve">
<style type="text/css">
	.st0{display:none;}
	.st1{display:none;fill:#101010;}
	.st2{display:none;fill:#FDFDFD;}
	.st3{fill:#274A76;}
	.st4{fill:#7F86A6;}
	.st5{fill:#595959;}
	.st6{fill:#969696;}
	.st7{fill:#FFFFFF;}
	.st8{fill:#FEFEFE;}
	.st9{fill:#FCFCFC;}
	.st10{fill:#AFAFAF;}
	.st11{fill:#010101;}
	.st12{fill:#020202;}
	.st13{fill:#030303;}
	.st14{fill:#8F8F8F;}
	.st15{fill:#5B5B5B;}
	.st16{fill:#F1F1F1;}
	.st17{fill:none;stroke:#000000;stroke-width:2;stroke-miterlimit:10;}
</style>
<g>
	<path class="st0" d="M17.1,319.2c0-107.9,0-215.9,0-323.8c167.1,0,334.3,0,501.4,0c0,107.9,0,215.9,0,323.8
		c-0.4,0.2-0.8,0.1-1.2,0.1c-166.3,0-332.7,0-499,0C17.9,319.3,17.5,319.4,17.1,319.2z"/>
	<path class="st1" d="M20.5,316.9c167.1,0,334.3,0,501.4,0c-0.1,0.1,0.1,0.2-0.1,0.2c-0.3,0-0.6,0-0.8,0c-166.4,0-333,0-499.4,0
		C21.1,317.1,20.8,317.4,20.5,316.9z"/>
	<path class="st2" d="M271.3-5c82.3,0,164.7,0,247.1,0c1.8,0,1.8,0,1.8,1.8c0,105.6,0,211.2,0,316.7c0,2.1,0.3,1.7-1.8,1.7
		c-164.7,0-329.4,0-494.2,0c-1.8,0-1.8,0-1.8-1.8c0-105.6,0-211.2,0-316.7c0-2-0.3-1.7,1.8-1.7C106.6-5,189-5,271.3-5z"/>
	<path class="st3" d="M155,163.2c41.1,0,82.1,0,123.2,0c0.9,0,1.9,0,2.8,0c0.9,0,0.9,0.1,0.8,1c-0.8,8.4-2.3,16.9-4.8,25
		c-2.3,7.8-5.3,15.1-9,22.3c-0.5,0.9-1,1.2-2.1,1.2c-74.2,0-148.3,0-222.5,0c-1,0-1.5-0.3-2.1-1.2c-6.3-12.1-10.4-24.9-12.7-38.4
		c-0.4-2.8-0.8-5.7-1.1-8.5c-0.1-1.3-0.1-1.3,1.2-1.3c0.9,0,1.7,0,2.6,0C73,163.2,114.1,163.2,155,163.2z"/>
	<path class="st3" d="M58.9,215.9c0.5,0,1,0,1.5,0c62.8,0,125.8,0,188.8,0c0.8,0,1.3,0,2.1,0c0.6,0.6,0.1,1.1-0.2,1.5
		c-1.9,2.9-4,5.6-6.3,8.3c-3.2,4-6.8,7.6-10.5,11.2c-1.2,1.2-2.5,2.3-3.7,3.4c-0.6,0.5-0.8,1-0.3,1.7c0.6,0.8,1.1,0.5,1.7,0
		c1.1-0.9,2.3-1.8,3.2-2.8c7.1-6.8,13.6-14.2,18.8-22.4c0.3-0.5,0.8-0.8,1.3-1c3.5,0,6.8,0,10.2,0c-16.6,30.8-54.9,63.1-106.8,64.5
		c-55.7,1.7-96.8-31.7-114.6-64.4c1.7-0.1,3.5,0,5.1-0.1c1.6,0,3.4,0,5,0c0.9,0.3,1.4,0.9,1.9,1.6c3,4.5,6.3,8.9,9.8,13
		c1.8,2.1,3.7,4.1,5.6,6.1c1.9,1.8,3.9,3.7,5.9,5.4c0.9,0.8,1.4,0.8,1.9,0.2c0.5-0.6,0.5-1.1-0.1-1.6c-1.1-1-2.3-2.2-3.5-3.1
		c-5.8-5.3-10.8-11.2-15.5-17.4c-0.6-0.9-1.3-1.8-1.9-2.7C58.6,216.8,58.4,216.3,58.9,215.9z"/>
	<path d="M523,154.5c0,46.3,0,92.7,0,139.1c0,1.8,0,1.8-1.8,1.8c-72,0-144.1,0-216.1,0c-2.2,0-1.8,0.3-1.8-1.8
		c0-92.7,0-185.5,0-278.2c0-2.1-0.3-1.7,1.8-1.7c72,0,144.2,0,216.2,0c2.1,0,1.7-0.3,1.7,1.7C523,61.7,523,108.2,523,154.5z"/>
	<path class="st3" d="M180.5,113.7c4.4,3.4,7.4,7.9,9.8,12.8c1.8,3.5,3.4,6.9,4.7,10.7c0.3,1,0.3,1-0.6,1.4
		c-2.1,0.8-3.8,1.9-5.4,3.2c-2.7,2.3-4.4,5-4.9,8.5c0,0.2,0,0.4-0.2,0.6c-0.9-0.2-1.7-0.6-2.6-0.8c-2.6-0.4-5.2,0-7.6,1
		c-2.1,0.9-3.8,2.2-5.5,3.6c-0.8,0.6-0.8,0.6-1.3,0c-4.2-4.4-8.2-9.2-11.2-14.5c-1.6-2.8-2.8-5.7-3.2-8.9c-0.2,0-0.3,0.1-0.3,0.2
		c-0.9,2.9-2.4,5.4-4.2,7.8c-3.8,5.1-8.4,9.2-13.4,13c-0.6,0.5-0.8,0.5-1.2-0.1c-1.3-1.5-2.8-2.9-4.4-4c-2.6-1.8-5.5-2.7-8.7-2.4
		c-0.3,0-0.8,0.1-1,0.2c-0.3,0-0.6,0.2-0.9,0c0-0.6,0-1.2,0-1.8c-0.2-3-1.5-5.5-3.5-7.8c-1.5-1.7-3.2-3-5.2-4.2
		c-0.8-0.5-0.8-0.5-0.3-1.3c3-5.5,6.4-10.9,10.8-15.6c1.9-2.1,4-3.8,6.7-5.2c0.1-0.1,0.3-0.1,0.3-0.4c-0.8,0-1.4-0.1-2.2-0.1
		c-2.9-0.3-5.6-1.1-8.3-2.2c-5.3-2.2-10.2-5-14.8-8.1c-0.8-0.5-0.8-0.6-0.3-1.4c1.2-2.2,2.3-4.2,2.7-6.7c0.8-3.2,0.4-6.3-1.4-9.2
		c-0.1-0.1-0.1-0.2-0.1-0.3v0c0.1-0.2,0.2-0.2,0.4-0.2c2.9-0.8,5.1-2.3,6.8-4.7c1.6-2.2,2.5-4.5,3.2-7c0.1-0.2,0.1-0.4,0.1-0.6
		c0.2-0.8,0.3-0.8,1.1-0.8c2.4,0.4,4.9,0.9,7.2,1.6c3.9,1.1,7.9,2.3,11.6,4.2c2.3,1.2,4.4,2.5,6.3,4.4c0.1,0.1,0.2,0.1,0.3,0.2
		c0.2-0.1,0.1-0.3,0.1-0.4c-1.2-3.8-1.2-7.6-0.9-11.4c0.4-5.2,1.5-10.2,2.9-15.1c0.1-0.2,0.1-0.4,0.2-0.6c0.1-0.6,0.4-0.8,1-0.6
		c1.2,0.3,2.5,0.5,3.8,0.6c2.3,0.2,4.7,0,6.8-0.8c1.8-0.6,3.5-1.7,4.8-3.2c0.2-0.2,0.3-0.4,0.5-0.5c0.1,0,0.2,0,0.2,0.1
		c2.3,3.7,5.6,5.3,9.7,5.9c1.7,0.3,3.5,0.2,5.3,0.2c0.9,0,1,0,1.1,0.9c0.8,5.1,1.1,10.2,0.8,15.3c-0.1,2.5-0.4,5-1.1,7.4
		c-0.3,1.3-0.8,2.5-1.3,3.8c-0.1,0.3-0.3,0.5-0.3,0.8c0.1,0.2,0.3,0.1,0.3,0.1c3.4-2.4,7.1-3.7,11.1-4.5c4.9-1.1,9.8-1.6,14.8-1.7
		c1.2,0,1.2,0,1.3,1.2c0.2,2.3,0.8,4.3,1.5,6.4c1.3,3.1,3.5,5.6,6.8,6.9c0.1,0,0.2,0.1,0.3,0.2c0.1,0.3-0.2,0.5-0.4,0.8
		c-2.1,2.6-2.7,5.5-2.5,8.8c0.2,2.3,0.8,4.5,1.7,6.8c0.4,0.9,0.4,0.9-0.5,1.3c-6.2,2.9-12.5,5.4-19.3,6.5
		C185.6,114,183.1,114.1,180.5,113.7z"/>
	<path class="st3" d="M290.6,153.2c-0.5,36.7-13.1,68.4-38.7,94.8c-18.9,19.6-42,32.1-68.6,37.9c-7.1,1.5-14.3,2.4-21.6,2.7
		c-6.3,0.3-12.4,0.2-18.6-0.3c-16.6-1.4-32.3-5.6-47.4-13C65.1,260,43,236.6,29.7,205c-4.5-10.8-7.4-22-9-33.7
		c-1.1-8.2-1.5-16.4-1.1-24.8c1.7-30.4,12.2-57.5,31.9-80.8c9.4-11.2,20.3-20.4,32.7-28.1c0.2-0.1,0.3-0.2,0.5-0.3
		c0.9-0.5,0.9-0.5,1.4,0.4s1,1.7,1.5,2.5c0.3,0.5,0.3,0.8-0.3,1.1c-1.5,0.9-3.1,1.9-4.7,2.9c-26.3,17.8-44.1,42-53.2,72.5
		c-2.3,7.6-3.7,15.4-4.4,23.3c-0.8,7.4-0.9,14.7-0.4,22.2c2.3,29.7,13.1,55.9,33.1,78.2c15.3,17.1,33.6,29.3,55.3,36.7
		c8.3,2.8,16.9,4.8,25.6,5.8c5.3,0.8,10.8,1.1,16.2,1c31.7-0.2,59.9-10.2,84.4-30.6c16.7-14,29.1-30.8,37.2-50.9
		c4-9.8,6.8-20.2,8.3-30.8c1-6.8,1.4-13.7,1.3-20.6c-0.6-27.8-9-53.2-25.6-75.6c-10-13.5-22.2-24.8-36.5-33.6
		c-0.2-0.1-0.3-0.2-0.5-0.3c-0.5-0.2-0.5-0.5-0.2-1c0.6-1,1.2-1.9,1.7-2.9c0.3-0.4,0.5-0.5,0.9-0.2c0.9,0.6,1.8,1.1,2.7,1.7
		c26.5,17.5,45.1,41.2,55.4,71.4c3,9.1,5.1,18.4,6.1,27.8C290.3,143.2,290.6,148.2,290.6,153.2z"/>
	<path class="st3" d="M27.9,160c-0.4-5.4-0.2-11,0.1-16.4c0.5-7.1,1.6-14.3,3.5-21.3c4.9-20,14.2-37.5,27.6-53
		c8.4-9.7,18.3-18,29.2-24.8c1.5-0.9,1.3-0.9,2.2,0.6c1.1,1.8,2.2,3.7,3.2,5.4c0.3,0.9-0.3,1.2-0.9,1.6c-4.1,2.6-8.1,5.3-11.9,8.4
		c-11.5,9.7-21.2,20.8-28.6,33.9c-6.4,11.2-10.7,23.1-13.1,35.8c-0.9,4.9-1.5,9.8-1.8,14.8c-0.3,4.7-0.2,9.3-0.1,14.1
		c0,0.4-0.1,0.8-0.4,1l0,0C33.7,160.2,30.8,160.3,27.9,160z"/>
	<path class="st3" d="M217,50.8c1.1-1.9,2.3-3.8,3.4-5.7c0.6-1,0.6-1,1.6-0.4c6.1,3.8,11.7,7.9,17.1,12.7
		c19.5,17.3,32.6,38.4,39.3,63.8c1.7,6.7,2.9,13.4,3.6,20.3c0.5,5.9,0.6,11.9,0.4,17.8c0,0.6-0.2,0.9-0.9,0.9c-2.3-0.1-4.5,0-6.8,0
		c-1.3,0-1.7-0.4-1.6-1.7c0.3-2.5,0.2-5,0.2-7.5c-0.2-11-1.8-21.9-5-32.5c-2.3-7.2-5.1-14.3-8.5-21.1c-4.2-7.9-9.2-15.4-15.1-22.1
		c-2.5-2.8-5.1-5.5-7.8-8.2c-5.5-5.3-11.6-10.1-18.1-14.3C217.9,52.6,216.5,52.2,217,50.8z"/>
	<path class="st4" d="M217,50.8c0.1,0.6,0.8,0.9,1.1,1.1c3.1,1.9,6.2,4,9.1,6.3c5.2,3.9,10,8.3,14.4,13c6.7,7,12.3,14.7,17.1,23.1
		c6.3,11.1,10.6,22.9,13,35.5c0.8,4.2,1.3,8.4,1.7,12.8c0.4,4.7,0.4,9.2,0.4,13.8c0,0.8-0.2,1.6-0.2,2.5c0,0.8,0.1,1,1,1
		c2.3,0,4.4,0,6.7,0c0.5,0,0.9-0.2,1.1-0.8c0.1,0.6-0.1,0.9-0.8,0.9c-2.7,0-5.3,0.1-8.1-0.1c-0.8,0-1.6,0-2.5-0.1
		c-0.9,0-1-0.1-0.9-1c0.2-4,0.3-8.1,0.1-12.1c-0.8-13.2-3.5-26.1-8.4-38.3c-4.8-11.5-11.2-22-19.3-31.4
		c-7.7-8.8-16.3-16.3-26.3-22.6c-0.1-0.1-0.3-0.2-0.4-0.3c-0.6-0.4-0.8-0.5-0.3-1.3C215.9,52.6,216.4,51.6,217,50.8z"/>
	<path class="st4" d="M36.5,160.1c-0.2-0.8-0.2-1.6-0.2-2.5c0-2.9-0.1-5.9,0-8.9c0.1-4.9,0.6-9.7,1.3-14.5c1.1-7,2.8-13.8,5.2-20.6
		c3.7-10.5,8.8-20.3,15.3-29.4c5-6.9,10.5-13.2,16.8-18.9c5.4-5.1,11.3-9.5,17.6-13.4c0.5-0.3,1-0.5,1.2-1.1
		c0.5,0.9,1.1,1.7,1.6,2.6c0.3,0.4,0.2,0.8-0.2,1c-0.3,0.2-0.6,0.4-0.9,0.6c-9,5.6-17,12.4-24.1,20.2c-6.7,7.2-12.4,15.2-17,23.9
		c-5.1,9.5-8.7,19.6-10.9,30.2c-1,5.1-1.7,10.1-2.2,15.3c-0.2,2.8-0.2,5.6-0.3,8.3c-0.1,1.9,0.1,3.8,0.1,5.6c0,0.3,0,0.6,0,0.9
		c0,0.6-0.3,0.9-0.8,0.9C38.3,160.1,37.4,160.1,36.5,160.1z"/>
	<path class="st3" d="M113,45c-0.9,0-1.7,0-2.4-0.2c-0.4-0.1-0.8-0.3-0.6-0.8c0.1-0.8,0.1-1.4,0.2-2.2c0-0.5,0.3-0.6,0.8-0.5
		c1.9,0.4,3.8,0.2,5.7-0.4c0.8-0.2,1.3-0.5,1.8-1c0.5-0.5,0.8-1,0.6-1.7c-0.2-0.8-0.8-1-1.4-1.1c-1.2-0.2-2.4,0-3.7,0.1
		c-0.9,0.1-1.9,0.1-2.8,0.1c-3.8-0.1-6.1-4.1-4-7.5c0.5-0.9,1.3-1.6,2.2-2.3c2.5-1.6,5.3-2.3,8.2-2.1c1,0.1,1.1,0.1,1,1.1
		c-0.1,0.8,0.2,1.6-0.3,2.3c-0.5,0.5-1.3,0-2.1,0c-1.4,0.1-2.7,0.3-4,0.9c-0.5,0.2-1,0.6-1.3,1c-0.8,1.1-0.2,2.4,1.1,2.5
		c1,0.1,2.1,0,2.9-0.1c1.2-0.2,2.4-0.2,3.7-0.2c4.2,0.1,5.4,4.3,4.1,6.8c-0.6,1.2-1.5,2.2-2.6,2.8C117.8,44.3,115.4,45,113,45z"/>
	<path d="M420.7,326.6c0.5,0.3,0.9,0.2,1.3,0.2c3.1,0,6.2,0,9.3,0c1.1,0,1.1,0,1.1,1.1c0,2.1,0.2,1.8-1.8,1.8c-4.2,0-8.5,0-12.8,0
		c-1.4,0-1.6-0.2-1.2-1.6c0.4-1.3,1.1-2.5,2.1-3.7c1.1-1.3,2.4-2.5,3.8-3.7c1.5-1.2,2.9-2.5,4.3-3.8c0.8-0.8,1.5-1.7,2.1-2.7
		c0.8-1.6,0.8-3.2-0.3-4.7c-1.3-1.6-3-1.9-5-1.5c-1.8,0.4-2.9,1.6-3.4,3.6c-0.2,1.2-0.2,1.2-1.4,1.1c-1.9-0.2-2.1-0.3-1.4-2.2
		c0.8-2.4,2.3-4.1,4.9-4.8c1.6-0.4,3.2-0.5,4.9-0.1c4.2,0.9,6.5,5.1,4.9,9.1c-0.5,1.3-1.3,2.3-2.3,3.4c-1.3,1.4-2.8,2.7-4.2,3.9
		c-1,0.9-2.1,1.7-3,2.6C421.6,325.2,421.1,325.8,420.7,326.6z"/>
	<path class="st4" d="M255.6,215.9c-2.9,4.8-6.3,9.2-9.8,13.5c-3,3.7-6.5,6.9-9.8,10.3c-1.3,1.3-2.7,2.5-4.1,3.8
		c-0.6,0.5-0.8,0.5-1.1-0.1c-0.3-0.4-0.8-0.8-1-1.2c-0.8-0.8-0.6-1,0.1-1.6c0.8-0.8,1.5-1.3,2.3-1.9c6.4-5.6,12-12,17-18.9
		c0.8-1.2,1.8-2.3,2.4-3.7C252.6,215.9,254,215.9,255.6,215.9z"/>
	<path class="st4" d="M58.9,215.9c0,0.5,0.3,0.9,0.6,1.3c2.6,3.9,5.5,7.7,8.5,11.2c1.9,2.3,3.9,4.4,6.1,6.5c2.1,1.9,4,3.8,6.2,5.5
		c0.9,0.8,0.9,0.8,0.1,1.8c-0.3,0.3-0.5,0.8-0.8,1c-0.6,0.8-0.6,0.8-1.3,0.1c-1-0.8-1.9-1.6-2.9-2.4c-6.9-6.3-13.1-13.3-18.4-21
		c-0.9-1.3-1.6-2.7-2.7-3.9C55.9,215.9,57.4,215.9,58.9,215.9z"/>
	<path class="st3" d="M214.6,34c0,0.1-0.1,0.3-0.2,0.5c-2.3,5-4.7,9.8-7,14.7c-0.4,0.8-0.4,0.8-1.1,0.4c-0.8-0.3-1.5-0.8-2.3-1.1
		c-0.8-0.4-0.8-0.4-0.4-1.2c1.1-2.4,2.3-4.8,3.5-7.1c0.8-1.4,1.4-2.9,2.2-4.3c0.4-0.9,0.4-0.9-0.5-1.3c-0.6-0.3-1.2-0.6-1.8-0.9
		c-0.3-0.2-0.5-0.4-0.3-0.8c0.3-0.8,0.6-1.3,1-2.1c0.2-0.4,0.4-0.4,0.8-0.2c2.1,0.9,4,1.9,5.9,2.8C214.4,33.5,214.6,33.6,214.6,34z"
		/>
	<path class="st3" d="M108.3,47c0,0.3-0.1,0.4-0.3,0.5c-0.9,0.4-1.8,0.9-2.8,1.3c-0.3,0.2-0.6,0.1-0.8-0.3c-0.1-0.2-0.2-0.5-0.4-0.8
		c-2.2-4.7-4.3-9.3-6.5-13.8c-0.1-0.2-0.2-0.4-0.3-0.6c-0.2-0.4-0.1-0.6,0.3-0.8c0.9-0.4,1.7-0.8,2.6-1.2c0.4-0.2,0.8-0.1,0.9,0.3
		c0.1,0.2,0.2,0.4,0.2,0.5c2.3,4.8,4.3,9.4,6.6,14.2C108.1,46.6,108.2,46.8,108.3,47z"/>
	<path class="st5" d="M194.7,57.6c0-2.1,1.5-3.6,3.6-3.6s3.7,1.6,3.7,3.7c0,1.9-1.7,3.6-3.7,3.6C196.2,61.2,194.7,59.7,194.7,57.6z"
		/>
	<path class="st6" d="M27.9,160c2.9,0,5.8,0,8.8,0c-0.3,0.2-0.8,0.2-1,0.2c-2.3,0-4.4,0-6.8,0C28.4,160.3,28.2,160.3,27.9,160z"/>
	<path class="st7" d="M162.9,196.3c0.8,1.1,1.9,1.4,3.2,1.2c0.5-0.1,0.9-0.3,1.3-0.5s0.6-0.8,1.1-0.6c0.5,0.1,0.8,0.6,1,1l0.1,0.1
		c1,1.3,1.1,1.4-0.4,2.3c-2.6,1.7-5.3,1.5-8.1,0.1c-1.2-0.6-2.2-1.5-3-2.4c-0.5-0.5-0.9-0.8-1.6-0.9c-4.2-0.9-7-3.5-8-7.8
		c-1.2-5.5,2.4-10.8,8.1-11.8c2.9-0.5,5.6-0.2,8.3,1.3c3.5,2.2,5,5.3,4.7,9.2c-0.2,3.8-2.2,6.5-5.4,8.2
		C163.7,195.8,163.3,195.9,162.9,196.3z"/>
	<path class="st7" d="M136.7,196.9c-1.4,0-2.6-0.2-3.8-0.5c-4.5-1.4-7.2-5.4-7-10.1c0.3-4.7,3.7-8.4,8.3-9.3
		c2.2-0.4,4.1-0.3,6.3,0.4c4.3,1.5,7.1,5.5,6.8,10.1c-0.4,4.8-3.7,8.4-8.3,9.2C138.1,196.8,137.3,196.9,136.7,196.9z"/>
	<path class="st7" d="M209.7,196.4c-1.4,0-2.7,0-4,0c-0.5,0-0.8-0.4-1-0.8c-0.9-1.3-1.8-2.6-2.7-3.9c-0.3-0.5-0.8-0.8-1.3-0.8
		c-0.8,0-1.6,0-2.5,0c-0.5,0-0.8,0.2-0.8,0.8c0,1.1,0,2.3,0,3.5s0,1.1-1.1,1.1c-0.8,0-1.6,0-2.4,0c-0.9,0-1-0.1-1-1
		c0-0.2,0-0.5,0-0.8c0-5.3,0-10.6,0-15.8c0-0.3,0-0.6,0-0.9c0-0.6,0.3-0.8,0.8-0.8c3.1,0,6.2-0.1,9.3,0.1c0.9,0.1,1.9,0.3,2.7,0.8
		c3.7,1.6,5.2,5.8,3.4,9.4c-0.5,1.1-1.4,1.9-2.4,2.5c-0.8,0.5-0.8,0.5-0.3,1.3c0.9,1.4,1.9,2.7,2.8,4.1
		C209.3,195.6,209.6,195.8,209.7,196.4z"/>
	<path class="st7" d="M191.3,196.4c-1.3,0-2.6,0-3.9,0c-0.4,0-0.6-0.3-0.8-0.6c-0.4-0.9-0.8-1.7-1.1-2.6c-0.2-0.6-0.5-0.9-1.2-0.8
		c-2.4,0-5,0-7.4,0c-0.5,0-0.9,0.2-1.1,0.8c-0.3,0.9-0.8,1.8-1.1,2.7c-0.2,0.5-0.5,0.8-1,0.8c-1.1,0-2.2,0-3.2,0
		c-0.5,0-0.8-0.2-0.4-0.8c0.1-0.2,0.2-0.4,0.3-0.6c2.5-5.6,5.1-11.2,7.5-16.9c0.4-0.8,0.8-1.3,1.7-1.2c0.8,0.1,1.6,0,2.5,0
		c0.5,0,0.9,0.2,1.1,0.8c0.2,0.6,0.5,1.2,0.8,1.8c2.3,5.2,4.7,10.3,6.9,15.5C191.2,195.5,191.6,195.8,191.3,196.4z"/>
	<path class="st7" d="M116.8,196.9c-2.4,0-4.8-0.5-6.8-1.6c-1.1-0.6-1.1-0.6-0.6-1.7c0.3-0.8,0.4-1.7,1.1-2.1
		c0.6-0.3,1.3,0.5,2.1,0.8c1.8,0.8,3.8,1.1,5.6,0.8c0.6-0.1,1.2-0.2,1.6-0.6c1-0.8,1-1.9,0-2.7c-0.5-0.4-1.2-0.6-1.8-0.8
		c-1.2-0.3-2.4-0.6-3.6-0.9c-0.6-0.2-1.1-0.3-1.7-0.5c-1.8-0.8-3.1-1.9-3.4-3.9c-0.3-2.2,0.4-3.9,2.2-5.3c1.3-1,2.8-1.4,4.4-1.6
		c2.6-0.3,5.2,0.1,7.5,1.2c0.8,0.4,0.8,0.4,0.5,1.2c-0.2,0.6-0.5,1.2-0.8,1.8c-0.3,0.8-0.3,0.8-1,0.4c-1.8-0.9-3.8-1.3-5.8-1
		c-0.6,0.1-1.1,0.2-1.5,0.5c-1.2,0.8-1.1,2.3,0.2,3c0.8,0.3,1.4,0.5,2.2,0.8c1.2,0.3,2.3,0.6,3.6,0.9c0.4,0.1,0.8,0.3,1.2,0.4
		c1.7,0.8,2.9,1.8,3.2,3.8c0.3,2.2-0.4,3.9-2.2,5.3c-1.6,1.2-3.5,1.5-5.3,1.7C117.2,196.9,117,196.9,116.8,196.9z"/>
	<path class="st7" d="M102.1,186.7c0-2.8,0-5.6,0-8.5c0-1.1,0-1.1,1.1-1.1c0.9,0,1.8,0,2.7,0c0.4,0,0.8,0.2,0.6,0.6
		c0,0.3,0,0.5,0,0.8c0,5.4,0,10.9,0,16.3c0,0.2,0,0.4,0,0.6c0,0.8-0.1,0.9-0.9,0.9c-0.9,0-1.7,0-2.6,0c-1,0-1,0-1-1
		C102.1,192.5,102.1,189.6,102.1,186.7z"/>
	<path class="st7" d="M202.3,231.1c0-1.9,0-3.8,0-5.8c0-1.1,0-1.1,1-1.1c2.3,0,4.4-0.1,6.7,0.1c4.4,0.5,7,4.2,6.1,8.5
		c-0.6,2.7-2.5,4.2-5.1,5c-0.8,0.2-1.4,0.3-2.2,0.3c-1.8,0-3.8,0-5.5,0c-0.9,0-0.9,0-0.9-0.9C202.3,235.2,202.3,233.2,202.3,231.1z"
		/>
	<path class="st7" d="M188.3,238.1c-0.9,0-1.9,0-2.8,0c-0.4,0-0.6-0.3-0.8-0.6c-0.6-0.8-1.1-1.6-1.7-2.4c-0.4-0.6-0.8-0.8-1.4-0.8
		c-2.3,0-2.1-0.1-2.1,1.9c0,2.2,0.3,1.9-2.1,1.9c-1.2,0-1.2,0-1.2-1.2c0-3.8,0-7.8,0-11.6c0-1.1,0-1.1,1-1.1c2.2,0,4.2-0.2,6.4,0.1
		c1.9,0.3,3.6,1.2,4.2,3.1c0.6,1.7,0.4,4.3-1.8,5.7c-0.8,0.4-0.8,0.5-0.2,1.2c0.8,1.1,1.6,2.3,2.3,3.5
		C188.3,237.9,188.3,238,188.3,238.1z"/>
	<path class="st7" d="M107.4,238.1c-1,0-1.8,0-2.7,0c-0.4,0-0.6-0.3-0.8-0.6c-0.6-0.8-1.2-1.6-1.7-2.4c-0.4-0.8-0.9-0.9-1.6-0.8
		c-2.3,0.1-1.8-0.1-1.9,1.9c0,2.2,0.3,1.9-2.1,1.9c-1.2,0-1.2,0-1.2-1.2c0-3.8,0-7.8,0-11.6c0-1,0.1-1.1,1.1-1.1
		c2.1,0,4.1-0.1,6.2,0.1c0.8,0.1,1.5,0.3,2.3,0.8c3.2,1.6,3.2,6.5,0.6,8.2c-0.1,0.1-0.3,0.2-0.4,0.3c-0.4,0.2-0.4,0.5-0.1,0.9
		c0.8,1,1.4,2.1,2.2,3C107.2,237.5,107.4,237.6,107.4,238.1z"/>
	<path class="st8" d="M163.9,231c0-1.9,0-3.8,0-5.6c0-1.1,0-1.2,1.1-1.2c2.7,0,5.5,0,8.3,0c1,0,1.1,0.1,1.1,1.1c0,0.2,0,0.3,0,0.5
		c0,1-0.1,1-1.1,1c-1.7,0-3.5,0-5.2,0c-1,0-1,0-1,1c0,2.3-0.2,2.1,1.9,2.1c1.2,0,2.4,0,3.6,0c0.9,0,0.9,0,0.9,0.8
		c0.1,1.6,0.1,1.6-1.6,1.6c-1.3,0-2.6,0-3.9,0c-0.8,0-0.9,0.1-0.9,0.9c0,2.7-0.3,2.3,2.3,2.3c1.4,0,2.8,0,4.2,0c1,0,1,0,1,1
		c0.1,1.6,0.1,1.6-1.6,1.6c-2.6,0-5.3,0-8,0c-1.2,0-1.3,0-1.3-1.2C163.9,234.9,163.9,233.1,163.9,231z"/>
	<path class="st7" d="M108.9,231.1c0-2.1,0-3.9,0-5.9c0-1,0.1-1,1-1c2.8,0,5.6,0,8.4,0c1,0,1,0.1,1,1c0.1,1.6,0.1,1.6-1.6,1.6
		c-1.6,0-3.1,0-4.8,0c-0.9,0-0.9,0.1-0.9,1c0,2.3-0.2,2.1,1.9,2.1c1.2,0,2.4,0,3.7,0c0.6,0,0.9,0.2,0.8,0.8c0,0.2,0,0.4,0,0.6
		c0,1,0,1-1.1,1.1c-1.4,0-2.8,0-4.2,0c-1,0-1,0.1-1,1c0,2.6-0.3,2.2,2.2,2.3c1.5,0,3.1,0,4.7,0c0.6,0,0.8,0.2,0.8,0.8
		c0,2.2,0,1.8-1.6,1.8c-2.6,0-5.3,0-8,0c-1.1,0-1.1,0-1.1-1.1C108.9,235,108.9,233.2,108.9,231.1z"/>
	<path class="st7" d="M133.4,233.9c0,0.8,0,1.3,0,2.1c0,0.5-0.2,0.9-0.8,1.1c-2.9,1.5-5.9,1.9-9,0.3c-2.6-1.4-3.9-4.3-3.5-7.4
		c0.5-3,2.7-5.3,5.7-5.8c1.5-0.3,3-0.2,4.4,0.2c0.9,0.3,1.7,0.8,2.5,1.4c0.6,0.5,0.6,0.6,0.1,1.2c-0.1,0.1-0.2,0.2-0.3,0.3
		c-1,0.9-1,0.9-2.3,0.2c-1.6-1-3.4-1-5-0.1c-1.5,0.9-2.2,2.3-2.1,4c0.1,3.5,3.5,5,6.4,3.8c0.4-0.2,0.5-0.5,0.5-0.9
		c0-0.8,0-1.6,0-2.5c0-0.6,0.2-0.8,0.8-0.8c2.4,0,2.2-0.1,2.2,1.9C133.4,233.2,133.4,233.5,133.4,233.9L133.4,233.9z"/>
	<path class="st8" d="M189.8,231c0-1.8,0-3.8,0-5.5c0-1.2,0-1.2,1.3-1.2c2.6,0,5.3,0,8,0c1.3,0,1.3,0,1.3,1.3c0,0.1,0,0.2,0,0.4
		c0,0.8-0.1,0.9-0.9,0.9c-1.7,0-3.5,0-5.3,0c-1.2,0-1.2,0-1.2,1.2c0,2.1-0.2,1.8,1.7,1.8c1.2,0,2.4,0,3.7,0c0.9,0,0.9,0,1,0.9v0.1
		c0,1.4,0,1.4-1.4,1.4c-1.4,0-2.7,0-4.1,0c-0.6,0-0.9,0.2-0.8,0.8c0,0.5,0,1,0,1.5c0,0.6,0.3,0.8,0.8,0.8c1.7,0,3.5,0,5.3,0
		c0.3,0,0.6,0,0.9,0c0.8,0.1,0.5,0.8,0.5,1.2c0,0.5,0.3,1.2-0.5,1.3c-0.2,0-0.4,0-0.6,0c-2.8,0-5.6,0-8.3,0c-1.2,0-1.2,0-1.2-1.3
		C189.8,234.8,189.8,233,189.8,231z"/>
	<path class="st7" d="M141,234.5c1.1,0.5,2.2,1,3.4,1.2c0.9,0.1,1.8,0.2,2.7-0.1c0.8-0.2,1.1-0.8,1.1-1.2c0-0.8-0.5-1-1-1.2
		c-0.8-0.3-1.4-0.4-2.2-0.6c-0.8-0.2-1.7-0.4-2.5-0.8c-1.3-0.5-2.3-1.4-2.3-2.8c-0.2-1.5,0.3-2.8,1.6-3.8c0.9-0.8,2.1-1,3.2-1.1
		c1.8-0.2,3.5,0.1,5.2,0.8c0.5,0.2,0.8,0.5,0.4,1.1c-0.3,0.5-0.3,1.1-0.8,1.5c-0.5,0.4-1-0.3-1.5-0.4c-1.1-0.3-2.3-0.5-3.5-0.3
		c-0.3,0.1-0.6,0.1-0.9,0.3c-0.9,0.6-0.9,1.7,0.1,2.3c0.6,0.3,1.3,0.4,1.9,0.6c0.9,0.2,1.8,0.5,2.7,0.8c1.4,0.5,2.5,1.4,2.6,3
		c0.1,1.7-0.6,3-2.1,3.8c-0.8,0.4-1.5,0.6-2.3,0.8c-2.3,0.3-4.2,0-6.3-1c-0.9-0.4-0.9-0.5-0.5-1.3c0.2-0.4,0.4-0.8,0.5-1.2
		C140.8,234.7,140.9,234.6,141,234.5z"/>
	<path class="st7" d="M201.9,254.2c0,0.5,0.2,1,0.4,1.4c0.5,1,0.9,2.2,1.4,3.1c0.2,0.4,0.2,0.8-0.3,0.9c-2.2,0.9-1.7,0.9-2.4-0.8
		c-0.4-0.9-0.8-1.9-1.3-2.8c-0.5-1.1-1.2-1.4-2.3-1.1c-1,0.4-1.4,1.3-1,2.4c0.4,1.2,1,2.3,1.5,3.6c0.4,1,0.4,1-0.5,1.4
		c-1.6,0.8-1.3,0.8-2.1-0.8c-0.9-1.9-1.7-3.8-2.5-5.7c-0.4-0.9-0.4-1,0.6-1.4c0.5-0.2,1-0.8,1.6-0.1c0.2,0.2,0.3-0.1,0.4-0.3
		c0.5-0.8,1.1-1.2,1.9-1.5c0.8-0.3,1.5-0.4,2.3-0.1c0.5,0.2,0.8,0.1,1-0.4c0.5-1,1.3-1.6,2.4-2.1c1.6-0.6,3-0.1,4,1.4
		c0.6,0.9,0.9,1.9,1.4,2.9c0.3,0.6,0.6,1.3,0.9,1.9c0.1,0.2,0.3,0.5,0,0.6c-0.6,0.4-1.2,0.8-1.9,0.9c-0.3,0.1-0.4-0.3-0.5-0.6
		c-0.4-1-0.9-2.1-1.3-3c-0.2-0.4-0.3-0.8-0.5-1c-0.5-0.8-1.1-0.9-1.8-0.8C202.5,252.7,201.9,253.3,201.9,254.2z"/>
	<path class="st7" d="M140.8,267.4c0.1-1.2,0.4-2.4,0.3-3.7c0-1.4-1.1-2.2-2.4-1.5c-0.6,0.3-1,0.8-1.1,1.5c-0.2,1-0.3,2.2-0.4,3.1
		c-0.2,1.7-0.2,1.7-1.9,1.5c-0.5-0.1-0.8-0.3-0.8-0.8c0.1-1,0.2-1.9,0.3-2.9c0.1-1.4,0.3-2.7,0.5-4.1c0.1-0.9,0.2-0.9,1-0.8
		c0.5,0.1,1.2-0.1,1.5,0.6c0.1,0.3,0.3,0.2,0.5,0.1c1.7-0.6,3.4-0.5,4.7,0.9c0.4,0.4,0.6,0.1,0.9,0c1-0.6,2.2-0.8,3.2-0.4
		c1.6,0.4,2.5,1.4,2.6,3.1c0.1,1.8-0.3,3.8-0.5,5.5c0,0.1,0,0.2-0.1,0.2c-0.6,0.5-1.3,0.1-1.9,0.1c-0.4,0-0.6-0.3-0.6-0.8
		c0.1-0.9,0.2-1.9,0.3-2.8c0.1-0.6,0.1-1.2,0.1-1.8c0-0.9-0.4-1.4-1.2-1.5c-0.8-0.2-1.5,0.1-2.1,0.8c-0.3,0.4-0.4,0.9-0.4,1.3
		c-0.1,1.2-0.3,2.3-0.4,3.6c-0.1,0.6-0.3,0.8-0.8,0.6c-0.1,0-0.2,0-0.2,0C140.6,268.9,140.6,268.9,140.8,267.4z"/>
	<path class="st8" d="M157.3,224.2c1.6,0,3.4,0,5,0c0.9,0,1,0.1,1,1c0.1,1.6,0.1,1.6-1.6,1.6c-0.6,0-1.3,0-1.9,0
		c-0.9,0-0.9,0.1-0.9,1c0,2.3,0,4.7,0,6.9c0,0.8,0,1.6,0,2.3c0,0.9-0.1,0.9-0.8,0.9c-0.6,0-1.2,0-1.8,0c-0.4,0-0.6-0.2-0.6-0.6
		c0-0.3,0-0.6,0-0.9c0-2.8,0-5.6,0-8.5c0-1.2,0-1.2-1.2-1.2c-0.8,0-1.5,0-2.3,0c-0.8,0-0.9-0.1-0.9-0.9c-0.1-1.8-0.1-1.8,1.7-1.8
		C154.3,224.2,155.9,224.2,157.3,224.2L157.3,224.2z"/>
	<path class="st7" d="M193.1,260.6c0,2.5-2.3,4.7-5.2,4.7c-2.5,0-4.4-2.1-4.5-4.5c0-2.5,2.3-4.7,5.2-4.7
		C191,255.9,193.1,258,193.1,260.6z"/>
	<path class="st7" d="M129.6,266.3c-1.2,0.5-2.3,0.5-3.6,0c-1.5-0.6-2.3-1.9-2.1-3.6c0.2-1.7,0.8-3.5,1.2-5.3c0-0.1,0.1-0.3,0.1-0.3
		c0.8-0.4,1.3,0.1,2.1,0.2c0.4,0.1,0.4,0.4,0.3,0.8c-0.2,1.1-0.5,2.2-0.8,3.2c-0.1,0.4-0.2,0.8-0.2,1.2c-0.1,1,0.3,1.5,1,1.8
		c0.8,0.3,1.7,0.1,2.3-0.6c0.3-0.4,0.4-0.8,0.5-1.3c0.3-1.1,0.5-2.2,0.8-3.2c0.1-0.6,0.4-0.8,1-0.6c1.9,0.5,1.7,0.3,1.3,2.1
		c-0.5,1.9-0.9,3.9-1.4,5.8c-0.3,1-0.3,1-1.3,0.8C130.3,267.2,129.6,267.2,129.6,266.3z"/>
	<path class="st7" d="M105.1,249.2c1.5,0.1,2.9,0.6,4,1.6c1.1,0.9,1.5,2.2,1.1,3.6c-0.6,1.8-1.5,3.4-2.3,5.1
		c-0.1,0.1-0.2,0.3-0.3,0.3c-0.3,0.1-1.9-0.8-1.9-1c0-0.6-0.2-0.5-0.6-0.5c-1.2,0.1-2.3-0.4-3.1-1.2c-0.9-0.8-1.1-1.9-0.8-3
		c0.5-1.1,1.4-1.5,2.7-1.4c1,0.1,1.8,0.6,2.6,1c0.3,0.1,0.8,0.6,1,0.2c0.3-0.4,0.1-0.9-0.2-1.3c-0.5-0.8-1.2-0.9-2.1-1.1
		c-0.2-0.1-0.5-0.1-0.8-0.1s-0.8,0.1-0.8-0.3c-0.1-0.5-0.2-1,0-1.4C104.3,249.1,104.7,249.3,105.1,249.2z"/>
	<path class="st7" d="M160.6,265.3c0,1.1,0,2.3,0,3.5c0,0.9,0,1-0.9,1c-0.6,0-1.3,0.3-1.6-0.5c-0.1-0.2-0.4,0.1-0.6,0.2
		c-1,0.6-2.2,0.8-3.2,0.4c-1.4-0.4-2.3-1.3-2.4-2.7c-0.2-1.7-0.1-3.6-0.2-5.3c0-0.5,0.2-0.8,0.8-0.8c0.1,0,0.2,0,0.2,0
		c1.6-0.1,1.6-0.1,1.6,1.5c0,1.1,0,2.3,0.1,3.5c0.1,1.3,0.9,1.8,2.2,1.6c0.9-0.1,1.5-0.8,1.6-1.9c0.1-1.1,0-2.3,0-3.5
		c0-1.3,0-1.3,1.3-1.3c0.2,0,0.4,0,0.6,0c0.5,0,0.8,0.2,0.8,0.8C160.5,263,160.5,264.1,160.6,265.3L160.6,265.3z"/>
	<path class="st7" d="M165.3,269.4c-0.9,0-1.6-0.1-2.4-0.3c-0.5-0.1-0.8-0.4-0.5-0.9c0.1-0.2,0.1-0.4,0.2-0.6
		c0.1-0.5,0.4-0.6,0.9-0.4c0.9,0.3,1.9,0.5,2.9,0.2c0.3-0.1,0.5-0.1,0.8-0.3c0.4-0.3,0.3-0.8-0.1-0.9c-0.4-0.2-0.8-0.2-1.1-0.2
		c-0.8,0-1.4-0.1-2.2-0.2c-0.9-0.2-1.6-0.8-1.8-1.6c-0.2-1,0-1.9,0.8-2.6c0.3-0.3,0.8-0.5,1.1-0.8c1.4-0.5,2.9-0.5,4.4-0.2
		c0.8,0.2,0.8,0.3,0.6,1c-0.3,1.1-0.3,1.1-1.5,0.9c-0.8-0.1-1.6-0.2-2.3,0.1c-0.3,0.1-0.8,0.3-0.8,0.8c0,0.4,0.4,0.5,0.8,0.6
		c0.5,0.1,0.9,0.1,1.4,0.2c0.5,0.1,1,0.1,1.5,0.2c0.9,0.2,1.5,0.8,1.7,1.6s0,1.8-0.8,2.5c-0.5,0.4-1,0.8-1.6,0.9
		C166.7,269.3,165.9,269.4,165.3,269.4z"/>
	<path class="st7" d="M135.3,231.1c0-2.1,0-3.9,0-5.9c0-1,0-1,1-1c2.5,0,2.2-0.2,2.3,2.2c0,3.5,0,6.8,0,10.3c0,0.3,0,0.6,0,0.9
		c0,0.3-0.2,0.5-0.5,0.5h-0.1c-2.4,0.3-2.5,0.2-2.5-2.3C135.3,234.4,135.3,232.8,135.3,231.1z"/>
	<path class="st8" d="M119.8,264.2c-2.8,0-5.2-2.3-5.1-4.8c0-2.3,1.4-3.9,3.7-4.3c2.1-0.4,3.8,0.2,5.1,1.8c0.4,0.4,0.8,1,0.5,1.6
		c-0.2,0.4-0.9,0.3-1.4,0.4c-0.4,0.1-0.6-0.2-0.8-0.5c-0.8-1.1-1.6-1.5-2.6-1.2c-1,0.3-1.7,1.3-1.7,2.5c0,1.5,1.5,2.6,2.9,2.2
		c0.3-0.1,0.6-0.5,1-0.3c0.5,0.3,0.9,0.8,1.2,1.3c0.2,0.3-0.1,0.4-0.3,0.6C121.7,263.9,120.7,264.2,119.8,264.2z"/>
	<path class="st7" d="M179,267.4c-2.4,0-4.1-1.4-4.5-3.7c-0.4-2.3,0.8-4.1,2.9-5c1.4-0.5,2.7-0.8,4.1,0c0.3,0.1,0.5,0.3,0.8,0.5
		c0.3,0.3,0.4,0.6,0,0.9c-0.2,0.1-0.4,0.3-0.5,0.5c-0.4,0.5-0.8,0.5-1.4,0.1c-0.9-0.6-2.2-0.3-2.8,0.5s-0.8,2.2,0,3.1
		c0.6,0.8,1.6,1.1,2.6,0.8c0.4-0.2,0.8-0.4,1-0.8c0.3-0.6,0.8-0.6,1.3-0.4c1.3,0.4,1.4,0.8,0.5,1.8C182,266.8,180.6,267.4,179,267.4
		z"/>
	<path class="st8" d="M111.7,261.5c-0.5-0.2-1.1-0.5-1.6-0.8c-0.2-0.1-0.3-0.3-0.2-0.5c0.1-0.3,0.2-0.5,0.3-0.8
		c1.2-2.9,2.4-5.9,3.7-8.9c0.1-0.3,0.2-0.5,0.3-0.8c0.1-0.1,0.2-0.3,0.3-0.3c0.8,0.1,1.3,0.4,1.9,0.8c0.2,0.1,0.1,0.3,0,0.5
		c-0.2,0.4-0.3,0.9-0.5,1.3c-1.1,2.8-2.3,5.6-3.6,8.5C112.4,261,112.4,261.5,111.7,261.5z"/>
	<path class="st9" d="M174.3,267.1c0,0.9-0.8,1.5-1.6,1.5c-0.9,0-1.6-0.8-1.5-1.7c0.1-0.8,0.8-1.5,1.7-1.4
		C173.6,265.4,174.3,266.3,174.3,267.1z"/>
	<path class="st8" d="M413.1,289.7c-34.2,0-68.4,0-102.5,0c-1.8,0-1.6,0.2-1.6-1.5c0-32.1,0-64,0-96.2c0-0.2,0-0.3,0-0.5
		c0-1,0-1,1-1c4.5,0,9,0,13.5,0c0.3,0,0.6,0,0.8,0c0.5,0,0.8-0.1,0.8-0.8c0-0.5,0-1.1,0-1.6c0-0.4-0.2-0.6-0.6-0.6
		c-0.3,0-0.6,0-0.9,0c-4.3,0-8.7,0-13,0c-0.3,0-0.6,0-0.8,0c-0.5,0-0.8-0.2-0.8-0.8c0-1.6,0-3.4,0-5c0-0.6,0.3-0.8,0.8-0.8
		c2.3,0,4.3,0,6.6,0c1.1,0,1.1,0,1.1-1.1c0-2.3,0.2-1.8-1.9-1.9c-1.9,0-3.8,0-5.6,0c-0.8,0-0.8,0-0.9-0.9c0-1.6,0-3.1,0-4.8
		c0-0.6,0.2-0.8,0.8-0.8c2.3,0,4.3,0,6.6,0c1.1,0,1.1,0,1.1-1.1c0-2.3,0.2-1.9-1.8-1.9c-1.8,0-3.8,0-5.5,0c-1,0-1,0-1-1.1
		c0-1.5,0-3,0-4.5c0-0.8,0-0.8,0.9-0.8c2.3,0,4.3,0,6.6,0c1,0,1,0,1-1.1c0-2.3,0.2-1.9-1.9-1.9c-1.9,0-3.8,0-5.6,0
		c-0.6,0-0.8-0.2-0.8-0.8c0-1.6,0-3.1,0-4.8c0-0.8,0-0.9,0.9-0.9c2.3,0,4.3,0,6.6,0c1,0,1,0,1-1c0-2.3,0.2-1.9-1.8-1.9
		c-1.9,0-3.8,0-5.6,0c-0.9,0-0.9,0-0.9-0.8c0-1.6,0-3.1,0-4.8c0-0.8,0-0.8,0.9-0.8c2.2,0,4.2,0,6.5,0c2.9,0,5.7,0,8.7,0
		c0.9,0,0.9,0,0.9-0.9c0.1-2.1,0.1-2.1-2.1-2.1c-4.4,0-9,0-13.4,0c-0.3,0-0.5,0-0.8,0c-0.5,0-0.6-0.2-0.6-0.6c0-1.7,0-3.5,0-5.2
		c0-0.8,0.4-0.6,0.8-0.6c2.3,0,4.3,0,6.6,0c1,0,1.1,0,1.1-1c0-2.4,0.3-2.1-2.1-2.1c-1.8,0-3.8,0-5.5,0c-0.8,0-0.9,0-0.9-0.8
		c0-1.6,0-3.1,0-4.8c0-0.6,0.2-0.8,0.8-0.8c2.3,0,4.3,0,6.6,0c1.1,0,1.1,0,1.1-1.1c0-1.9,0-1.9-1.9-1.9s-3.8,0-5.6,0
		c-0.6,0-0.8-0.2-0.8-0.8c0-1.6,0-3.1,0-4.8c0-0.8,0-0.8,0.9-0.8c2.3,0,4.3,0,6.6,0c1,0,1,0,1-1.1c0-2.3,0.2-1.9-1.8-1.9
		c-1.8,0-3.8,0-5.5,0c-1,0-1,0-1-1c0-1.5,0-3.1,0-4.7c0-0.6,0.2-0.8,0.8-0.8c2.3,0,4.3,0,6.6,0c1.1,0,1.1,0,1.1-1.1
		c0-2.3,0.3-1.8-1.9-1.8c-1.9,0-3.8,0-5.6,0c-0.8,0-0.8,0-0.9-0.9c0-1.5,0-3.1,0-4.7c0-0.9,0-0.9,0.9-0.9c4.9,0,9.7,0,14.5,0
		c1.6,0,1.5,0.2,1.4-1.4c0-1.8,0.2-1.6-1.6-1.6c-4.5,0-9.2,0-13.7,0c-0.3,0-0.5,0-0.8,0c-0.5,0-0.8-0.1-0.8-0.8c0-0.2,0-0.5,0-0.8
		c0-23.7,0-47.4,0-71.1c0-0.2,0-0.5,0-0.8c0-0.4,0.2-0.8,0.6-0.6c0.3,0,0.5,0,0.8,0c68.5,0,136.9,0,205.4,0c0.1,0,0.2,0,0.4,0
		c1.1,0,1.2,0,1.2,1.2c0,23.8,0,47.6,0,71.5c0,0.2,0,0.4,0,0.6c0,0.5-0.2,0.6-0.6,0.6c-0.3,0-0.5,0-0.8,0c-4.4,0-8.9,0-13.3,0
		c-0.3,0-0.5,0-0.8,0s-0.6,0.2-0.6,0.6c0,0.1,0,0.2,0,0.2c0,2.7-0.3,2.3,2.2,2.3c4.2,0,8.3,0,12.7,0c0.3,0,0.6,0,0.9,0
		c0.3,0,0.5,0.1,0.5,0.5c0,1.8,0,3.7,0,5.4c0,0.5-0.4,0.5-0.8,0.5c-2.1,0-4.1,0-6.2,0c-0.3,0-0.5,0-0.8,0c-0.5,0-0.8,0.2-0.8,0.8
		c0.1,2.7-0.4,2.3,2.3,2.3c1.8,0,3.6,0,5.3,0c0.9,0,0.9,0,0.9,0.9c0,1.5,0,3.1,0,4.7c0,0.8,0,0.9-0.9,0.9c-1.9,0-3.8,0-5.8,0
		c-0.3,0-0.6,0-0.9,0c-0.6,0-0.9,0.1-0.8,0.8c0,0.5,0,0.9,0,1.4c-0.1,0.8,0.3,0.8,0.8,0.8c2.1,0,3.9,0,5.9,0c1.9,0,1.7-0.2,1.7,1.7
		c0,1.3,0,2.6,0,3.9c0,0.6-0.2,0.8-0.8,0.8c-2.3,0-4.4,0-6.7,0c-1,0-1,0-1,1c0,2.5-0.3,2.1,2.1,2.2c1.8,0,3.8,0,5.5,0
		c0.8,0,0.9,0,0.9,0.9c0,1.6,0,3.1,0,4.8c0,0.6-0.3,0.8-0.8,0.8c-2.3,0-4.4,0-6.7,0c-1,0-1,0-1,1c0,2.5-0.3,2.1,2.1,2.1
		c1.8,0,3.8,0,5.5,0c0.8,0,0.8,0,0.8,0.9c0,1.5,0,3,0,4.5c0,1,0,1-1.1,1c-4.8,0-9.6,0-14.3,0c-1.6,0-1.4-0.2-1.4,1.5
		c0,0.1,0,0.2,0,0.4c0,1.1,0,1.2,1.2,1.2c4.8,0,9.4,0,14.2,0c0.3,0,0.6,0,0.9,0c0.4,0,0.6,0.2,0.6,0.6c0,1.7,0,3.5,0,5.2
		c0,0.6-0.3,0.8-0.8,0.8c-1.9,0-3.8,0-5.6,0c-0.4,0-0.9,0-1.3,0c-0.5,0-0.8,0.2-0.8,0.8c-0.1,2.3-0.2,2.3,2.2,2.3c1.8,0,3.8,0,5.5,0
		c0.6,0,0.8,0.2,0.8,0.8c0,1.6,0,3.1,0,4.8c0,0.8,0,0.9-0.9,0.9c-2.1,0-4.1,0-6.2,0c-0.3,0-0.5,0-0.8,0c-0.5,0-0.6,0.2-0.6,0.8
		c0,0.5,0,1,0,1.5c0,0.6,0.2,0.8,0.8,0.8c1.8,0,3.7,0,5.4,0c0.8,0,1.5-0.3,2.1,0.2c0.4,0.5,0.1,1.3,0.1,1.9c0,1,0,2.1,0,2.9
		c0,1.4,0.1,1.3-1.2,1.3c-2.1,0-4.1,0-6.2,0c-1,0-1,0-1,1c0,0.4,0,0.8,0,1.2c-0.1,0.6,0.3,0.8,0.8,0.8c2.1,0,4.1,0,6.2,0
		c0.3,0,0.5,0,0.8,0c0.4,0,0.6,0.1,0.6,0.6c0,1.7,0,3.5,0,5.3c0,0.5-0.3,0.6-0.8,0.6c-0.8,0-1.5,0-2.3,0c-1.6,0-3.1,0-4.8,0
		c-0.6,0-0.8,0.2-0.8,0.8c0.1,2.5-0.3,2.2,2.2,2.2c1.8,0,3.8,0,5.5,0c0.6,0,0.8,0.2,0.8,0.8c0,1.6,0,3.1,0,4.8c0,0.9,0,0.9-1,0.9
		c-0.9,0-1.7,0-2.6,0c-4,0-8.2,0-12.2,0c-1,0-1,0-1.1,1c0,1.9,0,1.9,1.9,1.9c4.5,0,9,0,13.5,0c0.3,0,0.5,0,0.8,0
		c0.4,0,0.6,0.2,0.6,0.6c0,0.3,0,0.5,0,0.8c0,32.1,0,64.3,0,96.4c0,1.6,0.2,1.4-1.5,1.4C481.6,289.7,447.3,289.7,413.1,289.7z"/>
	<path class="st7" d="M169.8,85.3c-2.1,4.9-4,9.7-6.3,14.5c-0.5,1.2-0.6,1,0.5,1.9c4,3.1,7.9,6.4,11.8,9.6c0.2,0.2,0.6,0.3,0.6,0.8
		c-0.5,0.1-0.9,0-1.4,0c-5.1-0.4-10-0.8-15-1.4c-1-0.1-1-0.3-1.4,0.9c-1.7,4.9-3.7,9.7-5.6,14.5c-0.1,0.2-0.1,0.5-0.4,0.8
		c-0.2-0.3-0.3-0.8-0.3-1c-1.2-5.1-2.4-10-3.5-15c-0.2-1.1-0.2-1.1-1.3-1.1c-3.8-0.1-7.5-0.3-11.3-0.6c-1.7-0.1-3.5-0.2-5.1-0.3
		c-0.1-0.4,0.3-0.5,0.5-0.6c4.4-2.7,9-5.4,13.5-8.1c1-0.6,1-0.6,0.8-1.6c-1.4-5-2.7-10-3.9-15c-0.1-0.2-0.1-0.4-0.2-0.8
		c0.5,0,0.8,0.4,1,0.6c3.9,3.4,7.8,6.7,11.5,10.1c0.9,0.8,0.8,0.9,1.8,0.1c4.4-2.9,8.9-5.8,13.4-8.5C169.9,84.8,169.9,85,169.8,85.3
		z"/>
	<path class="st7" d="M107.7,89c4.8,3.4,9.7,5.9,15,7.8c5.3,1.8,10.9,2.6,16.6,2.3c-0.2,0.5-0.6,0.5-0.8,0.8
		c-2.6,1.6-5.3,3.1-7.8,4.8c-1.7,1.1-3.6,1.4-5.5,1.2c-2.5-0.2-4.9-0.9-7.2-1.8c-4.2-1.6-8.2-3.8-12-6.3c-0.4-0.3-0.8-0.5-0.5-1.1
		c1.1-2.3,1.8-4.7,2.2-7.1C107.6,89.4,107.6,89.3,107.7,89z"/>
	<path class="st7" d="M200.2,86.6c-11.5,0.3-22.1,3-31.2,10.3c-0.3-0.3-0.1-0.6,0-0.8c1.2-3,2.5-5.9,3.8-9c0.5-1.2,1.3-2.2,2.3-2.9
		c1.6-1.2,3.4-2.1,5.3-2.7c4-1.4,8.2-2.2,12.4-2.6c1.3-0.1,2.7-0.2,4-0.3c0.5,0,0.8,0.1,0.9,0.6c0.4,2.5,1.3,4.9,2.5,7
		C200.2,86.3,200.2,86.4,200.2,86.6z"/>
	<path class="st7" d="M153.3,87.4c-0.4-0.1-0.6-0.4-0.9-0.8c-2.3-1.9-4.4-3.9-6.8-5.8c-1.4-1.1-2.3-2.5-2.7-4.2
		c-0.8-2.7-0.9-5.5-0.8-8.3c0.3-4.3,1-8.5,2.2-12.8c0.3-1.2,0.3-1.2,1.5-1c2.3,0.3,4.4,0.2,6.6-0.2c0.2,0,0.4,0,0.6,0
		c0.1,0.5-0.1,0.9-0.2,1.3c-1.4,5-2.3,9.8-2.3,15c-0.1,5.3,0.6,10.6,2.5,15.8C153,86.6,153.1,87.1,153.3,87.4
		C153.3,87.3,153.3,87.3,153.3,87.4z"/>
	<path class="st7" d="M184.1,141.4c-3.8-10.8-9.7-20.1-19.5-26.5c0.2-0.4,0.4-0.2,0.6-0.2c3.4,0.3,6.7,0.5,9.8,0.8
		c1.4,0.1,2.6,0.8,3.8,1.5c1.4,1,2.5,2.3,3.7,3.6c2.3,2.9,4.1,6.1,5.7,9.4c0.9,1.8,1.7,3.8,2.4,5.6c0.2,0.5,0.2,0.8-0.3,1.1
		c-2.3,1.1-4.1,2.6-5.7,4.4C184.4,141.4,184.3,141.4,184.1,141.4z"/>
	<path class="st7" d="M146.3,116.2c0.3,1.3,0.6,2.5,0.9,3.8c0.5,2.1,0.9,4,1.4,5.9c0.5,1.8,0.3,3.7-0.4,5.3
		c-0.8,1.8-1.7,3.5-2.8,5.1c-2.4,3.5-5.3,6.4-8.4,9.1c-0.8,0.8-1.7,1.5-2.6,2.3c-0.3,0.3-0.6,0.4-0.9,0.1c-1.9-1.8-4-3.4-6.6-4.4
		c0.2-0.5,0.6-0.8,0.9-0.9c4.2-3.4,8-7,11.2-11.4c3-4.1,5.4-8.7,6.8-13.7c0.1-0.2,0.1-0.4,0.2-0.8
		C146.1,116.4,146.1,116.4,146.3,116.2z"/>
	<path class="st10" d="M169.8,85.3c-0.1-0.2-0.2-0.3-0.2-0.5c0.1-0.2,0.3-0.4,0.5-0.3C170.2,84.8,169.9,85,169.8,85.3z"/>
	<path class="st3" d="M142.4,26.5c-1.4-3.2-4-5-7.6-5.3c-1.7-0.1-3.4,0.1-5,0.6c-4.5,1.5-7,5.7-6.3,10.4c0.8,4.5,4.5,7.7,9.5,7.7
		c0.4,0,0.9,0,1.5-0.2c2.6-0.4,5-1.4,6.7-3.7C143.6,33.1,143.8,29.8,142.4,26.5z M133.4,36.1c-3.2,0-5.5-2.5-5.5-5.9
		c0-3.1,2.5-5.5,5.7-5.4c3.1,0,5.4,2.5,5.4,5.9C139,33.8,136.7,36.1,133.4,36.1z"/>
	<path d="M450.2,319.3c-0.8-2.5-2.4-4.3-5.1-5.1c-2.6-0.8-5-0.1-6.8,1.9c-0.2,0.1-0.3,0.3-0.6,0.8c-0.4-2.6,0.4-5.5,1.6-6.9
		c0.4-0.5,0.9-1,1.5-1.4c2.1-1.2,4.7-0.5,5.7,1.5c0.3,0.6,0.1,1.4,0.8,1.6c0.6,0.2,1.3,0,1.9-0.1c0.8,0,0.9-0.1,0.8-0.8
		c-0.5-2.5-1.9-4.2-4.4-5c-3.7-1-7.5,0.1-9.4,4c-0.3,0.8-0.6,1.4-0.8,2.3c-0.8,3-0.9,6.1-0.6,9.1c0.2,1.6,0.5,3.4,1.3,4.9
		c1.6,3,4.2,4.2,7.6,4c3-0.2,5.1-1.9,6.2-4.7C450.6,323.4,450.8,321.4,450.2,319.3z M446.8,324.9c-1.5,3.2-5.6,3.8-7.7,0.8
		c-1.2-1.7-1.5-3.7-0.9-5.6c0.8-2.3,2.6-3.6,5-3.4c2.2,0.2,3.8,1.8,4,4.1c0.1,0.3,0.1,0.8,0.1,1.1C447.4,323,447.3,324,446.8,324.9z
		"/>
	<path class="st3" d="M167.5,25.1c-1.2-5.2-7.8-7.7-12.1-4.5c-1.9,1.4-2.6,3.4-2.3,5.5c0.2,2.1,1.4,3.5,3.2,4.2
		c0.8,0.4,1.6,0.5,2.5,0.6c1.6,0.1,3.1-0.3,4.5-1.2c0,2.4-1.6,4.5-4.1,4.5c-0.9,0.1-1.8,0-2.7-0.2c-0.6-0.1-1.1-0.8-1.6-0.5
		c-0.5,0.3-0.8,1.1-1,1.6c-0.1,0.1-0.1,0.3-0.2,0.4c-0.4,0.8-0.4,0.8,0.4,1.2c1.3,0.8,2.8,0.9,4.3,1c4.3,0.2,7.7-2.1,8.9-6.1
		C168,29.5,168.1,27.3,167.5,25.1z M163,26c-0.3,1.2-1.4,1.9-2.8,1.8c-1.9,0-3.2-1.3-3-3c0.1-1.1,0.8-1.8,1.7-2.2
		c1.3-0.4,2.6-0.3,3.7,0.8C163.2,24.1,163.4,25,163,26z"/>
	<path class="st3" d="M185.7,27.5c-0.8-4.5-5.3-7.1-9.6-5.8c-2.3,0.6-3.7,2.2-4.7,4.1c-0.9,1.8-1.3,3.8-1.4,5.6
		c0.1,0.8,0.1,1.5,0.3,2.1c0.5,3.1,2.3,5.3,5.3,6.2c3.5,1,6.7-0.3,8.4-3.6C185.7,33.4,186.2,30.5,185.7,27.5z M180.7,33.7
		c-0.2,0.6-0.6,1.2-1,1.7c-1.6,1.6-4.1,1.1-5.1-1c-0.1-0.4-0.3-0.8-0.3-1.1c-0.2-2.3,0.2-4.5,1.3-6.6c0.8-1.4,2.1-2.1,3.4-1.7
		c1.3,0.2,2.3,1.2,2.5,2.8c0.1,0.3,0.1,0.8,0.1,1.1C181.6,30.7,181.4,32.3,180.7,33.7z"/>
	<path class="st3" d="M199.1,26.8c-3-1.2-6.2-0.8-8.3,1.7c-2.5,2.7-3.8,6.1-3.2,9.8c0.4,2.8,2.2,4.9,4.9,5.7c2.7,1,5.3,0.5,7.5-1.5
		c2.4-2.4,3.5-5.4,3.7-8.2C203.6,30.5,201.9,27.9,199.1,26.8z M199.4,33.7c-0.3,1.9-0.9,3.8-1.9,5.3c-0.3,0.5-0.8,0.9-1.1,1.2
		c-1.8,1.3-4.3,0.3-4.8-1.9c-0.1-0.3-0.1-0.8-0.1-1.1c0.2-2.3,0.9-4.2,2.3-6.2c0.3-0.4,0.8-0.8,1.1-1c1.6-1,3.7-0.3,4.3,1.4
		C199.6,32.2,199.6,33.1,199.4,33.7z"/>
	<path d="M414.2,313.3c-0.3-1.7-0.8-3.4-1.8-4.9c-0.9-1.4-2.3-2.4-3.9-2.7c-3.7-0.8-6.6,0.4-8.3,4c-0.3,0.8-0.6,1.6-0.8,2.4
		c-0.4,1.8-0.5,3.7-0.5,5.4c0,1.5,0,3,0.2,4.4c0.2,1.6,0.8,3.1,1.4,4.5c2.3,4.4,9.4,4.7,12,0.4c0.8-1.2,1.2-2.5,1.5-3.9
		C414.7,319.8,414.7,316.5,414.2,313.3z M410.9,323.4c-0.2,1.1-0.6,2.2-1.4,2.9c-1.6,1.7-4,1.7-5.6,0.1c-0.8-0.8-1.2-1.7-1.4-2.7
		c-0.5-1.9-0.5-3.9-0.6-5.8c0-1.9,0.1-3.8,0.5-5.7c0.2-0.8,0.4-1.4,0.8-2.2c1.4-2.4,4.4-2.7,6.4-0.8c0.8,0.8,1.2,1.8,1.4,2.9
		C411.7,315.9,411.7,319.6,410.9,323.4z"/>
	<path d="M395.8,317.7c0-0.8,0-1.6-0.1-2.4c-0.1-2.3-0.6-4.5-1.8-6.7c-2.4-4.1-9-4.2-11.5-0.5c-0.8,1.3-1.4,2.6-1.7,4.1
		c-0.6,2.7-0.6,5.5-0.4,8.3c0.1,1.8,0.5,3.8,1.3,5.4c0.8,1.7,2.1,3,3.8,3.7c3.5,1.1,7.1,0.2,9-3.8c0.3-0.6,0.5-1.2,0.8-1.8
		C395.7,322,395.9,319.8,395.8,317.7z M392.3,323.5c-0.3,1-0.8,2.1-1.4,2.8c-1.7,1.7-4,1.7-5.6,0c-0.9-1-1.4-2.3-1.6-3.6
		c-0.5-3.6-0.6-7,0.1-10.6c0.1-0.8,0.4-1.4,0.8-2.2c1.4-2.5,4.4-2.9,6.5-0.8c0.8,0.8,1.1,1.6,1.3,2.6c0.5,1.9,0.6,3.9,0.6,5.8
		C392.8,319.6,392.6,321.6,392.3,323.5z"/>
	<path class="st9" d="M199.9,59.9c-0.8,0.9-1.6,0.9-2.5,0.8c-1.3-0.3-2.2-1.5-2.1-3c0.1-1.4,0.9-2.5,2.3-2.8c1.2-0.3,2.4,0.4,3,1.5
		C201.4,57.5,201.1,58.9,199.9,59.9c-0.4-0.3-0.8-0.8-1-1.1c-0.3-0.5-0.4-0.9,0.1-1.3c0.4-0.3,0.8-0.6,0.3-1.1
		c-0.4-0.5-1-0.4-1.5-0.3c-0.5,0.1-0.8,0.4-0.6,0.9c0.1,0.3-0.3,1.1,0.8,0.8c0.3-0.1,0.6,0.2,0.8,0.6
		C199,58.8,199.4,59.5,199.9,59.9z"/>
	<path class="st3" d="M165,186.8c0,3.6-2.6,6.3-6.2,6.2c-3.5-0.1-5.9-2.6-5.9-6.2c0-3.6,2.5-6.2,6.1-6.2
		C162.5,180.6,165,183.2,165,186.8z"/>
	<path class="st3" d="M142.5,186.8c0,3.6-2.5,6.2-5.9,6.2c-3.5,0-6.1-2.6-6.2-6.2c0-3.6,2.5-6.2,6.1-6.2
		C140.1,180.6,142.5,183.2,142.5,186.8z"/>
	<path class="st3" d="M197.3,184c0-0.9,0-1.7,0-2.6c0-0.4,0.2-0.8,0.6-0.8c1.5,0,3-0.2,4.4,0.2c2.1,0.5,3,2.1,2.5,4.1
		c-0.3,1.3-1.2,2.1-2.4,2.3c-1.5,0.3-3,0.2-4.7,0.2c-0.5,0-0.6-0.3-0.6-0.8C197.3,185.8,197.3,185,197.3,184z"/>
	<path class="st3" d="M180.8,181.8c0.9,2.3,1.8,4.5,2.7,6.7c-0.1,0.2-0.2,0.3-0.2,0.3c-1.6,0.2-3.4,0.1-5,0.1
		c-0.5,0-0.6-0.2-0.4-0.8c0.8-2.1,1.7-4,2.5-6.2C180.5,182,180.6,182,180.8,181.8z"/>
	<path class="st3" d="M205.5,231.1c0-1.1,0-2.3,0-3.5c0-0.5,0.2-0.8,0.8-0.8c1,0,2.1,0,3,0.1c2.2,0.2,3.6,1.8,3.7,4
		c0.1,2.3-1.2,3.8-3.2,4.3c-1.2,0.3-2.3,0.1-3.6,0.1c-0.5,0-0.8-0.3-0.8-0.8C205.5,233.4,205.5,232.3,205.5,231.1z"/>
	<path class="st3" d="M181.3,231.7c-1.9,0-1.7,0.2-1.8-1.8c0-0.8,0-1.5,0-2.3c0-0.5,0.2-0.8,0.8-0.8c0.9,0,1.8,0,2.7,0.1
		c1.3,0.2,2.1,1,2.1,2.3c0,1.3-0.6,2.2-1.9,2.4C182.5,231.7,181.8,231.7,181.3,231.7z"/>
	<path class="st3" d="M98.6,229.2c0-0.6,0-1.2,0-1.8c0-0.4,0.2-0.6,0.6-0.6c1.1,0,2.3-0.1,3.4,0.2c1.1,0.3,1.6,1.1,1.6,2.3
		c0,1.1-0.5,1.9-1.6,2.3s-2.3,0.2-3.5,0.2c-0.4,0-0.5-0.3-0.5-0.6C98.6,230.4,98.6,229.9,98.6,229.2L98.6,229.2z"/>
	<path class="st3" d="M190.5,260.7c0,1.3-0.9,2.3-2.3,2.3c-1.2,0-2.3-1.2-2.3-2.6c0-1.2,1-2.3,2.3-2.3
		C189.4,258.2,190.5,259.3,190.5,260.7z"/>
	<path class="st3" d="M105.4,256.7c-0.6,0-1.1-0.2-1.6-0.6c-0.3-0.3-0.4-0.8-0.2-1.1c0.2-0.4,0.5-0.6,0.9-0.5
		c0.8,0.1,1.4,0.5,2.1,0.8c0.2,0.1,0.2,0.4,0.1,0.6C106.5,256.5,106,256.7,105.4,256.7z"/>
	<path d="M413,87.4c30,0,54.3,24.3,54.3,54.3s-24.2,54.2-54.2,54.2c-30,0-54.5-24.4-54.3-54.7C359,111.7,382.9,87.5,413,87.4z"/>
	<path d="M411,44.7c-0.4-0.3-0.6-0.4-0.9-0.6c-2.3-1.7-2.8-4.9-1.1-7.1c0.4-0.6,0.9-1.2,1.4-1.7c0.8-0.9,1.3-2.1,1.6-3.1
		c0.1-0.3,0.2-0.6,0-0.9c-1.4,0.1-2.6,0.8-3.9,1.6c0-1.7,0-3.5,0-5.1c0.4-0.2,0.5,0.1,0.8,0.3c0.8,0.4,1.4,0.8,2.2,1
		c0.4,0.1,0.8,0.4,1.1,0.1c0.3-0.3,0-0.8-0.1-1.1c-0.2-1-0.8-1.8-1.3-2.6c0.8-0.3,3.8-0.4,5.1-0.1c-0.8,1.2-1.4,2.4-1.5,3.9
		c1.5,0,2.7-0.8,4.1-1.6c0.1,1.8,0,3.5,0.1,5.3c-1.3-0.8-2.6-1.6-4.1-1.6c0.1,1.4,0.6,2.5,1.4,3.7c0.4,0.5,0.8,1,1.3,1.5
		c2.6,2.8,1.6,6.7-1.1,8.2c-0.1,0.1-0.2,0.1-0.3,0.3c0.8,0.8,1.5,1.6,1.8,2.7c0.1,0.5,0.5,0.3,0.9,0.3c2.8-0.4,5.5-1.3,8.2-2.3
		c4.3-1.7,8.3-1.1,12,1.7c4,3.1,5.3,8.5,3.6,13.4c-0.2,0.6-0.5,1.2-0.8,1.8c-0.8,1.8-0.1,3.5,1.6,4.2c1.4,0.8,1.4,0.8,0.8,2.3
		c-2.3,5.4-4.3,10.9-6.6,16.4c-0.1,0.1-0.1,0.3-0.2,0.4c-0.1,0.6-0.4,0.8-1,0.4c-2.2-0.9-4.2-1.6-6.5-2.3c-13-3.6-26-2.9-38.5,2.1
		c-0.1,0.1-0.3,0.1-0.4,0.2c-0.6,0.4-0.8,0.1-1-0.4c-2.3-5.8-4.7-11.8-6.9-17.6c-0.2-0.6-0.1-0.8,0.4-1.1c2.8-1.3,3.4-2.5,2.1-5.4
		c-1.4-3.1-1.6-6.3-0.4-9.5c2.3-6.2,9.4-9.2,15.6-6.7c2.7,1.1,5.4,1.9,8.3,2.4c0.5,0.1,0.8,0,0.9-0.6
		C409.4,46.1,410.2,45.3,411,44.7z"/>
	<path d="M408.8,205.2c-0.1,0.6-0.5,0.9-0.8,1.2c-3.2,3.9-6.4,7.9-9.6,11.8c-0.8,1-0.9,1.6,0,2.6c3.8,4.2,7.5,8.4,11.1,12.7
		c0.3,0.3,0.6,0.8,0.9,1c-0.2,0.4-0.5,0.3-0.8,0.3c-2.7,0-5.5,0-8.3,0c-0.8,0-1.1-0.2-1.5-0.8c-2.9-3.8-5.9-7.4-9-11.1
		c-0.3-0.4-0.5-0.8-1.1-0.8c-0.8,0-1.5-0.1-2.3,0c-0.2,0-0.3,0.2-0.3,0.4c0,0.3,0,0.6,0,0.9c0,3.4,0,6.8,0,10.1c0,1.1,0,1.1-1.1,1.1
		c-1.9,0-3.8,0-5.6,0c-0.6,0-0.8-0.2-0.8-0.8c0-1,0-2.1,0-3.1c0-8.1,0-16,0-24.1c0-0.3,0-0.6,0-0.8c-0.1-0.6,0.2-0.8,0.8-0.8
		c2.1,0,3.9,0,5.9,0c0.8,0,0.8,0,0.8,0.9c0,3.2,0,6.5,0,9.7c0,0.3,0,0.6,0,0.9c0,0.5,0.2,0.8,0.8,0.8c0.1,0,0.2,0,0.2,0
		c1.3,0.2,2.3-0.3,3.1-1.4c2.6-3.5,5.3-6.8,8-10.2c0.5-0.6,1-0.9,1.8-0.8C403.6,205.2,406.1,205.2,408.8,205.2z"/>
	<path d="M452.2,234.7c-2.4,0-4.9,0-7.4,0c-0.5,0-0.6-0.4-0.8-0.8c-0.6-1.6-1.2-3.2-1.8-4.9c-0.4-1.1-0.4-1.1-1.6-1.1c-4,0-8,0-12,0
		c-1.2,0-1.2,0-1.6,1.1c-0.6,1.6-1.2,3.2-1.8,4.9c-0.1,0.4-0.2,0.8-0.8,0.8c-2.3,0-4.8,0-7,0c-0.1-0.5,0.1-0.9,0.3-1.2
		c3.8-9.1,7.6-18.2,11.3-27.3c0.5-1.2,0.3-1.1,1.6-1.1c2.8,0,5.6,0,8.5,0c0.8,0,1.1,0.2,1.4,0.9c3.8,9.3,7.7,18.6,11.5,27.8
		C452.1,234.2,452.3,234.4,452.2,234.7z"/>
	<path d="M461.3,227.9c1.8,0.4,3.6,0.8,5.3,1.1c3.5,0.6,6.8,1,10.3,0.6c0.9-0.1,1.7-0.3,2.5-0.8c1-0.6,1.5-1.4,1.4-2.6
		c-0.1-1.1-0.8-1.8-1.7-2.3c-1.8-0.8-3.8-0.9-5.5-1.1c-1.9-0.3-3.8-0.6-5.5-1.1c-0.4-0.1-0.8-0.3-1.2-0.4c-4.8-1.8-5.9-5.5-5.1-9.8
		c0.5-2.3,2.1-3.8,4.1-5c1.5-0.8,3.1-1.1,4.8-1.3c5.1-0.6,10.1-0.3,15,0.9c0.3,0.1,0.5,0.2,0.8,0.2c0.4,0.1,0.5,0.3,0.5,0.8
		c0,1.4,0,2.7,0,4.1c0,0.6-0.2,0.6-0.8,0.5c-1.8-0.4-3.6-0.8-5.3-1c-2.8-0.3-5.6-0.6-8.4-0.1c-0.6,0.1-1.2,0.3-1.8,0.5
		c-0.9,0.5-1.4,1.2-1.4,2.3s0.6,1.8,1.5,2.2c1.5,0.6,3,0.8,4.7,1c2.3,0.3,4.3,0.6,6.6,1.2c1,0.3,2.1,0.6,3,1.1
		c2.2,1.1,3.4,2.9,3.7,5.3c0.1,1,0.2,2.1,0.1,3c-0.3,2.8-1.8,4.9-4.3,6.2c-2.1,1.1-4.2,1.5-6.5,1.7c-5,0.5-9.8,0-14.6-0.9
		c-0.2,0-0.5-0.1-0.8-0.2c-1-0.3-1-0.3-1-1.3C461.3,231.1,461.3,229.6,461.3,227.9z"/>
	<path d="M359.1,214.9c0-2.8,0-5.6,0-8.3c0-1.5,0-1.3,1.4-1.3c1.6,0,3.4,0,5,0c0.9,0,0.9,0,0.9,0.8c0,5.6,0,11.4,0,17.1
		c0,1.6-0.3,3.4-0.8,4.9c-1,3-3,5.1-5.9,6.2c-2.9,1-6.1,1.2-9.1,1c-1.3-0.1-2.7-0.2-4-0.5c-5.1-1.2-7.9-4.3-8.4-9.6
		c-0.1-1.2-0.2-2.5-0.2-3.8c0-4.9,0-9.7,0-14.6c0-0.3,0-0.5,0-0.8c0-0.5,0.1-0.8,0.8-0.8c2.2,0,4.2,0,6.3,0c0.4,0,0.6,0.2,0.6,0.6
		c0,0.3,0,0.5,0,0.8c0,5.3,0,10.4,0,15.7c0,0.9,0.1,1.8,0.2,2.7c0.5,2.6,1.9,4.1,4.5,4.7c1.4,0.3,2.9,0.3,4.3,0
		c2.4-0.5,3.8-1.9,4.3-4.3c0.3-1.2,0.3-2.4,0.3-3.7C359.1,219.5,359.1,217.2,359.1,214.9z"/>
	<path d="M435.5,269c-0.3,4-0.6,8.1-0.9,12.1c-0.1,0.9-0.1,0.9-1,0.9c-0.2,0-0.5,0-0.8,0c-0.5,0-0.6-0.2-0.6-0.8
		c0.3-4.1,0.8-8.3,1-12.5c0.1-1,0.2-2.1,0.2-2.9c0-0.6,0.3-0.8,0.9-0.8c2.3-0.1,2.3-0.1,3.2,2.2c1.2,2.9,2.3,5.7,3.6,8.7
		c0.1,0.3,0.3,0.6,0.4,1c0.4-0.2,0.5-0.6,0.6-0.8c1.4-3.2,2.7-6.6,4.1-9.8c0.3-0.8,0.8-1.1,1.5-1c2.3,0.1,2.1-0.4,2.3,2.2
		c0.3,4.5,0.8,9.1,1.1,13.6c0.1,1.3,0.1,1.3-1.3,1.3c-1,0-1,0-1-0.9c-0.3-3.9-0.6-8-0.9-11.9c0-0.3,0-0.5-0.1-0.9
		c-0.4,0.3-0.5,0.8-0.6,1.1c-1.3,3.1-2.7,6.4-4,9.5c-0.4,1-1.1,1.3-2.2,1c-0.5-0.1-0.5-0.6-0.8-0.9c-1.4-3.2-2.7-6.4-4-9.6
		c-0.1-0.2-0.2-0.4-0.2-0.5C435.7,268.6,435.6,268.9,435.5,269z"/>
	<path d="M448,245.6c-0.4,0.3-0.4,0.8-0.6,1.1c-1.3,3.1-2.7,6.4-4,9.5c-0.3,0.8-0.8,0.8-1.4,0.9c-0.8,0-1-0.2-1.3-0.9
		c-1.3-3.1-2.6-6.3-3.9-9.4c-0.2-0.4-0.2-0.8-0.6-1.2c-0.3,1.8-0.3,3.7-0.5,5.3c-0.2,2.4-0.4,4.9-0.5,7.4c-0.1,0.9-0.1,0.9-1,0.9
		c-1.4,0.1-1.5,0.1-1.4-1.4c0.4-5,0.8-9.8,1.2-14.7c0.1-0.8,0.1-0.8,0.9-0.8c2.3-0.1,2.3-0.1,3.2,2.2c1.2,2.8,2.3,5.7,3.6,8.5
		c0.2,0.4,0.2,0.8,0.6,1.1c0.3-0.3,0.4-0.8,0.6-1.2c1.3-3.2,2.7-6.4,4-9.6c0.3-0.8,0.8-1.1,1.5-1c0.5,0.1,0.9,0,1.4,0
		s0.8,0.2,0.8,0.8c0.1,1.5,0.3,3,0.4,4.7c0.3,3.6,0.5,7,0.8,10.6c0.1,1,0,1-1,1c-0.2,0-0.4,0-0.6,0c-0.5,0-0.8-0.2-0.8-0.8
		c-0.1-1.1-0.2-2.3-0.2-3.4c-0.2-2.8-0.4-5.6-0.6-8.3C448.1,246.6,448.2,246.1,448,245.6z"/>
	<path d="M339.2,254.3c1-2.3,1.8-4.3,2.7-6.5c0.8-1.6,1.3-3.2,2.1-4.9c0.2-0.5,0.5-0.8,1-0.8c0.8,0.1,1.6-0.3,2.3,0.1
		c0.6,0.4,0.3,1.3,0.3,2.1c0.3,3.7,0.6,7.1,0.9,10.8c0.1,1.1,0.2,2.3,0.3,3.4c0.1,0.6-0.1,0.8-0.8,0.8c-0.2,0-0.3,0-0.5,0
		c-1.1,0-1.1,0-1.2-1.1c-0.3-3.8-0.5-7.5-0.8-11.2c0-0.4,0-0.9-0.2-1.4c-0.4,0.4-0.5,0.8-0.6,1.2c-1.3,3.1-2.7,6.4-4,9.5
		c-0.3,0.8-0.8,0.8-1.4,0.8c-0.8,0-1-0.2-1.3-0.9c-1.3-3.1-2.6-6.2-3.9-9.3c-0.2-0.4-0.3-0.8-0.6-1.2c-0.3,0.4-0.2,0.8-0.3,1.3
		c-0.3,3.7-0.5,7.4-0.8,11c0,0.2,0,0.5-0.1,0.8c0,0.4-0.2,0.5-0.6,0.6c-1.6,0.2-1.8,0-1.7-1.5c0.4-4.9,0.8-9.8,1.1-14.6
		c0-0.6,0.3-0.8,0.8-0.8c0.8,0.1,1.7-0.3,2.3,0.1c0.6,0.4,0.8,1.3,0.9,2.1c1.2,2.8,2.3,5.7,3.6,8.5
		C338.7,253.4,338.9,253.8,339.2,254.3z"/>
	<path class="st11" d="M378.9,255.3c0.2-0.4,0.1-0.8,0.1-1.1c0-3.5,0-6.8,0-10.3c0-0.3,0-0.5,0-0.8s0.1-0.6,0.5-0.6
		c0.1,0,0.2,0,0.4,0c1.6,0,1.4-0.1,1.4,1.3c0,4.8,0,9.5,0,14.3c0,0.3,0,0.6,0,0.9s-0.2,0.4-0.4,0.4c-0.6,0-1.3,0-1.9,0
		c-0.4,0-0.6-0.4-0.8-0.8c-0.6-1.1-1.2-2.3-1.9-3.5c-1.4-2.6-2.8-5.3-4.3-7.9c-0.2-0.3-0.4-0.6-0.6-1.1c-0.2,0.5-0.2,0.9-0.2,1.3
		c0,3.7,0,7.1,0,10.8c0,1,0,1-1,1c-0.2,0-0.5,0-0.8,0c-0.4,0-0.6-0.1-0.6-0.5c0-0.2,0-0.5,0-0.8c0-4.9,0-9.7,0-14.4
		c0-0.2,0-0.5,0-0.8c0-0.3,0.1-0.5,0.5-0.5c0.8,0,1.3,0,2.1,0c0.6,0,0.8,0.5,0.8,0.9c1.6,2.9,3.1,5.9,4.8,8.9
		c0.5,0.9,0.9,1.7,1.4,2.6C378.6,254.9,378.6,255.2,378.9,255.3z"/>
	<path d="M472,246.3c0,0.6,0,1,0,1.5c0,3.5,0,6.9,0,10.4c0,1.2,0,1.2-1.2,1.2c-0.2,0-0.3,0-0.5,0c-0.4,0-0.6-0.1-0.6-0.6
		c0-5.3,0-10.5,0-15.8c0-0.5,0.2-0.6,0.8-0.6c2.2-0.1,2.2-0.2,3.2,1.7c1.8,3.4,3.7,6.8,5.4,10.1c0.2,0.3,0.3,0.8,0.8,1
		c0.2-0.4,0.1-0.8,0.1-1c0-3.5,0-6.9,0-10.4c0-0.3,0-0.5,0-0.8s0.1-0.5,0.5-0.6c1.6-0.2,1.8-0.1,1.8,1.6c0,4.7,0,9.3,0,13.8
		c0,0.3,0,0.6,0,0.9s-0.2,0.6-0.6,0.6c-0.5,0-0.9,0-1.4,0c-0.6,0-0.9-0.2-1.1-0.8c-0.6-1.2-1.3-2.4-2.1-3.7
		c-1.4-2.5-2.8-5.2-4.2-7.7C472.6,246.9,472.5,246.6,472,246.3z"/>
	<path d="M401.7,250.9c0-1.1,0-2.3,0-3.4c0.1-2.6,1.4-4.2,3.9-5c1.7-0.5,3.5-0.5,5.2-0.3c0.8,0.1,1.5,0.2,2.3,0.3
		c0.9,0.2,0.9,0.2,0.9,1c0,1,0,1-1,0.9c-1.5-0.2-3-0.3-4.7-0.2c-0.4,0-0.8,0-1.2,0.1c-2.3,0.4-3.1,1.5-3.1,3.8c0,1.8,0,3.7,0,5.4
		c0,2.3,1,3.5,3.4,3.8c1.6,0.3,3.2,0.1,4.8-0.4c0.5-0.2,0.8-0.4,0.8-1c0-0.8,0-1.5,0-2.3c0-0.6-0.2-0.8-0.8-0.8c-0.8,0-1.3,0-2.1,0
		c-0.6,0-0.8-0.2-0.8-0.8c0-0.2,0-0.4,0-0.6c0-0.5,0.2-0.6,0.6-0.6c1.5,0,3,0,4.5,0c0.4,0,0.6,0.2,0.6,0.6c0,2.1,0,3.9,0,5.9
		c0,0.4-0.2,0.6-0.5,0.8c-3,1.5-6.3,1.8-9.4,0.8c-2.2-0.8-3.1-2.3-3.4-4.4C401.6,253.2,401.7,252.1,401.7,250.9L401.7,250.9z"/>
	<path class="st11" d="M418.4,273.6c0-2.5,0-5,0-7.5c0-1,0-1,1-1c2.8,0,5.6,0,8.5,0c0.3,0,0.8-0.1,0.8,0.3c0.1,0.5,0.2,1.1,0,1.6
		c-0.1,0.3-0.5,0.2-0.8,0.2c-1.8,0-3.8,0-5.5,0c-0.3,0-0.6,0-0.8,0c-0.6-0.1-0.8,0.2-0.8,0.8c0,1.3,0,2.6,0,3.9
		c0,0.6,0.2,0.8,0.8,0.8c1.8,0,3.7,0,5.4,0c0.3,0,0.8-0.2,0.9,0.3c0.1,0.5,0.2,1.1-0.1,1.6c-0.1,0.3-0.5,0.2-0.8,0.2
		c-1.7,0-3.5,0-5.3,0c-1.1,0-1.1,0-1.1,1.1c0,1,0,2.1,0,2.9c0,1.2,0,1.2,1.1,1.2c1.9,0,3.8,0,5.8,0c0.2,0,0.5,0,0.8,0
		c0.5,0,0.6,0.2,0.6,0.6v0.1c0.1,1.3,0.1,1.3-1.2,1.3c-2.7,0-5.4,0-8.2,0c-1.2,0-1.2,0-1.2-1.1C418.4,278.4,418.4,275.9,418.4,273.6
		z"/>
	<path d="M399.3,259.2c-0.2,0.1-0.3,0.1-0.3,0.1c-2.1,0.2-2.1,0.2-2.6-1.7c-0.3-0.9-0.8-1.8-1-2.8c-0.2-0.5-0.4-0.8-1-0.8
		c-1.7,0-3.5,0-5.2,0c-0.6,0-0.8,0.2-1,0.8c-0.4,1.2-0.8,2.4-1.2,3.7c-0.3,1-0.3,1-1.3,1c-1.5,0-1.5,0-1-1.4
		c1.7-4.9,3.5-9.7,5.3-14.5c0.4-1,0.1-1,1.5-1c1.9,0,1.9,0,2.6,1.8c1.6,4.7,3.4,9.2,5,13.8C399,258.4,399.1,258.8,399.3,259.2z"/>
	<path d="M365.9,259.2c-0.1,0.1-0.2,0.1-0.3,0.1c-2.1,0.2-2.1,0.2-2.6-1.7c-0.3-0.9-0.8-1.8-1-2.8c-0.2-0.6-0.5-0.8-1.1-0.8
		c-1.6,0-3.4,0-5,0c-0.6,0-0.8,0.2-1,0.8c-0.4,1.2-0.8,2.4-1.2,3.7c-0.3,1-0.3,1-1.4,1c-0.4,0-0.8,0-1.1,0c-0.3-0.4-0.1-0.6,0-0.9
		c1.8-5.1,3.7-10.2,5.4-15.3c0.2-0.6,0.5-0.9,1.2-0.9c2.3,0,2.3,0,2.9,2.1c1.6,4.5,3.2,9,4.9,13.5
		C365.7,258.3,365.9,258.7,365.9,259.2z"/>
	<path class="st11" d="M455.4,250.8c0-2.5,0-5,0-7.5c0-0.9,0-0.9,0.9-0.9c2.9,0,5.7,0,8.7,0c0.8,0,0.8,0,0.8,0.9
		c0,1.2,0,1.2-1.1,1.2c-2.1,0-4,0-6.1,0c-0.8,0-0.8,0-0.9,0.9c0,1.2,0,2.4,0,3.7c0,0.9,0,0.9,1,0.9c1.7,0,3.5,0,5.3,0
		c0.3,0,0.6-0.1,0.9,0.2c0.1,0.2,0,1.5-0.1,1.6c-0.2,0.2-0.5,0.1-0.8,0.1c-1.6,0-3.2,0-4.9,0c-0.3,0-0.5,0-0.8,0s-0.6,0.2-0.6,0.6
		c0,1.4,0,2.7,0,4.1c0,0.6,0.3,0.6,0.8,0.6c2.1,0,3.9,0,5.9,0c0.3,0,0.6,0,0.8,0c0.6,0,0.8,0.2,0.8,0.8c0,0.2,0,0.5,0,0.8
		c0,0.4-0.2,0.6-0.6,0.6c-0.8,0-1.3,0-2.1,0c-2.3,0-4.7,0-6.9,0c-1,0-1,0-1-1C455.4,255.8,455.4,253.3,455.4,250.8z"/>
	<path class="st11" d="M418.8,250.8c0-2.5,0-5,0-7.5c0-0.9,0-0.9,0.9-0.9c2.8,0,5.6,0,8.5,0c1,0,1,0,1,1c0,1.1,0,1.1-1.1,1.1
		c-2.1,0-3.9,0-5.9,0c-1,0-1,0-1,0.9c0,1.3,0,2.5,0,3.8c0,0.6,0.2,0.8,0.8,0.8c1.8,0,3.7,0,5.4,0c0.3,0,0.8-0.2,0.9,0.3
		c0.1,0.5,0.2,1-0.1,1.5c-0.1,0.3-0.5,0.2-0.8,0.2c-1.5,0-3.1,0-4.7,0c-0.3,0-0.5,0-0.8,0c-0.6,0-0.9,0.1-0.8,0.8c0,1.3,0,2.5,0,3.8
		c0,0.6,0.3,0.8,0.9,0.8c2.1,0,4.1,0,6.2,0c0.3,0,0.5,0,0.8,0s0.4,0.2,0.4,0.5c0,0.3,0,0.5,0,0.8c0,0.6-0.3,0.8-0.8,0.8
		c-1.3,0-2.7,0-4,0c-1.6,0-3.4,0-5,0c-0.8,0-0.8,0-0.8-0.9C418.8,255.9,418.8,253.3,418.8,250.8z"/>
	<path d="M366.7,264.8c1.3,0.1,2.4,0.1,3.6,0.3c0.6,0.1,0.9,0.3,0.9,1c0,0.2,0,0.4,0,0.6c0,0.5-0.2,0.8-0.8,0.6
		c-1.3-0.3-2.5-0.4-3.8-0.4c-0.6,0-1.1,0.1-1.6,0.2c-0.8,0.2-1.5,0.6-1.7,1.5c-0.2,0.9,0,1.8,0.8,2.4c0.6,0.4,1.2,0.8,1.8,1.1
		c1.1,0.6,2.3,1.1,3.4,1.7c1.8,1,2.8,2.4,2.4,5.3c-0.2,1.4-1,2.3-2.4,2.7c-1.4,0.4-2.8,0.5-4.2,0.5c-1.3-0.1-2.5-0.3-3.8-0.5
		c-0.6-0.1-0.9-0.3-0.9-1c0-0.3,0-0.5,0-0.8s0.2-0.5,0.5-0.4c0.8,0.2,1.5,0.3,2.3,0.4c1.1,0.2,2.3,0.2,3.5,0.1c0.3,0,0.8-0.1,1-0.2
		c0.8-0.2,1.4-0.6,1.5-1.4c0.2-0.8,0-1.6-0.8-2.3c-0.4-0.4-0.8-0.6-1.3-0.8c-1.4-0.8-2.8-1.4-4.2-2.3c-2.1-1.1-2.7-2.5-2.3-5.4
		c0.2-1.3,1.1-2.2,2.4-2.5c0.3-0.1,0.8-0.2,1-0.2C365.2,264.9,365.9,264.8,366.7,264.8z"/>
	<path d="M464.7,267.4c-0.8-0.1-1.7-0.2-2.5-0.4c-1.2-0.2-2.3-0.2-3.6,0.1c-0.9,0.2-1.6,0.8-1.7,1.7c-0.2,0.9,0.1,1.7,0.9,2.3
		c0.8,0.6,1.7,1,2.6,1.4c0.9,0.5,1.9,0.9,2.8,1.5c2.1,1.2,2.8,3.8,1.9,5.9c-0.4,1-1.2,1.5-2.3,1.8c-1.4,0.4-2.9,0.5-4.3,0.4
		c-1.2-0.1-2.3-0.3-3.6-0.5c-0.9-0.1-0.9-0.2-0.9-1.1c0-0.4-0.1-0.8,0.1-1.2c1.8,0.4,3.6,0.8,5.3,0.8c0.6,0,1.2-0.1,1.7-0.2
		c0.8-0.2,1.3-0.5,1.5-1.3c0.2-0.9,0.1-1.7-0.6-2.4c-0.3-0.3-0.6-0.5-1-0.6c-1.2-0.6-2.4-1.2-3.6-1.8c-0.4-0.2-0.8-0.4-1.1-0.6
		c-2.1-1.3-2.7-3.8-1.8-6.1c0.4-1,1.2-1.6,2.3-1.8c2.4-0.6,4.9-0.4,7.2,0c0.4,0.1,0.5,0.3,0.5,0.8
		C464.8,266.3,464.9,266.8,464.7,267.4z"/>
	<path d="M400.1,267.4c-0.9-0.1-1.7-0.3-2.6-0.4c-1.2-0.1-2.3-0.2-3.6,0.1c-0.9,0.2-1.5,0.8-1.7,1.6c-0.2,0.9,0.1,1.7,0.9,2.3
		c0.6,0.5,1.3,0.8,1.9,1.1c1.1,0.6,2.3,1.2,3.5,1.8c2.3,1.2,2.6,3.5,2.1,5.8c-0.3,1.1-1.2,1.7-2.3,2.1c-1.2,0.4-2.5,0.5-3.8,0.5
		c-1.4,0-2.7-0.3-4.1-0.5c-0.6-0.1-0.9-0.4-0.8-1c0-0.4-0.1-0.8,0.1-1.2c1,0.2,2.1,0.4,3,0.5c1.3,0.2,2.7,0.2,4-0.1
		c0.8-0.2,1.6-0.5,1.7-1.5c0.1-1-0.1-1.9-1-2.5c-0.9-0.5-1.9-1-2.8-1.5c-0.9-0.5-1.9-0.9-2.8-1.5c-1.9-1.3-2.5-4-1.4-6.2
		c0.4-0.8,1.1-1.3,2.1-1.5c0.9-0.3,1.8-0.3,2.8-0.4c1.4,0,2.8,0.1,4.2,0.3c0.6,0.1,0.9,0.4,0.8,1
		C400.2,266.5,400.3,266.8,400.1,267.4z"/>
	<path class="st11" d="M373.3,265.1c0.1-0.1,0.1-0.1,0.2-0.1c2.3-0.2,2.3-0.2,3.4,1.8c1.1,2.2,2.3,4.2,3.4,6.3
		c0.2,0.3,0.3,0.6,0.5,0.9c0.4-0.3,0.5-0.8,0.8-1c1.2-2.3,2.4-4.7,3.6-6.9c0.4-0.9,1-1.3,2.1-1.2c0.4,0.1,0.8-0.1,1.1,0.1
		c0,0.4-0.3,0.8-0.4,1.1c-1.7,3.2-3.6,6.4-5.3,9.6c-0.4,0.6-0.5,1.3-0.5,2.1c0,1.1,0,2.3,0,3.5c0,0.5-0.2,0.8-0.8,0.8
		c-1.9,0-1.7,0.1-1.6-1.5c0.2-2.6-0.4-5.1-1.8-7.2c-1.4-2.3-2.5-4.5-3.8-6.8C373.6,266.1,373.3,265.7,373.3,265.1z"/>
	<path class="st12" d="M410.5,274.6c0,2.3,0,4.3,0,6.6c0,0.9,0,0.9-0.9,0.9c-1.5,0-1.4,0.2-1.4-1.3c0-4,0-8,0-12c0-0.3,0-0.5,0-0.8
		c0-0.5-0.2-0.8-0.8-0.8c-1.2,0-2.4,0-3.6,0c-0.6,0-0.9-0.2-0.8-0.8c0-0.2,0-0.5,0-0.8c0-0.3,0.1-0.5,0.5-0.5c0.2,0,0.4,0,0.6,0
		c3.5,0,6.9,0,10.4,0c0.3,0,0.8-0.2,1,0.2c0.2,0.5,0.2,1.1,0,1.6c-0.1,0.3-0.4,0.2-0.8,0.2c-1.1,0-2.3,0-3.4,0c-1,0-1,0-1,1.1
		C410.5,270.3,410.5,272.4,410.5,274.6z"/>
	<path class="st11" d="M490.1,251.8c0-2.2,0-4.1,0-6.3c0-1.1,0-1.1-1.1-1.1c-0.9,0-1.9,0-2.8,0c-1.2,0-1.2,0-1.2-1.2
		c0-0.9,0-0.9,0.9-0.9h0.1c3.6,0,7,0,10.6,0c0.3,0,0.8-0.2,1,0.2c0.2,0.5,0.2,1.1,0,1.6c-0.1,0.3-0.5,0.2-0.8,0.2
		c-1.1,0-2.2,0-3.2,0c-1.2,0-1.2,0-1.2,1.1c0,4.1,0,8.2,0,12.3c0,0.3,0,0.5,0,0.8s-0.1,0.6-0.5,0.6c-0.1,0-0.2,0-0.4,0
		c-1.4,0.1-1.4,0.1-1.4-1.4C490.1,255.9,490.1,254,490.1,251.8z"/>
	<path class="st13" d="M442.3,44.7c0,1-0.8,1.9-1.8,1.9c-1.1,0-1.9-0.8-1.9-1.9c0-1,0.9-1.8,1.9-1.8
		C441.5,42.8,442.3,43.7,442.3,44.7z"/>
	<path class="st13" d="M443.9,65.5c-1,0-1.8-0.9-1.8-1.9c0-1.1,0.9-1.9,2.1-1.9c1,0,1.8,0.9,1.8,1.9C445.9,64.7,445,65.5,443.9,65.5
		z"/>
	<path class="st12" d="M384.5,48.7c0,1-0.8,1.9-1.8,1.9c-1,0-1.9-0.9-1.9-1.9c0-1,0.8-1.8,1.9-1.8C383.7,46.7,384.5,47.6,384.5,48.7
		z"/>
	<path class="st13" d="M420.8,45.9c-1,0-1.8-0.9-1.8-1.9c0-1.1,0.9-1.9,2.1-1.8c1,0,1.8,0.9,1.8,1.9
		C422.5,45.1,421.7,45.9,420.8,45.9z"/>
	<path class="st13" d="M382.7,58.7c0,1-0.8,1.9-1.8,1.9c-1.1,0-1.9-0.8-1.9-1.8c0-1.1,0.8-2.1,1.9-2.1
		C381.8,56.9,382.7,57.6,382.7,58.7z"/>
	<path class="st13" d="M435.9,44c-1.1,0-1.9-0.8-1.9-1.8c0-1.1,0.9-2.1,1.9-1.9c1,0,1.9,0.9,1.8,1.9C437.7,43.1,437,44,435.9,44z"/>
	<path class="st13" d="M382.7,53.5c0,1-0.8,1.8-1.9,1.8c-1.1,0-1.9-0.8-1.9-1.9c0-1,0.9-1.8,1.9-1.8
		C381.9,51.6,382.7,52.6,382.7,53.5z"/>
	<path class="st13" d="M447.5,53.5c0,1-0.8,1.8-1.9,1.9c-1.1,0-1.9-0.8-1.9-1.8c0-1.1,0.8-2.1,1.9-1.9
		C446.6,51.6,447.5,52.6,447.5,53.5z"/>
	<path class="st13" d="M445.6,56.9c1,0,1.9,0.9,1.9,1.9c0,1.1-0.9,1.9-2.1,1.9c-1,0-1.8-0.9-1.8-1.9
		C443.7,57.6,444.6,56.8,445.6,56.9z"/>
	<path class="st13" d="M390.5,44c-1.1,0-1.8-0.8-1.8-1.9c0-1,0.8-1.9,1.8-1.9c0.9,0,2.1,0.9,1.9,2.1C392.4,43.3,391.5,44,390.5,44z"
		/>
	<path class="st13" d="M445.6,48.7c0,1-0.9,1.9-1.9,1.9c-0.9,0-1.9-0.9-1.9-2.1c0-1,0.9-1.8,1.9-1.8
		C444.9,46.7,445.6,47.6,445.6,48.7z"/>
	<path class="st12" d="M387.9,44.8c0,1-0.9,1.8-1.9,1.8c-1.1,0-1.9-0.9-1.8-2.1c0.1-1,0.9-1.8,1.9-1.8
		C387.1,42.8,387.9,43.7,387.9,44.8z"/>
	<path class="st13" d="M384.3,63.6c0,1-0.8,1.9-1.8,1.9c-1,0-1.9-0.8-1.9-1.8c-0.1-1.1,0.8-2.1,1.8-2.1
		C383.4,61.8,384.3,62.6,384.3,63.6z"/>
	<path class="st12" d="M427.6,42.2c0,1-0.8,1.9-1.8,1.9c-0.9,0-1.9-0.8-1.9-1.8c0-1,0.8-2.1,1.9-2.1
		C426.7,40.3,427.5,41.1,427.6,42.2z"/>
	<path class="st12" d="M400.8,44c-1,0-1.9-0.8-1.9-1.8c0-0.9,0.8-1.9,1.8-1.9c1.1,0,2.1,0.8,2.1,1.9C402.7,43.3,401.7,44,400.8,44z"
		/>
	<path class="st12" d="M430.7,39.4c1,0,1.8,0.8,1.8,1.9c0,1.1-0.8,1.9-1.8,1.9c-1.1,0-2.1-0.9-1.9-1.9
		C428.9,40.2,429.7,39.4,430.7,39.4z"/>
	<path class="st12" d="M407.5,43.9c0,1-0.8,1.9-1.8,1.9c-1,0-1.9-0.9-1.9-1.9c0-0.9,0.9-1.8,1.9-1.8
		C406.7,42.1,407.5,42.9,407.5,43.9z"/>
	<path class="st12" d="M397.5,41.3c0,1.1-0.8,1.8-1.9,1.8s-1.9-0.8-1.9-1.8c0-1.1,0.9-1.9,1.9-1.9C396.7,39.4,397.5,40.2,397.5,41.3
		z"/>
	<path class="st14" d="M435.5,269c0-0.1,0-0.1,0-0.2c0-0.2,0-0.4,0.1-0.5c0.3-0.1,0.3,0.2,0.3,0.4C435.8,268.9,435.7,269,435.5,269z
		"/>
	<path class="st15" d="M199.9,59.9c-0.8,0-1-0.5-1.3-1c-0.2-0.3-0.3-0.9-0.8-0.8c-0.5,0.1-0.2,0.8-0.3,1c0,0.1,0,0.2,0,0.3
		c0,0.2-0.2,0.3-0.3,0.3c-0.2,0-0.3-0.1-0.3-0.3c-0.1-1.1-0.1-2.3,0-3.5c0-0.2,0.2-0.4,0.4-0.4c0.5,0,1.1-0.1,1.6,0
		c0.9,0.2,1.3,1.2,0.8,1.8c-0.6,0.6-0.5,1-0.1,1.6C199.8,59.3,199.9,59.6,199.9,59.9L199.9,59.9z"/>
	<path class="st7" d="M413.1,190.3c-26.7,0-48.4-21.7-48.7-48c-0.3-26.5,21-48.8,47.9-49.1c27.3-0.4,49.2,21.7,49.2,48.5
		S439.9,190.3,413.1,190.3z"/>
	<path class="st7" d="M433.4,71.2c1.1,0.3,2.1-0.1,2.6-1s0.6-2.3-0.1-3.1c-1-1.2-2.3-1.3-3.8-0.5c0.4-1.2,0.8-2.3,0.8-3.5
		c0.1-0.8,0-1.6-0.2-2.3c-0.4-1.4-1.4-1.6-2.4-0.6c-0.6,0.8-1,1.5-1.3,2.3c-0.3,1-0.5,2.1-0.5,3c-0.5,0-0.6-0.4-0.8-0.6
		c-0.9-0.8-2.2-0.8-3-0.3c-1,0.6-1.4,1.4-1.3,2.6c0.1,1.1,0.8,1.8,1.9,2.3c0.2-0.2,0-0.4,0-0.8c0-0.8,0.6-1.5,1.3-1.5
		c0.8,0,1.3,0.5,1.4,1.3c0.1,0.8-0.1,1.3-0.3,1.9c-0.8,2.1-2.3,3.1-4.3,3.7c-3.4,0.9-6.8-0.8-8.2-3.9c-0.2-0.5-0.4-0.9-0.4-1.6
		c2.7,0.4,4.9,1.8,6.7,4c0-3.7,0-7,0-10.6c-1.8,2.2-3.8,3.7-6.7,3.9c0.2-1.5,0.8-2.6,1.8-3.6c0.8-0.6,0.8-1.2,0.8-2.2
		c0-2.9,0-5.7,0-8.7c0-1.1,0.2-1,0.9-1.1c3.2-0.5,6.4-1.4,9.5-2.6c3.5-1.3,6.6-0.8,9.2,1.8s3.2,5.6,2.3,9.1
		c-0.2,0.8-0.5,1.3-0.8,2.1c-1,2.7-0.8,5.2,1.4,7.1c0.4,0.4,0.5,0.8,0.3,1.3c-1,2.5-2.1,5.2-3.1,7.7c-0.3,0.8-0.4,0.8-1.1,0.6
		c-2.6-0.8-4.3-2.5-5-5.3c-0.2-1-0.1-2.1,0.3-2.9c0.4-0.9,1.2-1.3,2.1-0.9c0.8,0.3,1.1,1.4,0.4,2.3C433.4,71,433.3,71.1,433.4,71.2z
		"/>
	<path class="st7" d="M411.7,66.2c-2.7-0.4-4.8-1.8-6.6-3.8c-0.2,3.5-0.1,6.8,0,10.3c1.8-2.1,3.8-3.5,6.6-3.8c0.2,0.4,0,0.8-0.1,1
		c-1.5,4.1-6.5,5.9-10.3,3.8c-1.4-0.8-2.3-2.1-2.7-3.7c-0.1-0.5-0.2-0.9-0.1-1.4c0.1-0.8,0.8-1.2,1.4-1.2c0.8,0,1.2,0.6,1.3,1.3
		c0,0.3-0.2,0.6,0,0.9c1.2-0.4,1.9-1.2,2.1-2.3c0.1-1-0.5-2.2-1.5-2.5c-1.4-0.6-2.6-0.2-3.7,1.1c-0.2-1-0.3-1.8-0.5-2.6
		c-0.2-1-0.8-1.9-1.3-2.7c-0.4-0.5-0.9-0.9-1.5-0.8c-0.6,0.2-0.8,0.8-1,1.2c-0.4,1.4-0.2,2.8,0.2,4.2c0.1,0.4,0.3,0.9,0.5,1.5
		c-1.5-0.8-2.8-0.8-3.9,0.6c-0.8,0.9-0.8,2.1-0.1,3c0.6,0.9,1.5,1.3,2.6,1c0.1-0.3-0.2-0.4-0.3-0.6c-0.3-0.8-0.2-1.5,0.5-1.8
		c0.8-0.4,1.5-0.2,1.9,0.5c0.8,1.2,0.8,2.5,0.3,3.8c-0.8,2.5-2.5,3.9-5,4.8c-0.5,0.2-0.8,0-1-0.5c-1-2.6-2.2-5.3-3.1-8
		c-0.2-0.5-0.2-0.8,0.2-1.1c2.3-2.2,2.6-4.7,1.4-7.5c-0.4-0.9-0.8-1.9-1-2.9c-0.6-3.4,0.4-6.2,2.9-8.3c2.6-2.3,5.6-2.7,8.8-1.5
		c3,1.2,6.1,2.2,9.3,2.6c1.1,0.2,1.1,0.2,1.1,1.2c0,2.9,0,5.8,0,8.8c0,0.8,0.2,1.2,0.8,1.7C410.9,63.5,411.5,64.7,411.7,66.2z"/>
	<path class="st8" d="M434.6,222.6c-1.3,0-2.7,0-4,0c-0.9,0-1-0.1-0.8-0.9c1.3-3.5,2.6-6.8,3.9-10.2c0.2-0.4,0.4-0.8,0.9-0.8
		c0.6,0,0.8,0.4,0.9,0.8c1.3,3.5,2.6,6.8,3.9,10.2c0.3,0.8,0.3,0.9-0.6,0.9C437.5,222.7,436.1,222.6,434.6,222.6z"/>
	<path class="st9" d="M391.9,244.9c0.8,2.4,1.6,4.8,2.4,7.1c-1.6,0-3.1,0-4.7,0c-0.3,0-0.4-0.2-0.3-0.5c0.1-0.2,0.1-0.4,0.2-0.6
		c0.6-1.8,1.2-3.6,1.8-5.3C391.5,245.3,391.5,245.1,391.9,244.9z"/>
	<path class="st8" d="M358.4,244.9c0.3,0.1,0.3,0.2,0.4,0.4c0.8,2.1,1.3,3.9,2.1,5.9c0.3,0.8,0.2,0.8-0.6,0.8c-1.4,0-2.7,0-4.2,0
		C356.7,249.5,357.6,247.2,358.4,244.9z"/>
	<path class="st16" d="M198.4,57.3c-0.5,0-0.8-0.1-0.8-0.6c0-0.4,0.2-0.6,0.6-0.6c0.6,0,1,0.3,0.9,0.8
		C199,57.3,198.6,57.3,198.4,57.3z"/>
	<path d="M443.9,116c0,0.2,0.1,0.4,0.1,0.6c0,3.8,0,7.5,0,11.1c0,0.8-0.3,1-0.8,1.4c-15.6,11.2-28.1,25-38.2,41.3
		c-0.9,1.5-1.8,3-2.7,4.7c-0.2,0.3-0.3,0.8-0.6,1c-0.4-0.2-0.5-0.6-0.8-0.9c-5.7-7.6-12.4-14.1-20.1-19.5c-0.8-0.5-1-1-1-1.8
		c0-4.2,0-8.5,0-12.8c0-0.3-0.1-0.8,0.2-1.1c0.4,0,0.8,0.3,1.2,0.4c6.2,2.9,11.9,6.6,17.3,10.7c0.2,0.2,0.4,0.3,0.6,0.5
		c0.3,0.2,0.5,0.2,0.8-0.1c0.4-0.5,0.8-1,1.2-1.4c9.8-11.5,21.1-21.5,34.1-29.3c2.4-1.5,5-2.9,7.6-4.2
		C443.2,116.3,443.5,116.1,443.9,116z"/>
</g>
<g>
	<path d="M90.5,371.6c-0.3,2.7-1.2,4.7-2.9,6.2c-1.7,1.5-4,2.2-6.8,2.2c-2,0-3.7-0.5-5.2-1.4c-1.5-0.9-2.7-2.3-3.5-4
		c-0.8-1.7-1.2-3.7-1.3-6v-2.3c0-2.3,0.4-4.4,1.2-6.2c0.8-1.8,2-3.2,3.6-4.1c1.6-1,3.4-1.5,5.4-1.5c2.7,0,5,0.7,6.6,2.2
		c1.7,1.5,2.6,3.6,2.9,6.3h-4.3c-0.2-1.8-0.7-3.1-1.6-3.9c-0.8-0.8-2.1-1.2-3.7-1.2c-1.9,0-3.3,0.7-4.3,2.1c-1,1.4-1.5,3.4-1.5,6
		v2.2c0,2.7,0.5,4.7,1.4,6.2c1,1.4,2.4,2.1,4.2,2.1c1.7,0,3-0.4,3.8-1.1c0.9-0.8,1.4-2,1.6-3.8H90.5z"/>
	<path d="M102.1,380c-2.6,0-4.8-0.8-6.4-2.5c-1.6-1.7-2.5-3.9-2.5-6.6v-0.5c0-1.8,0.4-3.5,1.1-4.9c0.7-1.5,1.7-2.6,3-3.4
		c1.3-0.8,2.7-1.2,4.3-1.2c2.5,0,4.5,0.8,5.8,2.4c1.4,1.6,2.1,3.9,2.1,6.8v1.7H97.5c0.1,1.5,0.6,2.7,1.5,3.6s2,1.3,3.4,1.3
		c1.9,0,3.5-0.8,4.6-2.3l2.2,2.1c-0.7,1.1-1.7,2-3,2.6C105.1,379.7,103.7,380,102.1,380z M101.6,364.2c-1.1,0-2.1,0.4-2.8,1.2
		c-0.7,0.8-1.1,1.9-1.3,3.3h7.9v-0.3c-0.1-1.4-0.5-2.4-1.1-3.2C103.7,364.5,102.8,364.2,101.6,364.2z"/>
	<path d="M122.4,365c-0.5-0.1-1.1-0.1-1.7-0.1c-1.9,0-3.2,0.7-3.8,2.2v12.6h-4.2v-18.5h4l0.1,2.1c1-1.6,2.4-2.4,4.2-2.4
		c0.6,0,1.1,0.1,1.5,0.2L122.4,365z"/>
	<path d="M131.1,356.7v4.5h3.3v3.1h-3.3v10.3c0,0.7,0.1,1.2,0.4,1.5c0.3,0.3,0.8,0.5,1.5,0.5c0.5,0,1-0.1,1.5-0.2v3.2
		c-0.9,0.3-1.9,0.4-2.7,0.4c-3.2,0-4.8-1.8-4.8-5.3v-10.5h-3v-3.1h3v-4.5H131.1z"/>
	<path d="M137.6,356.4c0-0.6,0.2-1.2,0.6-1.6c0.4-0.4,1-0.6,1.7-0.6s1.3,0.2,1.7,0.6c0.4,0.4,0.6,1,0.6,1.6c0,0.6-0.2,1.1-0.6,1.6
		s-1,0.6-1.7,0.6s-1.3-0.2-1.7-0.6C137.8,357.5,137.6,357,137.6,356.4z M142,379.7h-4.2v-18.5h4.2V379.7z"/>
	<path d="M148,379.7v-15.4h-2.8v-3.1h2.8v-1.7c0-2.1,0.6-3.6,1.7-4.8c1.1-1.1,2.7-1.7,4.8-1.7c0.7,0,1.5,0.1,2.3,0.3l-0.1,3.2
		c-0.5-0.1-1-0.1-1.6-0.1c-2,0-3,1-3,3.1v1.6h3.8v3.1h-3.8v15.4H148z"/>
	<path d="M158.9,356.4c0-0.6,0.2-1.2,0.6-1.6c0.4-0.4,1-0.6,1.7-0.6s1.3,0.2,1.7,0.6c0.4,0.4,0.6,1,0.6,1.6c0,0.6-0.2,1.1-0.6,1.6
		s-1,0.6-1.7,0.6s-1.3-0.2-1.7-0.6C159.1,357.5,158.9,357,158.9,356.4z M163.3,379.7h-4.2v-18.5h4.2V379.7z"/>
	<path d="M175.4,376.7c1,0,1.9-0.3,2.6-0.9c0.7-0.6,1-1.4,1.1-2.2h3.9c0,1.2-0.4,2.2-1.1,3.2c-0.7,1-1.6,1.8-2.7,2.4
		c-1.2,0.6-2.4,0.9-3.7,0.9c-2.6,0-4.6-0.8-6.2-2.5c-1.5-1.7-2.3-4-2.3-6.9v-0.4c0-2.8,0.8-5.1,2.3-6.8c1.5-1.7,3.6-2.5,6.2-2.5
		c2.2,0,4,0.6,5.4,1.9c1.4,1.3,2.1,3,2.2,5h-3.9c0-1.1-0.4-1.9-1.1-2.6c-0.7-0.7-1.5-1-2.6-1c-1.3,0-2.4,0.5-3.1,1.5
		c-0.7,1-1.1,2.5-1.1,4.4v0.7c0,2,0.4,3.5,1.1,4.5C173,376.2,174.1,376.7,175.4,376.7z"/>
	<path d="M197.2,379.7c-0.2-0.4-0.3-0.9-0.5-1.7c-1.3,1.4-2.9,2.1-4.9,2.1c-1.9,0-3.4-0.5-4.5-1.6c-1.2-1.1-1.8-2.4-1.8-3.9
		c0-2,0.7-3.5,2.2-4.5c1.5-1.1,3.6-1.6,6.3-1.6h2.5v-1.2c0-1-0.3-1.7-0.8-2.3c-0.5-0.6-1.4-0.9-2.4-0.9c-0.9,0-1.7,0.2-2.3,0.7
		c-0.6,0.5-0.9,1.1-0.9,1.8H186c0-1,0.3-2,1-2.8c0.7-0.9,1.6-1.6,2.7-2.1c1.2-0.5,2.4-0.8,3.9-0.8c2.2,0,3.9,0.5,5.2,1.6
		c1.3,1.1,1.9,2.6,2,4.6v8.3c0,1.7,0.2,3,0.7,4v0.3H197.2z M192.7,376.7c0.8,0,1.6-0.2,2.3-0.6c0.7-0.4,1.3-0.9,1.6-1.6V371h-2.2
		c-1.5,0-2.7,0.3-3.5,0.8c-0.8,0.5-1.2,1.3-1.2,2.3c0,0.8,0.3,1.4,0.8,1.9C191.1,376.5,191.8,376.7,192.7,376.7z"/>
	<path d="M210.3,356.7v4.5h3.3v3.1h-3.3v10.3c0,0.7,0.1,1.2,0.4,1.5c0.3,0.3,0.8,0.5,1.5,0.5c0.5,0,1-0.1,1.5-0.2v3.2
		c-0.9,0.3-1.9,0.4-2.7,0.4c-3.2,0-4.8-1.8-4.8-5.3v-10.5h-3v-3.1h3v-4.5H210.3z"/>
	<path d="M224.9,380c-2.6,0-4.8-0.8-6.4-2.5c-1.6-1.7-2.5-3.9-2.5-6.6v-0.5c0-1.8,0.4-3.5,1.1-4.9c0.7-1.5,1.7-2.6,3-3.4
		c1.3-0.8,2.7-1.2,4.3-1.2c2.5,0,4.5,0.8,5.8,2.4c1.4,1.6,2.1,3.9,2.1,6.8v1.7h-12.1c0.1,1.5,0.6,2.7,1.5,3.6s2,1.3,3.4,1.3
		c1.9,0,3.5-0.8,4.6-2.3l2.2,2.1c-0.7,1.1-1.7,2-3,2.6C227.8,379.7,226.4,380,224.9,380z M224.4,364.2c-1.1,0-2.1,0.4-2.8,1.2
		c-0.7,0.8-1.1,1.9-1.3,3.3h7.9v-0.3c-0.1-1.4-0.5-2.4-1.1-3.2C226.4,364.5,225.5,364.2,224.4,364.2z"/>
	<path d="M264.4,379.7h-4.3L249,362v17.7h-4.3v-24.9h4.3l11.1,17.7v-17.7h4.3V379.7z"/>
	<path d="M280.3,377.9c-1.2,1.4-3,2.2-5.2,2.2c-2,0-3.5-0.6-4.6-1.8c-1-1.2-1.5-2.9-1.5-5.1v-12h4.2v11.9c0,2.3,1,3.5,2.9,3.5
		c2,0,3.4-0.7,4.1-2.2v-13.3h4.2v18.5h-3.9L280.3,377.9z"/>
	<path d="M292.4,361.2l0.1,1.9c1.3-1.5,3.1-2.3,5.3-2.3c2.5,0,4.2,0.9,5.1,2.8c1.3-1.9,3.2-2.8,5.7-2.8c2,0,3.6,0.6,4.6,1.7
		c1,1.1,1.5,2.8,1.5,5v12.2h-4.2v-12c0-1.2-0.3-2-0.8-2.6c-0.5-0.5-1.4-0.8-2.5-0.8c-0.9,0-1.7,0.3-2.3,0.8c-0.6,0.5-1,1.2-1.3,2
		l0,12.7h-4.2v-12.2c-0.1-2.2-1.2-3.3-3.3-3.3c-1.7,0-2.8,0.7-3.5,2v13.4h-4.2v-18.5H292.4z"/>
	<path d="M335.2,370.6c0,2.9-0.6,5.2-1.9,6.9c-1.3,1.7-3,2.5-5.3,2.5c-2.2,0-3.9-0.8-5.1-2.3l-0.2,2H319v-26.2h4.2v9.5
		c1.2-1.4,2.8-2.1,4.8-2.1c2.3,0,4,0.8,5.3,2.5c1.3,1.7,1.9,4,1.9,7V370.6z M331.1,370.3c0-2-0.4-3.5-1.1-4.5
		c-0.7-1-1.7-1.5-3.1-1.5c-1.8,0-3.1,0.8-3.8,2.4v7.6c0.7,1.6,2,2.4,3.8,2.4c1.3,0,2.3-0.5,3-1.5c0.7-1,1.1-2.4,1.1-4.4V370.3z"/>
	<path d="M346.8,380c-2.6,0-4.8-0.8-6.4-2.5c-1.6-1.7-2.5-3.9-2.5-6.6v-0.5c0-1.8,0.4-3.5,1.1-4.9c0.7-1.5,1.7-2.6,3-3.4
		c1.3-0.8,2.7-1.2,4.3-1.2c2.5,0,4.5,0.8,5.8,2.4c1.4,1.6,2.1,3.9,2.1,6.8v1.7h-12.1c0.1,1.5,0.6,2.7,1.5,3.6s2,1.3,3.4,1.3
		c1.9,0,3.5-0.8,4.6-2.3l2.2,2.1c-0.7,1.1-1.7,2-3,2.6C349.8,379.7,348.4,380,346.8,380z M346.3,364.2c-1.1,0-2.1,0.4-2.8,1.2
		c-0.7,0.8-1.1,1.9-1.3,3.3h7.9v-0.3c-0.1-1.4-0.5-2.4-1.1-3.2C348.4,364.5,347.5,364.2,346.3,364.2z"/>
	<path d="M367.2,365c-0.5-0.1-1.1-0.1-1.7-0.1c-1.9,0-3.2,0.7-3.8,2.2v12.6h-4.2v-18.5h4l0.1,2.1c1-1.6,2.4-2.4,4.2-2.4
		c0.6,0,1.1,0.1,1.5,0.2L367.2,365z"/>
	<path d="M389.5,379.7h-4.1v-20l-6.1,2.1v-3.5l9.7-3.6h0.5V379.7z"/>
	<path d="M414.7,357.1l-9.9,22.6h-4.4l9.9-21.6h-12.9v-3.3h17.2V357.1z"/>
	<path d="M432.1,370.8h3.1v3.3h-3.1v5.5h-4.2v-5.5h-10.8l-0.1-2.5l10.7-16.8h4.3V370.8z M421.4,370.8h6.5v-10.4l-0.3,0.5
		L421.4,370.8z"/>
	<path d="M439,367.3l1.4-12.5h13.4v3.6h-9.9l-0.7,5.9c1.2-0.7,2.5-1,3.9-1c2.4,0,4.2,0.8,5.5,2.3c1.3,1.5,2,3.6,2,6.1
		c0,2.5-0.7,4.5-2.2,6c-1.5,1.5-3.5,2.2-6,2.2c-2.3,0-4.2-0.6-5.7-1.9s-2.3-3-2.4-5.1h4c0.2,1.2,0.6,2.1,1.3,2.8
		c0.7,0.6,1.6,1,2.8,1c1.3,0,2.3-0.5,3-1.4c0.7-0.9,1.1-2.2,1.1-3.7c0-1.5-0.4-2.7-1.2-3.6c-0.8-0.9-1.9-1.3-3.2-1.3
		c-0.8,0-1.4,0.1-1.9,0.3c-0.5,0.2-1.1,0.6-1.7,1.2L439,367.3z"/>
	<path d="M474.4,357.1l-9.9,22.6h-4.4l9.9-21.6h-12.9v-3.3h17.2V357.1z"/>
</g>
<rect x="6" y="4" class="st17" width="538" height="335.8"/>
</svg>
