<svg width="32" height="32" viewBox="0 0 32 32" fill="none" xmlns="http://www.w3.org/2000/svg">
<mask id="mask0_514_4165" style="mask-type:alpha" maskUnits="userSpaceOnUse" x="0" y="0" width="32" height="32">
<rect width="32" height="32" fill="#D9D9D9"/>
</mask>
<g mask="url(#mask0_514_4165)">
<path d="M8.03044 23.0563C9.16377 22.2153 10.3984 21.5512 11.7343 21.064C13.0702 20.5768 14.492 20.3333 15.9996 20.3333C17.5073 20.3333 18.9291 20.5768 20.265 21.064C21.6009 21.5512 22.8355 22.2153 23.9688 23.0563C24.7979 22.1452 25.4548 21.0905 25.9394 19.8922C26.424 18.6939 26.6663 17.3965 26.6663 15.9999C26.6663 13.0443 25.6274 10.5277 23.5496 8.44989C21.4719 6.37211 18.9552 5.33322 15.9996 5.33322C13.0441 5.33322 10.5274 6.37211 8.44964 8.44989C6.37186 10.5277 5.33297 13.0443 5.33297 15.9999C5.33297 17.3965 5.57529 18.6939 6.05991 19.8922C6.54453 21.0905 7.20137 22.1452 8.03044 23.0563ZM16 16.9999C14.7827 16.9999 13.7561 16.582 12.9202 15.7464C12.0843 14.9108 11.6663 13.8843 11.6663 12.667C11.6663 11.4496 12.0842 10.423 12.9198 9.58709C13.7554 8.7512 14.7819 8.33325 15.9992 8.33325C17.2166 8.33325 18.2432 8.75106 19.0791 9.58669C19.915 10.4223 20.3329 11.4488 20.3329 12.6662C20.3329 13.8835 19.9151 14.9101 19.0795 15.746C18.2439 16.5819 17.2174 16.9999 16 16.9999ZM15.9996 28.6665C14.2407 28.6665 12.5907 28.3357 11.0497 27.6742C9.50865 27.0127 8.16805 26.1118 7.02787 24.9717C5.88772 23.8315 4.98687 22.4909 4.32534 20.9499C3.66379 19.4089 3.33301 17.7589 3.33301 15.9999C3.33301 14.2409 3.66379 12.5909 4.32534 11.0499C4.98687 9.5089 5.88772 8.1683 7.02787 7.02812C8.16805 5.88796 9.50865 4.98712 11.0497 4.32559C12.5907 3.66403 14.2407 3.33325 15.9996 3.33325C17.7586 3.33325 19.4086 3.66403 20.9496 4.32559C22.4906 4.98712 23.8312 5.88796 24.9714 7.02812C26.1116 8.1683 27.0124 9.5089 27.6739 11.0499C28.3355 12.5909 28.6663 14.2409 28.6663 15.9999C28.6663 17.7589 28.3355 19.4089 27.6739 20.9499C27.0124 22.4909 26.1116 23.8315 24.9714 24.9717C23.8312 26.1118 22.4906 27.0127 20.9496 27.6742C19.4086 28.3357 17.7586 28.6665 15.9996 28.6665ZM15.9996 26.6666C17.2031 26.6666 18.3633 26.473 19.4804 26.0858C20.5975 25.6986 21.5894 25.1572 22.4561 24.4614C21.5894 23.7913 20.6103 23.2691 19.5189 22.8948C18.4274 22.5204 17.2544 22.3332 15.9996 22.3332C14.7449 22.3332 13.5697 22.5182 12.474 22.8883C11.3782 23.2584 10.4013 23.7828 9.54321 24.4614C10.4099 25.1572 11.4018 25.6986 12.5189 26.0858C13.636 26.473 14.7962 26.6666 15.9996 26.6666ZM15.9996 14.9999C16.6629 14.9999 17.2176 14.7768 17.6638 14.3307C18.1099 13.8845 18.333 13.3298 18.333 12.6666C18.333 12.0033 18.1099 11.4486 17.6638 11.0024C17.2176 10.5563 16.6629 10.3332 15.9996 10.3332C15.3364 10.3332 14.7817 10.5563 14.3355 11.0024C13.8894 11.4486 13.6663 12.0033 13.6663 12.6666C13.6663 13.3298 13.8894 13.8845 14.3355 14.3307C14.7817 14.7768 15.3364 14.9999 15.9996 14.9999Z" fill="white"/>
</g>
</svg>
